ISO-10303-21;
HEADER;
/* Generated by software containing ST-Developer
 * from STEP Tools, Inc. (www.steptools.com) 
 */
/* OPTION: using custom renumber hook */

FILE_DESCRIPTION(
/* description */ ('STEP AP242 Edition 2',
'CAx-IF Rec.Pracs.---Representation and Presentation of Product Manufa
cturing Information (PMI)---4.0---2014-10-13',
'CAx-IF Rec.Pracs.---3D Tessellated Geometry---0.4---2014-09-14','2;1',
'CAx-IF Rec.Pracs.---User Defined Attributes---1.5---2016-08-15'),
/* implementation_level */ '2;1');

FILE_NAME(
/* name */ 'BarSync_Inserts_V1.2_top',
/* time_stamp */ '2026-09-04T14:14:39Z',
/* author */ (''),
/* organization */ (''),
/* preprocessor_version */ 'ST-DEVELOPER v20',
/* originating_system */ 'ONSHAPE BY PTC INC, 1.220',
/* authorisation */ '  ');

FILE_SCHEMA (('AP242_MANAGED_MODEL_BASED_3D_ENGINEERING_MIM_LF { 1 0 10303 442 3 1 4 }'));
ENDSEC;

DATA;
#10=SHAPE_REPRESENTATION_RELATIONSHIP('','',#1355,#11);
#11=ADVANCED_BREP_SHAPE_REPRESENTATION('',(#1353),#2243);
#12=CYLINDRICAL_SURFACE('',#1431,0.002);
#13=CYLINDRICAL_SURFACE('',#1432,0.002);
#14=CYLINDRICAL_SURFACE('',#1433,0.002);
#15=CYLINDRICAL_SURFACE('',#1434,0.002);
#16=CYLINDRICAL_SURFACE('',#1435,0.008);
#17=CYLINDRICAL_SURFACE('',#1439,0.008);
#18=CYLINDRICAL_SURFACE('',#1442,0.008);
#19=CYLINDRICAL_SURFACE('',#1446,0.008);
#20=CYLINDRICAL_SURFACE('',#1449,0.002);
#21=CYLINDRICAL_SURFACE('',#1450,0.002);
#22=CYLINDRICAL_SURFACE('',#1451,0.002);
#23=CYLINDRICAL_SURFACE('',#1452,0.002);
#24=CYLINDRICAL_SURFACE('',#1453,0.00775);
#25=CYLINDRICAL_SURFACE('',#1454,0.0013);
#26=CYLINDRICAL_SURFACE('',#1458,0.0013);
#27=CYLINDRICAL_SURFACE('',#1459,0.0013);
#28=CYLINDRICAL_SURFACE('',#1460,0.00775);
#29=CYLINDRICAL_SURFACE('',#1461,0.0013);
#30=CYLINDRICAL_SURFACE('',#1469,0.00085);
#31=CYLINDRICAL_SURFACE('',#1472,0.00085);
#32=CYLINDRICAL_SURFACE('',#1475,0.00085);
#33=CYLINDRICAL_SURFACE('',#1478,0.00085);
#34=CYLINDRICAL_SURFACE('',#1481,0.006);
#35=CYLINDRICAL_SURFACE('',#1482,0.006);
#36=CYLINDRICAL_SURFACE('',#1483,0.006);
#37=CYLINDRICAL_SURFACE('',#1484,0.001);
#38=CYLINDRICAL_SURFACE('',#1485,0.001);
#39=LINE('',#1874,#159);
#40=LINE('',#1877,#160);
#41=LINE('',#1879,#161);
#42=LINE('',#1881,#162);
#43=LINE('',#1883,#163);
#44=LINE('',#1885,#164);
#45=LINE('',#1887,#165);
#46=LINE('',#1889,#166);
#47=LINE('',#1891,#167);
#48=LINE('',#1893,#168);
#49=LINE('',#1895,#169);
#50=LINE('',#1897,#170);
#51=LINE('',#1901,#171);
#52=LINE('',#1904,#172);
#53=LINE('',#1905,#173);
#54=LINE('',#1907,#174);
#55=LINE('',#1909,#175);
#56=LINE('',#1910,#176);
#57=LINE('',#1918,#177);
#58=LINE('',#1921,#178);
#59=LINE('',#1923,#179);
#60=LINE('',#1925,#180);
#61=LINE('',#1926,#181);
#62=LINE('',#1929,#182);
#63=LINE('',#1931,#183);
#64=LINE('',#1933,#184);
#65=LINE('',#1935,#185);
#66=LINE('',#1937,#186);
#67=LINE('',#1939,#187);
#68=LINE('',#1941,#188);
#69=LINE('',#1943,#189);
#70=LINE('',#1951,#190);
#71=LINE('',#1956,#191);
#72=LINE('',#1960,#192);
#73=LINE('',#1964,#193);
#74=LINE('',#1976,#194);
#75=LINE('',#1979,#195);
#76=LINE('',#1981,#196);
#77=LINE('',#1983,#197);
#78=LINE('',#1985,#198);
#79=LINE('',#1987,#199);
#80=LINE('',#1989,#200);
#81=LINE('',#1991,#201);
#82=LINE('',#1993,#202);
#83=LINE('',#1997,#203);
#84=LINE('',#2001,#204);
#85=LINE('',#2005,#205);
#86=LINE('',#2021,#206);
#87=LINE('',#2025,#207);
#88=LINE('',#2029,#208);
#89=LINE('',#2030,#209);
#90=LINE('',#2032,#210);
#91=LINE('',#2034,#211);
#92=LINE('',#2036,#212);
#93=LINE('',#2037,#213);
#94=LINE('',#2039,#214);
#95=LINE('',#2041,#215);
#96=LINE('',#2043,#216);
#97=LINE('',#2045,#217);
#98=LINE('',#2047,#218);
#99=LINE('',#2049,#219);
#100=LINE('',#2051,#220);
#101=LINE('',#2054,#221);
#102=LINE('',#2055,#222);
#103=LINE('',#2057,#223);
#104=LINE('',#2059,#224);
#105=LINE('',#2061,#225);
#106=LINE('',#2063,#226);
#107=LINE('',#2065,#227);
#108=LINE('',#2069,#228);
#109=LINE('',#2073,#229);
#110=LINE('',#2077,#230);
#111=LINE('',#2093,#231);
#112=LINE('',#2097,#232);
#113=LINE('',#2101,#233);
#114=LINE('',#2102,#234);
#115=LINE('',#2103,#235);
#116=LINE('',#2107,#236);
#117=LINE('',#2111,#237);
#118=LINE('',#2118,#238);
#119=LINE('',#2120,#239);
#120=LINE('',#2122,#240);
#121=LINE('',#2127,#241);
#122=LINE('',#2131,#242);
#123=LINE('',#2133,#243);
#124=LINE('',#2134,#244);
#125=LINE('',#2135,#245);
#126=LINE('',#2136,#246);
#127=LINE('',#2138,#247);
#128=LINE('',#2139,#248);
#129=LINE('',#2140,#249);
#130=LINE('',#2142,#250);
#131=LINE('',#2143,#251);
#132=LINE('',#2145,#252);
#133=LINE('',#2147,#253);
#134=LINE('',#2148,#254);
#135=LINE('',#2150,#255);
#136=LINE('',#2152,#256);
#137=LINE('',#2154,#257);
#138=LINE('',#2156,#258);
#139=LINE('',#2158,#259);
#140=LINE('',#2160,#260);
#141=LINE('',#2161,#261);
#142=LINE('',#2163,#262);
#143=LINE('',#2164,#263);
#144=LINE('',#2166,#264);
#145=LINE('',#2167,#265);
#146=LINE('',#2193,#266);
#147=LINE('',#2195,#267);
#148=LINE('',#2197,#268);
#149=LINE('',#2198,#269);
#150=LINE('',#2204,#270);
#151=LINE('',#2205,#271);
#152=LINE('',#2207,#272);
#153=LINE('',#2209,#273);
#154=LINE('',#2210,#274);
#155=LINE('',#2212,#275);
#156=LINE('',#2214,#276);
#157=LINE('',#2217,#277);
#158=LINE('',#2219,#278);
#159=VECTOR('',#1496,1.);
#160=VECTOR('',#1497,1.);
#161=VECTOR('',#1498,1.);
#162=VECTOR('',#1499,1.);
#163=VECTOR('',#1500,1.);
#164=VECTOR('',#1501,1.);
#165=VECTOR('',#1502,1.);
#166=VECTOR('',#1503,1.);
#167=VECTOR('',#1504,1.);
#168=VECTOR('',#1505,1.);
#169=VECTOR('',#1506,1.);
#170=VECTOR('',#1507,1.);
#171=VECTOR('',#1512,1.);
#172=VECTOR('',#1513,1.);
#173=VECTOR('',#1514,1.);
#174=VECTOR('',#1515,1.);
#175=VECTOR('',#1516,1.);
#176=VECTOR('',#1517,1.);
#177=VECTOR('',#1526,1.);
#178=VECTOR('',#1527,1.);
#179=VECTOR('',#1528,1.);
#180=VECTOR('',#1529,1.);
#181=VECTOR('',#1530,1.);
#182=VECTOR('',#1531,1.);
#183=VECTOR('',#1532,1.);
#184=VECTOR('',#1533,1.);
#185=VECTOR('',#1536,1.);
#186=VECTOR('',#1537,1.);
#187=VECTOR('',#1540,1.);
#188=VECTOR('',#1541,1.);
#189=VECTOR('',#1544,1.);
#190=VECTOR('',#1553,1.);
#191=VECTOR('',#1556,1.);
#192=VECTOR('',#1559,1.);
#193=VECTOR('',#1562,1.);
#194=VECTOR('',#1575,1.);
#195=VECTOR('',#1576,1.);
#196=VECTOR('',#1577,1.);
#197=VECTOR('',#1578,1.);
#198=VECTOR('',#1579,1.);
#199=VECTOR('',#1580,1.);
#200=VECTOR('',#1581,1.);
#201=VECTOR('',#1582,1.);
#202=VECTOR('',#1583,1.);
#203=VECTOR('',#1586,1.);
#204=VECTOR('',#1589,1.);
#205=VECTOR('',#1592,1.);
#206=VECTOR('',#1609,1.);
#207=VECTOR('',#1612,1.);
#208=VECTOR('',#1615,1.);
#209=VECTOR('',#1616,1.);
#210=VECTOR('',#1617,1.);
#211=VECTOR('',#1618,1.);
#212=VECTOR('',#1619,1.);
#213=VECTOR('',#1620,1.);
#214=VECTOR('',#1621,1.);
#215=VECTOR('',#1622,1.);
#216=VECTOR('',#1623,1.);
#217=VECTOR('',#1626,1.);
#218=VECTOR('',#1627,1.);
#219=VECTOR('',#1628,1.);
#220=VECTOR('',#1631,1.);
#221=VECTOR('',#1632,1.);
#222=VECTOR('',#1633,1.);
#223=VECTOR('',#1634,1.);
#224=VECTOR('',#1635,1.);
#225=VECTOR('',#1636,1.);
#226=VECTOR('',#1637,1.);
#227=VECTOR('',#1638,1.);
#228=VECTOR('',#1641,1.);
#229=VECTOR('',#1644,1.);
#230=VECTOR('',#1647,1.);
#231=VECTOR('',#1664,1.);
#232=VECTOR('',#1667,1.);
#233=VECTOR('',#1670,1.);
#234=VECTOR('',#1671,1.);
#235=VECTOR('',#1672,1.);
#236=VECTOR('',#1677,1.);
#237=VECTOR('',#1682,1.);
#238=VECTOR('',#1689,1.);
#239=VECTOR('',#1690,1.);
#240=VECTOR('',#1693,1.);
#241=VECTOR('',#1696,1.);
#242=VECTOR('',#1701,1.);
#243=VECTOR('',#1702,1.);
#244=VECTOR('',#1703,1.);
#245=VECTOR('',#1704,1.);
#246=VECTOR('',#1705,1.);
#247=VECTOR('',#1708,1.);
#248=VECTOR('',#1709,1.);
#249=VECTOR('',#1710,1.);
#250=VECTOR('',#1711,1.);
#251=VECTOR('',#1712,1.);
#252=VECTOR('',#1715,1.);
#253=VECTOR('',#1716,1.);
#254=VECTOR('',#1717,1.);
#255=VECTOR('',#1718,1.);
#256=VECTOR('',#1721,1.);
#257=VECTOR('',#1724,1.);
#258=VECTOR('',#1727,1.);
#259=VECTOR('',#1730,1.);
#260=VECTOR('',#1733,1.);
#261=VECTOR('',#1734,1.);
#262=VECTOR('',#1737,1.);
#263=VECTOR('',#1738,1.);
#264=VECTOR('',#1741,1.);
#265=VECTOR('',#1742,1.);
#266=VECTOR('',#1793,1.);
#267=VECTOR('',#1796,1.);
#268=VECTOR('',#1799,1.);
#269=VECTOR('',#1800,1.);
#270=VECTOR('',#1811,1.);
#271=VECTOR('',#1812,1.);
#272=VECTOR('',#1815,1.);
#273=VECTOR('',#1818,1.);
#274=VECTOR('',#1819,1.);
#275=VECTOR('',#1820,1.);
#276=VECTOR('',#1821,1.);
#277=VECTOR('',#1826,1.);
#278=VECTOR('',#1829,1.);
#279=ORIENTED_EDGE('',*,*,#635,.T.);
#280=ORIENTED_EDGE('',*,*,#636,.F.);
#281=ORIENTED_EDGE('',*,*,#637,.F.);
#282=ORIENTED_EDGE('',*,*,#638,.F.);
#283=ORIENTED_EDGE('',*,*,#639,.T.);
#284=ORIENTED_EDGE('',*,*,#640,.F.);
#285=ORIENTED_EDGE('',*,*,#641,.F.);
#286=ORIENTED_EDGE('',*,*,#642,.T.);
#287=ORIENTED_EDGE('',*,*,#643,.T.);
#288=ORIENTED_EDGE('',*,*,#644,.F.);
#289=ORIENTED_EDGE('',*,*,#645,.F.);
#290=ORIENTED_EDGE('',*,*,#646,.F.);
#291=ORIENTED_EDGE('',*,*,#647,.F.);
#292=ORIENTED_EDGE('',*,*,#648,.F.);
#293=ORIENTED_EDGE('',*,*,#649,.F.);
#294=ORIENTED_EDGE('',*,*,#650,.T.);
#295=ORIENTED_EDGE('',*,*,#651,.F.);
#296=ORIENTED_EDGE('',*,*,#652,.T.);
#297=ORIENTED_EDGE('',*,*,#643,.F.);
#298=ORIENTED_EDGE('',*,*,#653,.T.);
#299=ORIENTED_EDGE('',*,*,#654,.F.);
#300=ORIENTED_EDGE('',*,*,#655,.F.);
#301=ORIENTED_EDGE('',*,*,#639,.F.);
#302=ORIENTED_EDGE('',*,*,#656,.F.);
#303=ORIENTED_EDGE('',*,*,#657,.F.);
#304=ORIENTED_EDGE('',*,*,#658,.F.);
#305=ORIENTED_EDGE('',*,*,#659,.F.);
#306=ORIENTED_EDGE('',*,*,#660,.F.);
#307=ORIENTED_EDGE('',*,*,#661,.T.);
#308=ORIENTED_EDGE('',*,*,#662,.T.);
#309=ORIENTED_EDGE('',*,*,#663,.F.);
#310=ORIENTED_EDGE('',*,*,#664,.T.);
#311=ORIENTED_EDGE('',*,*,#665,.T.);
#312=ORIENTED_EDGE('',*,*,#666,.T.);
#313=ORIENTED_EDGE('',*,*,#667,.T.);
#314=ORIENTED_EDGE('',*,*,#640,.T.);
#315=ORIENTED_EDGE('',*,*,#655,.T.);
#316=ORIENTED_EDGE('',*,*,#668,.T.);
#317=ORIENTED_EDGE('',*,*,#669,.F.);
#318=ORIENTED_EDGE('',*,*,#641,.T.);
#319=ORIENTED_EDGE('',*,*,#669,.T.);
#320=ORIENTED_EDGE('',*,*,#670,.T.);
#321=ORIENTED_EDGE('',*,*,#671,.F.);
#322=ORIENTED_EDGE('',*,*,#653,.F.);
#323=ORIENTED_EDGE('',*,*,#642,.F.);
#324=ORIENTED_EDGE('',*,*,#671,.T.);
#325=ORIENTED_EDGE('',*,*,#672,.F.);
#326=ORIENTED_EDGE('',*,*,#673,.F.);
#327=ORIENTED_EDGE('',*,*,#674,.F.);
#328=ORIENTED_EDGE('',*,*,#675,.F.);
#329=ORIENTED_EDGE('',*,*,#676,.T.);
#330=ORIENTED_EDGE('',*,*,#677,.T.);
#331=ORIENTED_EDGE('',*,*,#678,.T.);
#332=ORIENTED_EDGE('',*,*,#679,.T.);
#333=ORIENTED_EDGE('',*,*,#680,.F.);
#334=ORIENTED_EDGE('',*,*,#681,.T.);
#335=ORIENTED_EDGE('',*,*,#682,.F.);
#336=ORIENTED_EDGE('',*,*,#683,.T.);
#337=ORIENTED_EDGE('',*,*,#654,.T.);
#338=ORIENTED_EDGE('',*,*,#672,.T.);
#339=ORIENTED_EDGE('',*,*,#670,.F.);
#340=ORIENTED_EDGE('',*,*,#668,.F.);
#341=ORIENTED_EDGE('',*,*,#684,.T.);
#342=ORIENTED_EDGE('',*,*,#685,.F.);
#343=ORIENTED_EDGE('',*,*,#686,.F.);
#344=ORIENTED_EDGE('',*,*,#687,.T.);
#345=ORIENTED_EDGE('',*,*,#688,.T.);
#346=ORIENTED_EDGE('',*,*,#689,.T.);
#347=ORIENTED_EDGE('',*,*,#690,.F.);
#348=ORIENTED_EDGE('',*,*,#691,.F.);
#349=ORIENTED_EDGE('',*,*,#692,.T.);
#350=ORIENTED_EDGE('',*,*,#693,.T.);
#351=ORIENTED_EDGE('',*,*,#694,.F.);
#352=ORIENTED_EDGE('',*,*,#695,.F.);
#353=ORIENTED_EDGE('',*,*,#696,.T.);
#354=ORIENTED_EDGE('',*,*,#697,.T.);
#355=ORIENTED_EDGE('',*,*,#698,.F.);
#356=ORIENTED_EDGE('',*,*,#699,.T.);
#357=ORIENTED_EDGE('',*,*,#700,.F.);
#358=ORIENTED_EDGE('',*,*,#701,.T.);
#359=ORIENTED_EDGE('',*,*,#702,.T.);
#360=ORIENTED_EDGE('',*,*,#703,.T.);
#361=ORIENTED_EDGE('',*,*,#704,.T.);
#362=ORIENTED_EDGE('',*,*,#705,.T.);
#363=ORIENTED_EDGE('',*,*,#706,.T.);
#364=ORIENTED_EDGE('',*,*,#707,.T.);
#365=ORIENTED_EDGE('',*,*,#708,.T.);
#366=ORIENTED_EDGE('',*,*,#709,.T.);
#367=ORIENTED_EDGE('',*,*,#710,.F.);
#368=ORIENTED_EDGE('',*,*,#711,.T.);
#369=ORIENTED_EDGE('',*,*,#712,.F.);
#370=ORIENTED_EDGE('',*,*,#713,.T.);
#371=ORIENTED_EDGE('',*,*,#714,.T.);
#372=ORIENTED_EDGE('',*,*,#688,.F.);
#373=ORIENTED_EDGE('',*,*,#715,.T.);
#374=ORIENTED_EDGE('',*,*,#716,.T.);
#375=ORIENTED_EDGE('',*,*,#717,.T.);
#376=ORIENTED_EDGE('',*,*,#718,.T.);
#377=ORIENTED_EDGE('',*,*,#661,.F.);
#378=ORIENTED_EDGE('',*,*,#719,.F.);
#379=ORIENTED_EDGE('',*,*,#720,.T.);
#380=ORIENTED_EDGE('',*,*,#721,.T.);
#381=ORIENTED_EDGE('',*,*,#722,.F.);
#382=ORIENTED_EDGE('',*,*,#696,.F.);
#383=ORIENTED_EDGE('',*,*,#723,.F.);
#384=ORIENTED_EDGE('',*,*,#694,.T.);
#385=ORIENTED_EDGE('',*,*,#724,.F.);
#386=ORIENTED_EDGE('',*,*,#725,.F.);
#387=ORIENTED_EDGE('',*,*,#726,.F.);
#388=ORIENTED_EDGE('',*,*,#727,.T.);
#389=ORIENTED_EDGE('',*,*,#725,.T.);
#390=ORIENTED_EDGE('',*,*,#728,.F.);
#391=ORIENTED_EDGE('',*,*,#729,.F.);
#392=ORIENTED_EDGE('',*,*,#730,.T.);
#393=ORIENTED_EDGE('',*,*,#731,.T.);
#394=ORIENTED_EDGE('',*,*,#732,.F.);
#395=ORIENTED_EDGE('',*,*,#733,.F.);
#396=ORIENTED_EDGE('',*,*,#734,.T.);
#397=ORIENTED_EDGE('',*,*,#735,.F.);
#398=ORIENTED_EDGE('',*,*,#736,.T.);
#399=ORIENTED_EDGE('',*,*,#737,.T.);
#400=ORIENTED_EDGE('',*,*,#738,.T.);
#401=ORIENTED_EDGE('',*,*,#739,.T.);
#402=ORIENTED_EDGE('',*,*,#740,.T.);
#403=ORIENTED_EDGE('',*,*,#741,.F.);
#404=ORIENTED_EDGE('',*,*,#742,.F.);
#405=ORIENTED_EDGE('',*,*,#743,.F.);
#406=ORIENTED_EDGE('',*,*,#744,.F.);
#407=ORIENTED_EDGE('',*,*,#745,.F.);
#408=ORIENTED_EDGE('',*,*,#746,.F.);
#409=ORIENTED_EDGE('',*,*,#747,.F.);
#410=ORIENTED_EDGE('',*,*,#748,.T.);
#411=ORIENTED_EDGE('',*,*,#749,.T.);
#412=ORIENTED_EDGE('',*,*,#750,.T.);
#413=ORIENTED_EDGE('',*,*,#751,.T.);
#414=ORIENTED_EDGE('',*,*,#726,.T.);
#415=ORIENTED_EDGE('',*,*,#752,.T.);
#416=ORIENTED_EDGE('',*,*,#678,.F.);
#417=ORIENTED_EDGE('',*,*,#753,.T.);
#418=ORIENTED_EDGE('',*,*,#733,.T.);
#419=ORIENTED_EDGE('',*,*,#717,.F.);
#420=ORIENTED_EDGE('',*,*,#754,.T.);
#421=ORIENTED_EDGE('',*,*,#755,.F.);
#422=ORIENTED_EDGE('',*,*,#756,.F.);
#423=ORIENTED_EDGE('',*,*,#757,.T.);
#424=ORIENTED_EDGE('',*,*,#758,.F.);
#425=ORIENTED_EDGE('',*,*,#721,.F.);
#426=ORIENTED_EDGE('',*,*,#759,.F.);
#427=ORIENTED_EDGE('',*,*,#760,.T.);
#428=ORIENTED_EDGE('',*,*,#761,.F.);
#429=ORIENTED_EDGE('',*,*,#762,.T.);
#430=ORIENTED_EDGE('',*,*,#763,.T.);
#431=ORIENTED_EDGE('',*,*,#764,.T.);
#432=ORIENTED_EDGE('',*,*,#765,.F.);
#433=ORIENTED_EDGE('',*,*,#766,.F.);
#434=ORIENTED_EDGE('',*,*,#762,.F.);
#435=ORIENTED_EDGE('',*,*,#767,.F.);
#436=ORIENTED_EDGE('',*,*,#698,.T.);
#437=ORIENTED_EDGE('',*,*,#768,.T.);
#438=ORIENTED_EDGE('',*,*,#757,.F.);
#439=ORIENTED_EDGE('',*,*,#769,.F.);
#440=ORIENTED_EDGE('',*,*,#719,.T.);
#441=ORIENTED_EDGE('',*,*,#660,.T.);
#442=ORIENTED_EDGE('',*,*,#770,.F.);
#443=ORIENTED_EDGE('',*,*,#764,.F.);
#444=ORIENTED_EDGE('',*,*,#771,.F.);
#445=ORIENTED_EDGE('',*,*,#770,.T.);
#446=ORIENTED_EDGE('',*,*,#663,.T.);
#447=ORIENTED_EDGE('',*,*,#772,.F.);
#448=ORIENTED_EDGE('',*,*,#760,.F.);
#449=ORIENTED_EDGE('',*,*,#773,.F.);
#450=ORIENTED_EDGE('',*,*,#774,.F.);
#451=ORIENTED_EDGE('',*,*,#700,.T.);
#452=ORIENTED_EDGE('',*,*,#775,.T.);
#453=ORIENTED_EDGE('',*,*,#755,.T.);
#454=ORIENTED_EDGE('',*,*,#776,.T.);
#455=ORIENTED_EDGE('',*,*,#777,.F.);
#456=ORIENTED_EDGE('',*,*,#702,.F.);
#457=ORIENTED_EDGE('',*,*,#778,.T.);
#458=ORIENTED_EDGE('',*,*,#779,.T.);
#459=ORIENTED_EDGE('',*,*,#761,.T.);
#460=ORIENTED_EDGE('',*,*,#772,.T.);
#461=ORIENTED_EDGE('',*,*,#662,.F.);
#462=ORIENTED_EDGE('',*,*,#718,.F.);
#463=ORIENTED_EDGE('',*,*,#693,.F.);
#464=ORIENTED_EDGE('',*,*,#780,.F.);
#465=ORIENTED_EDGE('',*,*,#728,.T.);
#466=ORIENTED_EDGE('',*,*,#724,.T.);
#467=ORIENTED_EDGE('',*,*,#692,.F.);
#468=ORIENTED_EDGE('',*,*,#781,.F.);
#469=ORIENTED_EDGE('',*,*,#729,.T.);
#470=ORIENTED_EDGE('',*,*,#780,.T.);
#471=ORIENTED_EDGE('',*,*,#691,.T.);
#472=ORIENTED_EDGE('',*,*,#782,.F.);
#473=ORIENTED_EDGE('',*,*,#730,.F.);
#474=ORIENTED_EDGE('',*,*,#781,.T.);
#475=ORIENTED_EDGE('',*,*,#690,.T.);
#476=ORIENTED_EDGE('',*,*,#783,.T.);
#477=ORIENTED_EDGE('',*,*,#731,.F.);
#478=ORIENTED_EDGE('',*,*,#782,.T.);
#479=ORIENTED_EDGE('',*,*,#680,.T.);
#480=ORIENTED_EDGE('',*,*,#784,.T.);
#481=ORIENTED_EDGE('',*,*,#739,.F.);
#482=ORIENTED_EDGE('',*,*,#785,.T.);
#483=ORIENTED_EDGE('',*,*,#682,.T.);
#484=ORIENTED_EDGE('',*,*,#786,.T.);
#485=ORIENTED_EDGE('',*,*,#737,.F.);
#486=ORIENTED_EDGE('',*,*,#787,.T.);
#487=ORIENTED_EDGE('',*,*,#735,.T.);
#488=ORIENTED_EDGE('',*,*,#788,.T.);
#489=ORIENTED_EDGE('',*,*,#676,.F.);
#490=ORIENTED_EDGE('',*,*,#789,.T.);
#491=ORIENTED_EDGE('',*,*,#734,.F.);
#492=ORIENTED_EDGE('',*,*,#753,.F.);
#493=ORIENTED_EDGE('',*,*,#677,.F.);
#494=ORIENTED_EDGE('',*,*,#788,.F.);
#495=ORIENTED_EDGE('',*,*,#740,.F.);
#496=ORIENTED_EDGE('',*,*,#784,.F.);
#497=ORIENTED_EDGE('',*,*,#679,.F.);
#498=ORIENTED_EDGE('',*,*,#752,.F.);
#499=ORIENTED_EDGE('',*,*,#738,.F.);
#500=ORIENTED_EDGE('',*,*,#786,.F.);
#501=ORIENTED_EDGE('',*,*,#681,.F.);
#502=ORIENTED_EDGE('',*,*,#785,.F.);
#503=ORIENTED_EDGE('',*,*,#736,.F.);
#504=ORIENTED_EDGE('',*,*,#789,.F.);
#505=ORIENTED_EDGE('',*,*,#683,.F.);
#506=ORIENTED_EDGE('',*,*,#787,.F.);
#507=ORIENTED_EDGE('',*,*,#790,.T.);
#508=ORIENTED_EDGE('',*,*,#715,.F.);
#509=ORIENTED_EDGE('',*,*,#703,.F.);
#510=ORIENTED_EDGE('',*,*,#777,.T.);
#511=ORIENTED_EDGE('',*,*,#776,.F.);
#512=ORIENTED_EDGE('',*,*,#791,.T.);
#513=ORIENTED_EDGE('',*,*,#716,.F.);
#514=ORIENTED_EDGE('',*,*,#790,.F.);
#515=ORIENTED_EDGE('',*,*,#758,.T.);
#516=ORIENTED_EDGE('',*,*,#768,.F.);
#517=ORIENTED_EDGE('',*,*,#697,.F.);
#518=ORIENTED_EDGE('',*,*,#722,.T.);
#519=ORIENTED_EDGE('',*,*,#792,.F.);
#520=ORIENTED_EDGE('',*,*,#720,.F.);
#521=ORIENTED_EDGE('',*,*,#769,.T.);
#522=ORIENTED_EDGE('',*,*,#793,.T.);
#523=ORIENTED_EDGE('',*,*,#778,.F.);
#524=ORIENTED_EDGE('',*,*,#701,.F.);
#525=ORIENTED_EDGE('',*,*,#774,.T.);
#526=ORIENTED_EDGE('',*,*,#794,.F.);
#527=ORIENTED_EDGE('',*,*,#779,.F.);
#528=ORIENTED_EDGE('',*,*,#793,.F.);
#529=ORIENTED_EDGE('',*,*,#773,.T.);
#530=ORIENTED_EDGE('',*,*,#765,.T.);
#531=ORIENTED_EDGE('',*,*,#775,.F.);
#532=ORIENTED_EDGE('',*,*,#699,.F.);
#533=ORIENTED_EDGE('',*,*,#767,.T.);
#534=ORIENTED_EDGE('',*,*,#771,.T.);
#535=ORIENTED_EDGE('',*,*,#795,.T.);
#536=ORIENTED_EDGE('',*,*,#766,.T.);
#537=ORIENTED_EDGE('',*,*,#686,.T.);
#538=ORIENTED_EDGE('',*,*,#795,.F.);
#539=ORIENTED_EDGE('',*,*,#763,.F.);
#540=ORIENTED_EDGE('',*,*,#684,.F.);
#541=ORIENTED_EDGE('',*,*,#759,.T.);
#542=ORIENTED_EDGE('',*,*,#794,.T.);
#543=ORIENTED_EDGE('',*,*,#687,.F.);
#544=ORIENTED_EDGE('',*,*,#756,.T.);
#545=ORIENTED_EDGE('',*,*,#792,.T.);
#546=ORIENTED_EDGE('',*,*,#685,.T.);
#547=ORIENTED_EDGE('',*,*,#791,.F.);
#548=ORIENTED_EDGE('',*,*,#754,.F.);
#549=ORIENTED_EDGE('',*,*,#746,.T.);
#550=ORIENTED_EDGE('',*,*,#708,.F.);
#551=ORIENTED_EDGE('',*,*,#745,.T.);
#552=ORIENTED_EDGE('',*,*,#709,.F.);
#553=ORIENTED_EDGE('',*,*,#751,.F.);
#554=ORIENTED_EDGE('',*,*,#796,.T.);
#555=ORIENTED_EDGE('',*,*,#710,.T.);
#556=ORIENTED_EDGE('',*,*,#695,.T.);
#557=ORIENTED_EDGE('',*,*,#723,.T.);
#558=ORIENTED_EDGE('',*,*,#727,.F.);
#559=ORIENTED_EDGE('',*,*,#714,.F.);
#560=ORIENTED_EDGE('',*,*,#797,.T.);
#561=ORIENTED_EDGE('',*,*,#747,.T.);
#562=ORIENTED_EDGE('',*,*,#732,.T.);
#563=ORIENTED_EDGE('',*,*,#783,.F.);
#564=ORIENTED_EDGE('',*,*,#689,.F.);
#565=ORIENTED_EDGE('',*,*,#712,.T.);
#566=ORIENTED_EDGE('',*,*,#798,.T.);
#567=ORIENTED_EDGE('',*,*,#749,.F.);
#568=ORIENTED_EDGE('',*,*,#799,.T.);
#569=ORIENTED_EDGE('',*,*,#744,.T.);
#570=ORIENTED_EDGE('',*,*,#707,.F.);
#571=ORIENTED_EDGE('',*,*,#743,.T.);
#572=ORIENTED_EDGE('',*,*,#706,.F.);
#573=ORIENTED_EDGE('',*,*,#742,.T.);
#574=ORIENTED_EDGE('',*,*,#705,.F.);
#575=ORIENTED_EDGE('',*,*,#741,.T.);
#576=ORIENTED_EDGE('',*,*,#704,.F.);
#577=ORIENTED_EDGE('',*,*,#665,.F.);
#578=ORIENTED_EDGE('',*,*,#800,.F.);
#579=ORIENTED_EDGE('',*,*,#647,.T.);
#580=ORIENTED_EDGE('',*,*,#801,.T.);
#581=ORIENTED_EDGE('',*,*,#664,.F.);
#582=ORIENTED_EDGE('',*,*,#802,.F.);
#583=ORIENTED_EDGE('',*,*,#648,.T.);
#584=ORIENTED_EDGE('',*,*,#800,.T.);
#585=ORIENTED_EDGE('',*,*,#667,.F.);
#586=ORIENTED_EDGE('',*,*,#803,.F.);
#587=ORIENTED_EDGE('',*,*,#645,.T.);
#588=ORIENTED_EDGE('',*,*,#804,.F.);
#589=ORIENTED_EDGE('',*,*,#805,.T.);
#590=ORIENTED_EDGE('',*,*,#806,.T.);
#591=ORIENTED_EDGE('',*,*,#649,.T.);
#592=ORIENTED_EDGE('',*,*,#802,.T.);
#593=ORIENTED_EDGE('',*,*,#666,.F.);
#594=ORIENTED_EDGE('',*,*,#801,.F.);
#595=ORIENTED_EDGE('',*,*,#646,.T.);
#596=ORIENTED_EDGE('',*,*,#803,.T.);
#597=ORIENTED_EDGE('',*,*,#638,.T.);
#598=ORIENTED_EDGE('',*,*,#806,.F.);
#599=ORIENTED_EDGE('',*,*,#807,.F.);
#600=ORIENTED_EDGE('',*,*,#656,.T.);
#601=ORIENTED_EDGE('',*,*,#644,.T.);
#602=ORIENTED_EDGE('',*,*,#652,.F.);
#603=ORIENTED_EDGE('',*,*,#808,.F.);
#604=ORIENTED_EDGE('',*,*,#804,.T.);
#605=ORIENTED_EDGE('',*,*,#651,.T.);
#606=ORIENTED_EDGE('',*,*,#807,.T.);
#607=ORIENTED_EDGE('',*,*,#805,.F.);
#608=ORIENTED_EDGE('',*,*,#808,.T.);
#609=ORIENTED_EDGE('',*,*,#809,.F.);
#610=ORIENTED_EDGE('',*,*,#637,.T.);
#611=ORIENTED_EDGE('',*,*,#809,.T.);
#612=ORIENTED_EDGE('',*,*,#810,.F.);
#613=ORIENTED_EDGE('',*,*,#636,.T.);
#614=ORIENTED_EDGE('',*,*,#810,.T.);
#615=ORIENTED_EDGE('',*,*,#811,.T.);
#616=ORIENTED_EDGE('',*,*,#635,.F.);
#617=ORIENTED_EDGE('',*,*,#811,.F.);
#618=ORIENTED_EDGE('',*,*,#812,.T.);
#619=ORIENTED_EDGE('',*,*,#650,.F.);
#620=ORIENTED_EDGE('',*,*,#812,.F.);
#621=ORIENTED_EDGE('',*,*,#659,.T.);
#622=ORIENTED_EDGE('',*,*,#675,.T.);
#623=ORIENTED_EDGE('',*,*,#658,.T.);
#624=ORIENTED_EDGE('',*,*,#674,.T.);
#625=ORIENTED_EDGE('',*,*,#657,.T.);
#626=ORIENTED_EDGE('',*,*,#673,.T.);
#627=ORIENTED_EDGE('',*,*,#711,.F.);
#628=ORIENTED_EDGE('',*,*,#796,.F.);
#629=ORIENTED_EDGE('',*,*,#750,.F.);
#630=ORIENTED_EDGE('',*,*,#798,.F.);
#631=ORIENTED_EDGE('',*,*,#713,.F.);
#632=ORIENTED_EDGE('',*,*,#799,.F.);
#633=ORIENTED_EDGE('',*,*,#748,.F.);
#634=ORIENTED_EDGE('',*,*,#797,.F.);
#635=EDGE_CURVE('',#813,#813,#939,.T.);
#636=EDGE_CURVE('',#814,#814,#940,.T.);
#637=EDGE_CURVE('',#815,#815,#941,.T.);
#638=EDGE_CURVE('',#816,#817,#39,.T.);
#639=EDGE_CURVE('',#816,#818,#40,.T.);
#640=EDGE_CURVE('',#819,#818,#41,.T.);
#641=EDGE_CURVE('',#820,#819,#42,.T.);
#642=EDGE_CURVE('',#820,#821,#43,.T.);
#643=EDGE_CURVE('',#821,#822,#44,.T.);
#644=EDGE_CURVE('',#823,#822,#45,.T.);
#645=EDGE_CURVE('',#824,#823,#46,.T.);
#646=EDGE_CURVE('',#825,#824,#47,.T.);
#647=EDGE_CURVE('',#826,#825,#48,.T.);
#648=EDGE_CURVE('',#827,#826,#49,.T.);
#649=EDGE_CURVE('',#817,#827,#50,.T.);
#650=EDGE_CURVE('',#828,#828,#942,.T.);
#651=EDGE_CURVE('',#829,#830,#51,.T.);
#652=EDGE_CURVE('',#829,#822,#52,.T.);
#653=EDGE_CURVE('',#821,#831,#53,.T.);
#654=EDGE_CURVE('',#832,#831,#54,.T.);
#655=EDGE_CURVE('',#818,#832,#55,.T.);
#656=EDGE_CURVE('',#830,#816,#56,.T.);
#657=EDGE_CURVE('',#833,#833,#943,.T.);
#658=EDGE_CURVE('',#834,#834,#944,.T.);
#659=EDGE_CURVE('',#835,#835,#945,.T.);
#660=EDGE_CURVE('',#836,#837,#57,.T.);
#661=EDGE_CURVE('',#836,#838,#58,.T.);
#662=EDGE_CURVE('',#838,#839,#59,.T.);
#663=EDGE_CURVE('',#837,#839,#60,.T.);
#664=EDGE_CURVE('',#840,#841,#61,.T.);
#665=EDGE_CURVE('',#841,#842,#62,.T.);
#666=EDGE_CURVE('',#842,#843,#63,.T.);
#667=EDGE_CURVE('',#843,#840,#64,.T.);
#668=EDGE_CURVE('',#832,#844,#65,.T.);
#669=EDGE_CURVE('',#819,#844,#66,.T.);
#670=EDGE_CURVE('',#844,#845,#67,.T.);
#671=EDGE_CURVE('',#820,#845,#68,.T.);
#672=EDGE_CURVE('',#831,#845,#69,.T.);
#673=EDGE_CURVE('',#846,#846,#946,.T.);
#674=EDGE_CURVE('',#847,#847,#947,.T.);
#675=EDGE_CURVE('',#848,#848,#948,.T.);
#676=EDGE_CURVE('',#849,#850,#70,.T.);
#677=EDGE_CURVE('',#850,#851,#949,.F.);
#678=EDGE_CURVE('',#851,#852,#71,.T.);
#679=EDGE_CURVE('',#852,#853,#950,.F.);
#680=EDGE_CURVE('',#854,#853,#72,.T.);
#681=EDGE_CURVE('',#854,#855,#951,.F.);
#682=EDGE_CURVE('',#856,#855,#73,.T.);
#683=EDGE_CURVE('',#856,#849,#952,.F.);
#684=EDGE_CURVE('',#857,#857,#953,.T.);
#685=EDGE_CURVE('',#858,#858,#954,.T.);
#686=EDGE_CURVE('',#859,#859,#955,.T.);
#687=EDGE_CURVE('',#860,#860,#956,.T.);
#688=EDGE_CURVE('',#861,#862,#74,.T.);
#689=EDGE_CURVE('',#862,#863,#75,.T.);
#690=EDGE_CURVE('',#864,#863,#76,.T.);
#691=EDGE_CURVE('',#865,#864,#77,.T.);
#692=EDGE_CURVE('',#865,#866,#78,.T.);
#693=EDGE_CURVE('',#866,#867,#79,.T.);
#694=EDGE_CURVE('',#868,#867,#80,.T.);
#695=EDGE_CURVE('',#869,#868,#81,.T.);
#696=EDGE_CURVE('',#869,#870,#82,.T.);
#697=EDGE_CURVE('',#870,#871,#957,.T.);
#698=EDGE_CURVE('',#872,#871,#83,.T.);
#699=EDGE_CURVE('',#872,#873,#958,.T.);
#700=EDGE_CURVE('',#874,#873,#84,.T.);
#701=EDGE_CURVE('',#874,#875,#959,.T.);
#702=EDGE_CURVE('',#875,#876,#85,.T.);
#703=EDGE_CURVE('',#876,#861,#960,.T.);
#704=EDGE_CURVE('',#877,#877,#961,.T.);
#705=EDGE_CURVE('',#878,#878,#962,.T.);
#706=EDGE_CURVE('',#879,#879,#963,.T.);
#707=EDGE_CURVE('',#880,#880,#964,.T.);
#708=EDGE_CURVE('',#881,#881,#965,.T.);
#709=EDGE_CURVE('',#882,#882,#966,.T.);
#710=EDGE_CURVE('',#883,#869,#86,.T.);
#711=EDGE_CURVE('',#883,#884,#967,.T.);
#712=EDGE_CURVE('',#885,#884,#87,.T.);
#713=EDGE_CURVE('',#885,#886,#968,.T.);
#714=EDGE_CURVE('',#886,#862,#88,.T.);
#715=EDGE_CURVE('',#861,#887,#89,.T.);
#716=EDGE_CURVE('',#887,#888,#90,.T.);
#717=EDGE_CURVE('',#888,#889,#91,.T.);
#718=EDGE_CURVE('',#889,#838,#92,.T.);
#719=EDGE_CURVE('',#890,#836,#93,.T.);
#720=EDGE_CURVE('',#890,#891,#94,.T.);
#721=EDGE_CURVE('',#891,#892,#95,.T.);
#722=EDGE_CURVE('',#870,#892,#96,.T.);
#723=EDGE_CURVE('',#868,#893,#97,.T.);
#724=EDGE_CURVE('',#894,#867,#98,.T.);
#725=EDGE_CURVE('',#893,#894,#99,.T.);
#726=EDGE_CURVE('',#895,#896,#100,.T.);
#727=EDGE_CURVE('',#895,#893,#101,.T.);
#728=EDGE_CURVE('',#897,#894,#102,.T.);
#729=EDGE_CURVE('',#898,#897,#103,.T.);
#730=EDGE_CURVE('',#898,#899,#104,.T.);
#731=EDGE_CURVE('',#899,#900,#105,.T.);
#732=EDGE_CURVE('',#901,#900,#106,.T.);
#733=EDGE_CURVE('',#902,#901,#107,.T.);
#734=EDGE_CURVE('',#902,#903,#969,.T.);
#735=EDGE_CURVE('',#904,#903,#108,.T.);
#736=EDGE_CURVE('',#904,#905,#970,.T.);
#737=EDGE_CURVE('',#905,#906,#109,.T.);
#738=EDGE_CURVE('',#906,#907,#971,.T.);
#739=EDGE_CURVE('',#907,#908,#110,.T.);
#740=EDGE_CURVE('',#908,#896,#972,.T.);
#741=EDGE_CURVE('',#909,#909,#973,.T.);
#742=EDGE_CURVE('',#910,#910,#974,.T.);
#743=EDGE_CURVE('',#911,#911,#975,.T.);
#744=EDGE_CURVE('',#912,#912,#976,.T.);
#745=EDGE_CURVE('',#913,#913,#977,.T.);
#746=EDGE_CURVE('',#914,#914,#978,.T.);
#747=EDGE_CURVE('',#915,#901,#111,.T.);
#748=EDGE_CURVE('',#915,#916,#979,.F.);
#749=EDGE_CURVE('',#916,#917,#112,.T.);
#750=EDGE_CURVE('',#917,#918,#980,.F.);
#751=EDGE_CURVE('',#918,#895,#113,.T.);
#752=EDGE_CURVE('',#896,#852,#114,.T.);
#753=EDGE_CURVE('',#851,#902,#115,.F.);
#754=EDGE_CURVE('',#888,#919,#981,.T.);
#755=EDGE_CURVE('',#889,#919,#116,.T.);
#756=EDGE_CURVE('',#920,#891,#982,.F.);
#757=EDGE_CURVE('',#920,#921,#117,.T.);
#758=EDGE_CURVE('',#892,#921,#983,.T.);
#759=EDGE_CURVE('',#922,#923,#984,.F.);
#760=EDGE_CURVE('',#922,#924,#118,.T.);
#761=EDGE_CURVE('',#923,#924,#119,.T.);
#762=EDGE_CURVE('',#925,#926,#120,.T.);
#763=EDGE_CURVE('',#926,#927,#985,.T.);
#764=EDGE_CURVE('',#927,#928,#121,.T.);
#765=EDGE_CURVE('',#925,#928,#986,.T.);
#766=EDGE_CURVE('',#926,#929,#122,.T.);
#767=EDGE_CURVE('',#872,#925,#123,.T.);
#768=EDGE_CURVE('',#871,#921,#124,.T.);
#769=EDGE_CURVE('',#890,#920,#125,.T.);
#770=EDGE_CURVE('',#929,#837,#126,.T.);
#771=EDGE_CURVE('',#929,#927,#127,.T.);
#772=EDGE_CURVE('',#924,#839,#128,.T.);
#773=EDGE_CURVE('',#930,#922,#129,.T.);
#774=EDGE_CURVE('',#874,#930,#130,.T.);
#775=EDGE_CURVE('',#873,#928,#131,.T.);
#776=EDGE_CURVE('',#919,#931,#132,.T.);
#777=EDGE_CURVE('',#876,#931,#133,.T.);
#778=EDGE_CURVE('',#875,#932,#134,.T.);
#779=EDGE_CURVE('',#932,#923,#135,.T.);
#780=EDGE_CURVE('',#897,#866,#136,.T.);
#781=EDGE_CURVE('',#898,#865,#137,.T.);
#782=EDGE_CURVE('',#899,#864,#138,.T.);
#783=EDGE_CURVE('',#863,#900,#139,.T.);
#784=EDGE_CURVE('',#853,#908,#140,.F.);
#785=EDGE_CURVE('',#907,#854,#141,.T.);
#786=EDGE_CURVE('',#855,#906,#142,.F.);
#787=EDGE_CURVE('',#905,#856,#143,.T.);
#788=EDGE_CURVE('',#903,#850,#144,.T.);
#789=EDGE_CURVE('',#849,#904,#145,.F.);
#790=EDGE_CURVE('',#931,#887,#987,.T.);
#791=EDGE_CURVE('',#919,#888,#988,.T.);
#792=EDGE_CURVE('',#891,#920,#989,.F.);
#793=EDGE_CURVE('',#930,#932,#990,.T.);
#794=EDGE_CURVE('',#923,#922,#991,.F.);
#795=EDGE_CURVE('',#927,#926,#992,.T.);
#796=EDGE_CURVE('',#918,#883,#146,.F.);
#797=EDGE_CURVE('',#886,#915,#147,.T.);
#798=EDGE_CURVE('',#884,#917,#148,.T.);
#799=EDGE_CURVE('',#916,#885,#149,.F.);
#800=EDGE_CURVE('',#826,#841,#150,.T.);
#801=EDGE_CURVE('',#825,#842,#151,.T.);
#802=EDGE_CURVE('',#827,#840,#152,.T.);
#803=EDGE_CURVE('',#824,#843,#153,.T.);
#804=EDGE_CURVE('',#933,#823,#154,.T.);
#805=EDGE_CURVE('',#933,#934,#155,.T.);
#806=EDGE_CURVE('',#934,#817,#156,.T.);
#807=EDGE_CURVE('',#830,#934,#157,.T.);
#808=EDGE_CURVE('',#933,#829,#158,.T.);
#809=EDGE_CURVE('',#935,#935,#993,.T.);
#810=EDGE_CURVE('',#936,#936,#994,.T.);
#811=EDGE_CURVE('',#937,#937,#995,.T.);
#812=EDGE_CURVE('',#938,#938,#996,.T.);
#813=VERTEX_POINT('',#1869);
#814=VERTEX_POINT('',#1871);
#815=VERTEX_POINT('',#1873);
#816=VERTEX_POINT('',#1875);
#817=VERTEX_POINT('',#1876);
#818=VERTEX_POINT('',#1878);
#819=VERTEX_POINT('',#1880);
#820=VERTEX_POINT('',#1882);
#821=VERTEX_POINT('',#1884);
#822=VERTEX_POINT('',#1886);
#823=VERTEX_POINT('',#1888);
#824=VERTEX_POINT('',#1890);
#825=VERTEX_POINT('',#1892);
#826=VERTEX_POINT('',#1894);
#827=VERTEX_POINT('',#1896);
#828=VERTEX_POINT('',#1899);
#829=VERTEX_POINT('',#1902);
#830=VERTEX_POINT('',#1903);
#831=VERTEX_POINT('',#1906);
#832=VERTEX_POINT('',#1908);
#833=VERTEX_POINT('',#1913);
#834=VERTEX_POINT('',#1915);
#835=VERTEX_POINT('',#1917);
#836=VERTEX_POINT('',#1919);
#837=VERTEX_POINT('',#1920);
#838=VERTEX_POINT('',#1922);
#839=VERTEX_POINT('',#1924);
#840=VERTEX_POINT('',#1927);
#841=VERTEX_POINT('',#1928);
#842=VERTEX_POINT('',#1930);
#843=VERTEX_POINT('',#1932);
#844=VERTEX_POINT('',#1936);
#845=VERTEX_POINT('',#1940);
#846=VERTEX_POINT('',#1946);
#847=VERTEX_POINT('',#1948);
#848=VERTEX_POINT('',#1950);
#849=VERTEX_POINT('',#1952);
#850=VERTEX_POINT('',#1953);
#851=VERTEX_POINT('',#1955);
#852=VERTEX_POINT('',#1957);
#853=VERTEX_POINT('',#1959);
#854=VERTEX_POINT('',#1961);
#855=VERTEX_POINT('',#1963);
#856=VERTEX_POINT('',#1965);
#857=VERTEX_POINT('',#1969);
#858=VERTEX_POINT('',#1971);
#859=VERTEX_POINT('',#1973);
#860=VERTEX_POINT('',#1975);
#861=VERTEX_POINT('',#1977);
#862=VERTEX_POINT('',#1978);
#863=VERTEX_POINT('',#1980);
#864=VERTEX_POINT('',#1982);
#865=VERTEX_POINT('',#1984);
#866=VERTEX_POINT('',#1986);
#867=VERTEX_POINT('',#1988);
#868=VERTEX_POINT('',#1990);
#869=VERTEX_POINT('',#1992);
#870=VERTEX_POINT('',#1994);
#871=VERTEX_POINT('',#1996);
#872=VERTEX_POINT('',#1998);
#873=VERTEX_POINT('',#2000);
#874=VERTEX_POINT('',#2002);
#875=VERTEX_POINT('',#2004);
#876=VERTEX_POINT('',#2006);
#877=VERTEX_POINT('',#2010);
#878=VERTEX_POINT('',#2012);
#879=VERTEX_POINT('',#2014);
#880=VERTEX_POINT('',#2016);
#881=VERTEX_POINT('',#2018);
#882=VERTEX_POINT('',#2020);
#883=VERTEX_POINT('',#2022);
#884=VERTEX_POINT('',#2024);
#885=VERTEX_POINT('',#2026);
#886=VERTEX_POINT('',#2028);
#887=VERTEX_POINT('',#2031);
#888=VERTEX_POINT('',#2033);
#889=VERTEX_POINT('',#2035);
#890=VERTEX_POINT('',#2038);
#891=VERTEX_POINT('',#2040);
#892=VERTEX_POINT('',#2042);
#893=VERTEX_POINT('',#2046);
#894=VERTEX_POINT('',#2048);
#895=VERTEX_POINT('',#2052);
#896=VERTEX_POINT('',#2053);
#897=VERTEX_POINT('',#2056);
#898=VERTEX_POINT('',#2058);
#899=VERTEX_POINT('',#2060);
#900=VERTEX_POINT('',#2062);
#901=VERTEX_POINT('',#2064);
#902=VERTEX_POINT('',#2066);
#903=VERTEX_POINT('',#2068);
#904=VERTEX_POINT('',#2070);
#905=VERTEX_POINT('',#2072);
#906=VERTEX_POINT('',#2074);
#907=VERTEX_POINT('',#2076);
#908=VERTEX_POINT('',#2078);
#909=VERTEX_POINT('',#2082);
#910=VERTEX_POINT('',#2084);
#911=VERTEX_POINT('',#2086);
#912=VERTEX_POINT('',#2088);
#913=VERTEX_POINT('',#2090);
#914=VERTEX_POINT('',#2092);
#915=VERTEX_POINT('',#2094);
#916=VERTEX_POINT('',#2096);
#917=VERTEX_POINT('',#2098);
#918=VERTEX_POINT('',#2100);
#919=VERTEX_POINT('',#2106);
#920=VERTEX_POINT('',#2110);
#921=VERTEX_POINT('',#2112);
#922=VERTEX_POINT('',#2116);
#923=VERTEX_POINT('',#2117);
#924=VERTEX_POINT('',#2119);
#925=VERTEX_POINT('',#2123);
#926=VERTEX_POINT('',#2124);
#927=VERTEX_POINT('',#2126);
#928=VERTEX_POINT('',#2128);
#929=VERTEX_POINT('',#2132);
#930=VERTEX_POINT('',#2141);
#931=VERTEX_POINT('',#2146);
#932=VERTEX_POINT('',#2149);
#933=VERTEX_POINT('',#2211);
#934=VERTEX_POINT('',#2213);
#935=VERTEX_POINT('',#2223);
#936=VERTEX_POINT('',#2227);
#937=VERTEX_POINT('',#2231);
#938=VERTEX_POINT('',#2235);
#939=CIRCLE('',#1358,0.00085);
#940=CIRCLE('',#1359,0.00085);
#941=CIRCLE('',#1360,0.00085);
#942=CIRCLE('',#1361,0.00085);
#943=CIRCLE('',#1364,0.006);
#944=CIRCLE('',#1365,0.006);
#945=CIRCLE('',#1366,0.006);
#946=CIRCLE('',#1371,0.006);
#947=CIRCLE('',#1372,0.006);
#948=CIRCLE('',#1373,0.006);
#949=CIRCLE('',#1374,0.002);
#950=CIRCLE('',#1375,0.002);
#951=CIRCLE('',#1376,0.002);
#952=CIRCLE('',#1377,0.002);
#953=CIRCLE('',#1379,0.002);
#954=CIRCLE('',#1380,0.002);
#955=CIRCLE('',#1381,0.002);
#956=CIRCLE('',#1382,0.002);
#957=CIRCLE('',#1383,0.008);
#958=CIRCLE('',#1384,0.008);
#959=CIRCLE('',#1385,0.008);
#960=CIRCLE('',#1386,0.008);
#961=CIRCLE('',#1388,0.0013);
#962=CIRCLE('',#1389,0.00775);
#963=CIRCLE('',#1390,0.0013);
#964=CIRCLE('',#1391,0.0013);
#965=CIRCLE('',#1392,0.00775);
#966=CIRCLE('',#1393,0.0013);
#967=CIRCLE('',#1394,0.001);
#968=CIRCLE('',#1395,0.001);
#969=CIRCLE('',#1398,0.002);
#970=CIRCLE('',#1399,0.002);
#971=CIRCLE('',#1400,0.002);
#972=CIRCLE('',#1401,0.002);
#973=CIRCLE('',#1403,0.0013);
#974=CIRCLE('',#1404,0.00775);
#975=CIRCLE('',#1405,0.0013);
#976=CIRCLE('',#1406,0.0013);
#977=CIRCLE('',#1407,0.0013);
#978=CIRCLE('',#1408,0.00775);
#979=CIRCLE('',#1409,0.001);
#980=CIRCLE('',#1410,0.001);
#981=CIRCLE('',#1412,0.002);
#982=CIRCLE('',#1414,0.002);
#983=CIRCLE('',#1415,0.008);
#984=CIRCLE('',#1417,0.002);
#985=CIRCLE('',#1419,0.002);
#986=CIRCLE('',#1420,0.008);
#987=CIRCLE('',#1436,0.008);
#988=CIRCLE('',#1438,0.002);
#989=CIRCLE('',#1441,0.002);
#990=CIRCLE('',#1443,0.008);
#991=CIRCLE('',#1445,0.002);
#992=CIRCLE('',#1448,0.002);
#993=CIRCLE('',#1470,0.00085);
#994=CIRCLE('',#1473,0.00085);
#995=CIRCLE('',#1476,0.00085);
#996=CIRCLE('',#1479,0.00085);
#997=EDGE_LOOP('',(#279));
#998=EDGE_LOOP('',(#280));
#999=EDGE_LOOP('',(#281));
#1000=EDGE_LOOP('',(#282,#283,#284,#285,#286,#287,#288,#289,#290,#291,#292,
#293));
#1001=EDGE_LOOP('',(#294));
#1002=EDGE_LOOP('',(#295,#296,#297,#298,#299,#300,#301,#302));
#1003=EDGE_LOOP('',(#303));
#1004=EDGE_LOOP('',(#304));
#1005=EDGE_LOOP('',(#305));
#1006=EDGE_LOOP('',(#306,#307,#308,#309));
#1007=EDGE_LOOP('',(#310,#311,#312,#313));
#1008=EDGE_LOOP('',(#314,#315,#316,#317));
#1009=EDGE_LOOP('',(#318,#319,#320,#321));
#1010=EDGE_LOOP('',(#322,#323,#324,#325));
#1011=EDGE_LOOP('',(#326));
#1012=EDGE_LOOP('',(#327));
#1013=EDGE_LOOP('',(#328));
#1014=EDGE_LOOP('',(#329,#330,#331,#332,#333,#334,#335,#336));
#1015=EDGE_LOOP('',(#337,#338,#339,#340));
#1016=EDGE_LOOP('',(#341));
#1017=EDGE_LOOP('',(#342));
#1018=EDGE_LOOP('',(#343));
#1019=EDGE_LOOP('',(#344));
#1020=EDGE_LOOP('',(#345,#346,#347,#348,#349,#350,#351,#352,#353,#354,#355,
#356,#357,#358,#359,#360));
#1021=EDGE_LOOP('',(#361));
#1022=EDGE_LOOP('',(#362));
#1023=EDGE_LOOP('',(#363));
#1024=EDGE_LOOP('',(#364));
#1025=EDGE_LOOP('',(#365));
#1026=EDGE_LOOP('',(#366));
#1027=EDGE_LOOP('',(#367,#368,#369,#370,#371,#372,#373,#374,#375,#376,#377,
#378,#379,#380,#381,#382));
#1028=EDGE_LOOP('',(#383,#384,#385,#386));
#1029=EDGE_LOOP('',(#387,#388,#389,#390,#391,#392,#393,#394,#395,#396,#397,
#398,#399,#400,#401,#402));
#1030=EDGE_LOOP('',(#403));
#1031=EDGE_LOOP('',(#404));
#1032=EDGE_LOOP('',(#405));
#1033=EDGE_LOOP('',(#406));
#1034=EDGE_LOOP('',(#407));
#1035=EDGE_LOOP('',(#408));
#1036=EDGE_LOOP('',(#409,#410,#411,#412,#413,#414,#415,#416,#417,#418));
#1037=EDGE_LOOP('',(#419,#420,#421));
#1038=EDGE_LOOP('',(#422,#423,#424,#425));
#1039=EDGE_LOOP('',(#426,#427,#428));
#1040=EDGE_LOOP('',(#429,#430,#431,#432));
#1041=EDGE_LOOP('',(#433,#434,#435,#436,#437,#438,#439,#440,#441,#442));
#1042=EDGE_LOOP('',(#443,#444,#445,#446,#447,#448,#449,#450,#451,#452));
#1043=EDGE_LOOP('',(#453,#454,#455,#456,#457,#458,#459,#460,#461,#462));
#1044=EDGE_LOOP('',(#463,#464,#465,#466));
#1045=EDGE_LOOP('',(#467,#468,#469,#470));
#1046=EDGE_LOOP('',(#471,#472,#473,#474));
#1047=EDGE_LOOP('',(#475,#476,#477,#478));
#1048=EDGE_LOOP('',(#479,#480,#481,#482));
#1049=EDGE_LOOP('',(#483,#484,#485,#486));
#1050=EDGE_LOOP('',(#487,#488,#489,#490));
#1051=EDGE_LOOP('',(#491,#492,#493,#494));
#1052=EDGE_LOOP('',(#495,#496,#497,#498));
#1053=EDGE_LOOP('',(#499,#500,#501,#502));
#1054=EDGE_LOOP('',(#503,#504,#505,#506));
#1055=EDGE_LOOP('',(#507,#508,#509,#510));
#1056=EDGE_LOOP('',(#511,#512,#513,#514));
#1057=EDGE_LOOP('',(#515,#516,#517,#518));
#1058=EDGE_LOOP('',(#519,#520,#521));
#1059=EDGE_LOOP('',(#522,#523,#524,#525));
#1060=EDGE_LOOP('',(#526,#527,#528,#529));
#1061=EDGE_LOOP('',(#530,#531,#532,#533));
#1062=EDGE_LOOP('',(#534,#535,#536));
#1063=EDGE_LOOP('',(#537));
#1064=EDGE_LOOP('',(#538,#539));
#1065=EDGE_LOOP('',(#540));
#1066=EDGE_LOOP('',(#541,#542));
#1067=EDGE_LOOP('',(#543));
#1068=EDGE_LOOP('',(#544,#545));
#1069=EDGE_LOOP('',(#546));
#1070=EDGE_LOOP('',(#547,#548));
#1071=EDGE_LOOP('',(#549));
#1072=EDGE_LOOP('',(#550));
#1073=EDGE_LOOP('',(#551));
#1074=EDGE_LOOP('',(#552));
#1075=EDGE_LOOP('',(#553,#554,#555,#556,#557,#558));
#1076=EDGE_LOOP('',(#559,#560,#561,#562,#563,#564));
#1077=EDGE_LOOP('',(#565,#566,#567,#568));
#1078=EDGE_LOOP('',(#569));
#1079=EDGE_LOOP('',(#570));
#1080=EDGE_LOOP('',(#571));
#1081=EDGE_LOOP('',(#572));
#1082=EDGE_LOOP('',(#573));
#1083=EDGE_LOOP('',(#574));
#1084=EDGE_LOOP('',(#575));
#1085=EDGE_LOOP('',(#576));
#1086=EDGE_LOOP('',(#577,#578,#579,#580));
#1087=EDGE_LOOP('',(#581,#582,#583,#584));
#1088=EDGE_LOOP('',(#585,#586,#587,#588,#589,#590,#591,#592));
#1089=EDGE_LOOP('',(#593,#594,#595,#596));
#1090=EDGE_LOOP('',(#597,#598,#599,#600));
#1091=EDGE_LOOP('',(#601,#602,#603,#604));
#1092=EDGE_LOOP('',(#605,#606,#607,#608));
#1093=EDGE_LOOP('',(#609));
#1094=EDGE_LOOP('',(#610));
#1095=EDGE_LOOP('',(#611));
#1096=EDGE_LOOP('',(#612));
#1097=EDGE_LOOP('',(#613));
#1098=EDGE_LOOP('',(#614));
#1099=EDGE_LOOP('',(#615));
#1100=EDGE_LOOP('',(#616));
#1101=EDGE_LOOP('',(#617));
#1102=EDGE_LOOP('',(#618));
#1103=EDGE_LOOP('',(#619));
#1104=EDGE_LOOP('',(#620));
#1105=EDGE_LOOP('',(#621));
#1106=EDGE_LOOP('',(#622));
#1107=EDGE_LOOP('',(#623));
#1108=EDGE_LOOP('',(#624));
#1109=EDGE_LOOP('',(#625));
#1110=EDGE_LOOP('',(#626));
#1111=EDGE_LOOP('',(#627,#628,#629,#630));
#1112=EDGE_LOOP('',(#631,#632,#633,#634));
#1113=FACE_BOUND('',#997,.T.);
#1114=FACE_BOUND('',#998,.T.);
#1115=FACE_BOUND('',#999,.T.);
#1116=FACE_BOUND('',#1000,.T.);
#1117=FACE_BOUND('',#1001,.T.);
#1118=FACE_BOUND('',#1002,.T.);
#1119=FACE_BOUND('',#1003,.T.);
#1120=FACE_BOUND('',#1004,.T.);
#1121=FACE_BOUND('',#1005,.T.);
#1122=FACE_BOUND('',#1006,.T.);
#1123=FACE_BOUND('',#1007,.T.);
#1124=FACE_BOUND('',#1008,.T.);
#1125=FACE_BOUND('',#1009,.T.);
#1126=FACE_BOUND('',#1010,.T.);
#1127=FACE_BOUND('',#1011,.T.);
#1128=FACE_BOUND('',#1012,.T.);
#1129=FACE_BOUND('',#1013,.T.);
#1130=FACE_BOUND('',#1014,.T.);
#1131=FACE_BOUND('',#1015,.T.);
#1132=FACE_BOUND('',#1016,.T.);
#1133=FACE_BOUND('',#1017,.T.);
#1134=FACE_BOUND('',#1018,.T.);
#1135=FACE_BOUND('',#1019,.T.);
#1136=FACE_BOUND('',#1020,.T.);
#1137=FACE_BOUND('',#1021,.T.);
#1138=FACE_BOUND('',#1022,.T.);
#1139=FACE_BOUND('',#1023,.T.);
#1140=FACE_BOUND('',#1024,.T.);
#1141=FACE_BOUND('',#1025,.T.);
#1142=FACE_BOUND('',#1026,.T.);
#1143=FACE_BOUND('',#1027,.T.);
#1144=FACE_BOUND('',#1028,.T.);
#1145=FACE_BOUND('',#1029,.T.);
#1146=FACE_BOUND('',#1030,.T.);
#1147=FACE_BOUND('',#1031,.T.);
#1148=FACE_BOUND('',#1032,.T.);
#1149=FACE_BOUND('',#1033,.T.);
#1150=FACE_BOUND('',#1034,.T.);
#1151=FACE_BOUND('',#1035,.T.);
#1152=FACE_BOUND('',#1036,.T.);
#1153=FACE_BOUND('',#1037,.T.);
#1154=FACE_BOUND('',#1038,.T.);
#1155=FACE_BOUND('',#1039,.T.);
#1156=FACE_BOUND('',#1040,.T.);
#1157=FACE_BOUND('',#1041,.T.);
#1158=FACE_BOUND('',#1042,.T.);
#1159=FACE_BOUND('',#1043,.T.);
#1160=FACE_BOUND('',#1044,.T.);
#1161=FACE_BOUND('',#1045,.T.);
#1162=FACE_BOUND('',#1046,.T.);
#1163=FACE_BOUND('',#1047,.T.);
#1164=FACE_BOUND('',#1048,.T.);
#1165=FACE_BOUND('',#1049,.T.);
#1166=FACE_BOUND('',#1050,.T.);
#1167=FACE_BOUND('',#1051,.T.);
#1168=FACE_BOUND('',#1052,.T.);
#1169=FACE_BOUND('',#1053,.T.);
#1170=FACE_BOUND('',#1054,.T.);
#1171=FACE_BOUND('',#1055,.T.);
#1172=FACE_BOUND('',#1056,.T.);
#1173=FACE_BOUND('',#1057,.T.);
#1174=FACE_BOUND('',#1058,.T.);
#1175=FACE_BOUND('',#1059,.T.);
#1176=FACE_BOUND('',#1060,.T.);
#1177=FACE_BOUND('',#1061,.T.);
#1178=FACE_BOUND('',#1062,.T.);
#1179=FACE_BOUND('',#1063,.T.);
#1180=FACE_BOUND('',#1064,.T.);
#1181=FACE_BOUND('',#1065,.T.);
#1182=FACE_BOUND('',#1066,.T.);
#1183=FACE_BOUND('',#1067,.T.);
#1184=FACE_BOUND('',#1068,.T.);
#1185=FACE_BOUND('',#1069,.T.);
#1186=FACE_BOUND('',#1070,.T.);
#1187=FACE_BOUND('',#1071,.T.);
#1188=FACE_BOUND('',#1072,.T.);
#1189=FACE_BOUND('',#1073,.T.);
#1190=FACE_BOUND('',#1074,.T.);
#1191=FACE_BOUND('',#1075,.T.);
#1192=FACE_BOUND('',#1076,.T.);
#1193=FACE_BOUND('',#1077,.T.);
#1194=FACE_BOUND('',#1078,.T.);
#1195=FACE_BOUND('',#1079,.T.);
#1196=FACE_BOUND('',#1080,.T.);
#1197=FACE_BOUND('',#1081,.T.);
#1198=FACE_BOUND('',#1082,.T.);
#1199=FACE_BOUND('',#1083,.T.);
#1200=FACE_BOUND('',#1084,.T.);
#1201=FACE_BOUND('',#1085,.T.);
#1202=FACE_BOUND('',#1086,.T.);
#1203=FACE_BOUND('',#1087,.T.);
#1204=FACE_BOUND('',#1088,.T.);
#1205=FACE_BOUND('',#1089,.T.);
#1206=FACE_BOUND('',#1090,.T.);
#1207=FACE_BOUND('',#1091,.T.);
#1208=FACE_BOUND('',#1092,.T.);
#1209=FACE_BOUND('',#1093,.T.);
#1210=FACE_BOUND('',#1094,.T.);
#1211=FACE_BOUND('',#1095,.T.);
#1212=FACE_BOUND('',#1096,.T.);
#1213=FACE_BOUND('',#1097,.T.);
#1214=FACE_BOUND('',#1098,.T.);
#1215=FACE_BOUND('',#1099,.T.);
#1216=FACE_BOUND('',#1100,.T.);
#1217=FACE_BOUND('',#1101,.T.);
#1218=FACE_BOUND('',#1102,.T.);
#1219=FACE_BOUND('',#1103,.T.);
#1220=FACE_BOUND('',#1104,.T.);
#1221=FACE_BOUND('',#1105,.T.);
#1222=FACE_BOUND('',#1106,.T.);
#1223=FACE_BOUND('',#1107,.T.);
#1224=FACE_BOUND('',#1108,.T.);
#1225=FACE_BOUND('',#1109,.T.);
#1226=FACE_BOUND('',#1110,.T.);
#1227=FACE_BOUND('',#1111,.T.);
#1228=FACE_BOUND('',#1112,.T.);
#1229=PLANE('',#1357);
#1230=PLANE('',#1362);
#1231=PLANE('',#1363);
#1232=PLANE('',#1367);
#1233=PLANE('',#1368);
#1234=PLANE('',#1369);
#1235=PLANE('',#1370);
#1236=PLANE('',#1378);
#1237=PLANE('',#1387);
#1238=PLANE('',#1396);
#1239=PLANE('',#1397);
#1240=PLANE('',#1402);
#1241=PLANE('',#1411);
#1242=PLANE('',#1413);
#1243=PLANE('',#1416);
#1244=PLANE('',#1418);
#1245=PLANE('',#1421);
#1246=PLANE('',#1422);
#1247=PLANE('',#1423);
#1248=PLANE('',#1424);
#1249=PLANE('',#1425);
#1250=PLANE('',#1426);
#1251=PLANE('',#1427);
#1252=PLANE('',#1428);
#1253=PLANE('',#1429);
#1254=PLANE('',#1430);
#1255=PLANE('',#1437);
#1256=PLANE('',#1440);
#1257=PLANE('',#1444);
#1258=PLANE('',#1447);
#1259=PLANE('',#1455);
#1260=PLANE('',#1456);
#1261=PLANE('',#1457);
#1262=PLANE('',#1462);
#1263=PLANE('',#1463);
#1264=PLANE('',#1464);
#1265=PLANE('',#1465);
#1266=PLANE('',#1466);
#1267=PLANE('',#1467);
#1268=PLANE('',#1468);
#1269=PLANE('',#1471);
#1270=PLANE('',#1474);
#1271=PLANE('',#1477);
#1272=PLANE('',#1480);
#1273=ADVANCED_FACE('',(#1113,#1114,#1115,#1116,#1117),#1229,.T.);
#1274=ADVANCED_FACE('',(#1118),#1230,.T.);
#1275=ADVANCED_FACE('',(#1119,#1120,#1121,#1122,#1123),#1231,.T.);
#1276=ADVANCED_FACE('',(#1124),#1232,.F.);
#1277=ADVANCED_FACE('',(#1125),#1233,.F.);
#1278=ADVANCED_FACE('',(#1126),#1234,.T.);
#1279=ADVANCED_FACE('',(#1127,#1128,#1129,#1130,#1131),#1235,.F.);
#1280=ADVANCED_FACE('',(#1132,#1133,#1134,#1135,#1136),#1236,.T.);
#1281=ADVANCED_FACE('',(#1137,#1138,#1139,#1140,#1141,#1142,#1143),#1237,
 .F.);
#1282=ADVANCED_FACE('',(#1144),#1238,.F.);
#1283=ADVANCED_FACE('',(#1145),#1239,.T.);
#1284=ADVANCED_FACE('',(#1146,#1147,#1148,#1149,#1150,#1151,#1152),#1240,
 .T.);
#1285=ADVANCED_FACE('',(#1153),#1241,.F.);
#1286=ADVANCED_FACE('',(#1154),#1242,.F.);
#1287=ADVANCED_FACE('',(#1155),#1243,.F.);
#1288=ADVANCED_FACE('',(#1156),#1244,.F.);
#1289=ADVANCED_FACE('',(#1157),#1245,.T.);
#1290=ADVANCED_FACE('',(#1158),#1246,.T.);
#1291=ADVANCED_FACE('',(#1159),#1247,.F.);
#1292=ADVANCED_FACE('',(#1160),#1248,.T.);
#1293=ADVANCED_FACE('',(#1161),#1249,.T.);
#1294=ADVANCED_FACE('',(#1162),#1250,.F.);
#1295=ADVANCED_FACE('',(#1163),#1251,.F.);
#1296=ADVANCED_FACE('',(#1164),#1252,.F.);
#1297=ADVANCED_FACE('',(#1165),#1253,.F.);
#1298=ADVANCED_FACE('',(#1166),#1254,.T.);
#1299=ADVANCED_FACE('',(#1167),#12,.T.);
#1300=ADVANCED_FACE('',(#1168),#13,.T.);
#1301=ADVANCED_FACE('',(#1169),#14,.T.);
#1302=ADVANCED_FACE('',(#1170),#15,.T.);
#1303=ADVANCED_FACE('',(#1171),#16,.T.);
#1304=ADVANCED_FACE('',(#1172),#1255,.F.);
#1305=ADVANCED_FACE('',(#1173),#17,.T.);
#1306=ADVANCED_FACE('',(#1174),#1256,.F.);
#1307=ADVANCED_FACE('',(#1175),#18,.T.);
#1308=ADVANCED_FACE('',(#1176),#1257,.F.);
#1309=ADVANCED_FACE('',(#1177),#19,.T.);
#1310=ADVANCED_FACE('',(#1178),#1258,.F.);
#1311=ADVANCED_FACE('',(#1179,#1180),#20,.F.);
#1312=ADVANCED_FACE('',(#1181,#1182),#21,.F.);
#1313=ADVANCED_FACE('',(#1183,#1184),#22,.F.);
#1314=ADVANCED_FACE('',(#1185,#1186),#23,.F.);
#1315=ADVANCED_FACE('',(#1187,#1188),#24,.F.);
#1316=ADVANCED_FACE('',(#1189,#1190),#25,.F.);
#1317=ADVANCED_FACE('',(#1191),#1259,.T.);
#1318=ADVANCED_FACE('',(#1192),#1260,.F.);
#1319=ADVANCED_FACE('',(#1193),#1261,.T.);
#1320=ADVANCED_FACE('',(#1194,#1195),#26,.F.);
#1321=ADVANCED_FACE('',(#1196,#1197),#27,.F.);
#1322=ADVANCED_FACE('',(#1198,#1199),#28,.F.);
#1323=ADVANCED_FACE('',(#1200,#1201),#29,.F.);
#1324=ADVANCED_FACE('',(#1202),#1262,.T.);
#1325=ADVANCED_FACE('',(#1203),#1263,.T.);
#1326=ADVANCED_FACE('',(#1204),#1264,.T.);
#1327=ADVANCED_FACE('',(#1205),#1265,.T.);
#1328=ADVANCED_FACE('',(#1206),#1266,.F.);
#1329=ADVANCED_FACE('',(#1207),#1267,.F.);
#1330=ADVANCED_FACE('',(#1208),#1268,.T.);
#1331=ADVANCED_FACE('',(#1209,#1210),#30,.F.);
#1332=ADVANCED_FACE('',(#1211),#1269,.T.);
#1333=ADVANCED_FACE('',(#1212,#1213),#31,.F.);
#1334=ADVANCED_FACE('',(#1214),#1270,.T.);
#1335=ADVANCED_FACE('',(#1215,#1216),#32,.F.);
#1336=ADVANCED_FACE('',(#1217),#1271,.T.);
#1337=ADVANCED_FACE('',(#1218,#1219),#33,.F.);
#1338=ADVANCED_FACE('',(#1220),#1272,.T.);
#1339=ADVANCED_FACE('',(#1221,#1222),#34,.F.);
#1340=ADVANCED_FACE('',(#1223,#1224),#35,.F.);
#1341=ADVANCED_FACE('',(#1225,#1226),#36,.F.);
#1342=ADVANCED_FACE('',(#1227),#37,.F.);
#1343=ADVANCED_FACE('',(#1228),#38,.F.);
#1344=CLOSED_SHELL('',(#1273,#1274,#1275,#1276,#1277,#1278,#1279,#1280,
#1281,#1282,#1283,#1284,#1285,#1286,#1287,#1288,#1289,#1290,#1291,#1292,
#1293,#1294,#1295,#1296,#1297,#1298,#1299,#1300,#1301,#1302,#1303,#1304,
#1305,#1306,#1307,#1308,#1309,#1310,#1311,#1312,#1313,#1314,#1315,#1316,
#1317,#1318,#1319,#1320,#1321,#1322,#1323,#1324,#1325,#1326,#1327,#1328,
#1329,#1330,#1331,#1332,#1333,#1334,#1335,#1336,#1337,#1338,#1339,#1340,
#1341,#1342,#1343));
#1345=STYLED_ITEM('',(#1346),#1353);
#1346=PRESENTATION_STYLE_ASSIGNMENT((#1347));
#1347=SURFACE_STYLE_USAGE(.BOTH.,#1348);
#1348=SURFACE_SIDE_STYLE('',(#1349));
#1349=SURFACE_STYLE_FILL_AREA(#1350);
#1350=FILL_AREA_STYLE('',(#1351));
#1351=FILL_AREA_STYLE_COLOUR('',#1352);
#1352=COLOUR_RGB('',0.615686274509804,0.811764705882353,0.929411764705882);
#1353=MANIFOLD_SOLID_BREP('Part 1',#1344);
#1354=SHAPE_DEFINITION_REPRESENTATION(#2248,#1355);
#1355=SHAPE_REPRESENTATION('Part 1',(#1356),#2243);
#1356=AXIS2_PLACEMENT_3D('',#1866,#1486,#1487);
#1357=AXIS2_PLACEMENT_3D('',#1867,#1488,#1489);
#1358=AXIS2_PLACEMENT_3D('',#1868,#1490,#1491);
#1359=AXIS2_PLACEMENT_3D('',#1870,#1492,#1493);
#1360=AXIS2_PLACEMENT_3D('',#1872,#1494,#1495);
#1361=AXIS2_PLACEMENT_3D('',#1898,#1508,#1509);
#1362=AXIS2_PLACEMENT_3D('',#1900,#1510,#1511);
#1363=AXIS2_PLACEMENT_3D('',#1911,#1518,#1519);
#1364=AXIS2_PLACEMENT_3D('',#1912,#1520,#1521);
#1365=AXIS2_PLACEMENT_3D('',#1914,#1522,#1523);
#1366=AXIS2_PLACEMENT_3D('',#1916,#1524,#1525);
#1367=AXIS2_PLACEMENT_3D('',#1934,#1534,#1535);
#1368=AXIS2_PLACEMENT_3D('',#1938,#1538,#1539);
#1369=AXIS2_PLACEMENT_3D('',#1942,#1542,#1543);
#1370=AXIS2_PLACEMENT_3D('',#1944,#1545,#1546);
#1371=AXIS2_PLACEMENT_3D('',#1945,#1547,#1548);
#1372=AXIS2_PLACEMENT_3D('',#1947,#1549,#1550);
#1373=AXIS2_PLACEMENT_3D('',#1949,#1551,#1552);
#1374=AXIS2_PLACEMENT_3D('',#1954,#1554,#1555);
#1375=AXIS2_PLACEMENT_3D('',#1958,#1557,#1558);
#1376=AXIS2_PLACEMENT_3D('',#1962,#1560,#1561);
#1377=AXIS2_PLACEMENT_3D('',#1966,#1563,#1564);
#1378=AXIS2_PLACEMENT_3D('',#1967,#1565,#1566);
#1379=AXIS2_PLACEMENT_3D('',#1968,#1567,#1568);
#1380=AXIS2_PLACEMENT_3D('',#1970,#1569,#1570);
#1381=AXIS2_PLACEMENT_3D('',#1972,#1571,#1572);
#1382=AXIS2_PLACEMENT_3D('',#1974,#1573,#1574);
#1383=AXIS2_PLACEMENT_3D('',#1995,#1584,#1585);
#1384=AXIS2_PLACEMENT_3D('',#1999,#1587,#1588);
#1385=AXIS2_PLACEMENT_3D('',#2003,#1590,#1591);
#1386=AXIS2_PLACEMENT_3D('',#2007,#1593,#1594);
#1387=AXIS2_PLACEMENT_3D('',#2008,#1595,#1596);
#1388=AXIS2_PLACEMENT_3D('',#2009,#1597,#1598);
#1389=AXIS2_PLACEMENT_3D('',#2011,#1599,#1600);
#1390=AXIS2_PLACEMENT_3D('',#2013,#1601,#1602);
#1391=AXIS2_PLACEMENT_3D('',#2015,#1603,#1604);
#1392=AXIS2_PLACEMENT_3D('',#2017,#1605,#1606);
#1393=AXIS2_PLACEMENT_3D('',#2019,#1607,#1608);
#1394=AXIS2_PLACEMENT_3D('',#2023,#1610,#1611);
#1395=AXIS2_PLACEMENT_3D('',#2027,#1613,#1614);
#1396=AXIS2_PLACEMENT_3D('',#2044,#1624,#1625);
#1397=AXIS2_PLACEMENT_3D('',#2050,#1629,#1630);
#1398=AXIS2_PLACEMENT_3D('',#2067,#1639,#1640);
#1399=AXIS2_PLACEMENT_3D('',#2071,#1642,#1643);
#1400=AXIS2_PLACEMENT_3D('',#2075,#1645,#1646);
#1401=AXIS2_PLACEMENT_3D('',#2079,#1648,#1649);
#1402=AXIS2_PLACEMENT_3D('',#2080,#1650,#1651);
#1403=AXIS2_PLACEMENT_3D('',#2081,#1652,#1653);
#1404=AXIS2_PLACEMENT_3D('',#2083,#1654,#1655);
#1405=AXIS2_PLACEMENT_3D('',#2085,#1656,#1657);
#1406=AXIS2_PLACEMENT_3D('',#2087,#1658,#1659);
#1407=AXIS2_PLACEMENT_3D('',#2089,#1660,#1661);
#1408=AXIS2_PLACEMENT_3D('',#2091,#1662,#1663);
#1409=AXIS2_PLACEMENT_3D('',#2095,#1665,#1666);
#1410=AXIS2_PLACEMENT_3D('',#2099,#1668,#1669);
#1411=AXIS2_PLACEMENT_3D('',#2104,#1673,#1674);
#1412=AXIS2_PLACEMENT_3D('',#2105,#1675,#1676);
#1413=AXIS2_PLACEMENT_3D('',#2108,#1678,#1679);
#1414=AXIS2_PLACEMENT_3D('',#2109,#1680,#1681);
#1415=AXIS2_PLACEMENT_3D('',#2113,#1683,#1684);
#1416=AXIS2_PLACEMENT_3D('',#2114,#1685,#1686);
#1417=AXIS2_PLACEMENT_3D('',#2115,#1687,#1688);
#1418=AXIS2_PLACEMENT_3D('',#2121,#1691,#1692);
#1419=AXIS2_PLACEMENT_3D('',#2125,#1694,#1695);
#1420=AXIS2_PLACEMENT_3D('',#2129,#1697,#1698);
#1421=AXIS2_PLACEMENT_3D('',#2130,#1699,#1700);
#1422=AXIS2_PLACEMENT_3D('',#2137,#1706,#1707);
#1423=AXIS2_PLACEMENT_3D('',#2144,#1713,#1714);
#1424=AXIS2_PLACEMENT_3D('',#2151,#1719,#1720);
#1425=AXIS2_PLACEMENT_3D('',#2153,#1722,#1723);
#1426=AXIS2_PLACEMENT_3D('',#2155,#1725,#1726);
#1427=AXIS2_PLACEMENT_3D('',#2157,#1728,#1729);
#1428=AXIS2_PLACEMENT_3D('',#2159,#1731,#1732);
#1429=AXIS2_PLACEMENT_3D('',#2162,#1735,#1736);
#1430=AXIS2_PLACEMENT_3D('',#2165,#1739,#1740);
#1431=AXIS2_PLACEMENT_3D('',#2168,#1743,#1744);
#1432=AXIS2_PLACEMENT_3D('',#2169,#1745,#1746);
#1433=AXIS2_PLACEMENT_3D('',#2170,#1747,#1748);
#1434=AXIS2_PLACEMENT_3D('',#2171,#1749,#1750);
#1435=AXIS2_PLACEMENT_3D('',#2172,#1751,#1752);
#1436=AXIS2_PLACEMENT_3D('',#2173,#1753,#1754);
#1437=AXIS2_PLACEMENT_3D('',#2174,#1755,#1756);
#1438=AXIS2_PLACEMENT_3D('',#2175,#1757,#1758);
#1439=AXIS2_PLACEMENT_3D('',#2176,#1759,#1760);
#1440=AXIS2_PLACEMENT_3D('',#2177,#1761,#1762);
#1441=AXIS2_PLACEMENT_3D('',#2178,#1763,#1764);
#1442=AXIS2_PLACEMENT_3D('',#2179,#1765,#1766);
#1443=AXIS2_PLACEMENT_3D('',#2180,#1767,#1768);
#1444=AXIS2_PLACEMENT_3D('',#2181,#1769,#1770);
#1445=AXIS2_PLACEMENT_3D('',#2182,#1771,#1772);
#1446=AXIS2_PLACEMENT_3D('',#2183,#1773,#1774);
#1447=AXIS2_PLACEMENT_3D('',#2184,#1775,#1776);
#1448=AXIS2_PLACEMENT_3D('',#2185,#1777,#1778);
#1449=AXIS2_PLACEMENT_3D('',#2186,#1779,#1780);
#1450=AXIS2_PLACEMENT_3D('',#2187,#1781,#1782);
#1451=AXIS2_PLACEMENT_3D('',#2188,#1783,#1784);
#1452=AXIS2_PLACEMENT_3D('',#2189,#1785,#1786);
#1453=AXIS2_PLACEMENT_3D('',#2190,#1787,#1788);
#1454=AXIS2_PLACEMENT_3D('',#2191,#1789,#1790);
#1455=AXIS2_PLACEMENT_3D('',#2192,#1791,#1792);
#1456=AXIS2_PLACEMENT_3D('',#2194,#1794,#1795);
#1457=AXIS2_PLACEMENT_3D('',#2196,#1797,#1798);
#1458=AXIS2_PLACEMENT_3D('',#2199,#1801,#1802);
#1459=AXIS2_PLACEMENT_3D('',#2200,#1803,#1804);
#1460=AXIS2_PLACEMENT_3D('',#2201,#1805,#1806);
#1461=AXIS2_PLACEMENT_3D('',#2202,#1807,#1808);
#1462=AXIS2_PLACEMENT_3D('',#2203,#1809,#1810);
#1463=AXIS2_PLACEMENT_3D('',#2206,#1813,#1814);
#1464=AXIS2_PLACEMENT_3D('',#2208,#1816,#1817);
#1465=AXIS2_PLACEMENT_3D('',#2215,#1822,#1823);
#1466=AXIS2_PLACEMENT_3D('',#2216,#1824,#1825);
#1467=AXIS2_PLACEMENT_3D('',#2218,#1827,#1828);
#1468=AXIS2_PLACEMENT_3D('',#2220,#1830,#1831);
#1469=AXIS2_PLACEMENT_3D('',#2221,#1832,#1833);
#1470=AXIS2_PLACEMENT_3D('',#2222,#1834,#1835);
#1471=AXIS2_PLACEMENT_3D('',#2224,#1836,#1837);
#1472=AXIS2_PLACEMENT_3D('',#2225,#1838,#1839);
#1473=AXIS2_PLACEMENT_3D('',#2226,#1840,#1841);
#1474=AXIS2_PLACEMENT_3D('',#2228,#1842,#1843);
#1475=AXIS2_PLACEMENT_3D('',#2229,#1844,#1845);
#1476=AXIS2_PLACEMENT_3D('',#2230,#1846,#1847);
#1477=AXIS2_PLACEMENT_3D('',#2232,#1848,#1849);
#1478=AXIS2_PLACEMENT_3D('',#2233,#1850,#1851);
#1479=AXIS2_PLACEMENT_3D('',#2234,#1852,#1853);
#1480=AXIS2_PLACEMENT_3D('',#2236,#1854,#1855);
#1481=AXIS2_PLACEMENT_3D('',#2237,#1856,#1857);
#1482=AXIS2_PLACEMENT_3D('',#2238,#1858,#1859);
#1483=AXIS2_PLACEMENT_3D('',#2239,#1860,#1861);
#1484=AXIS2_PLACEMENT_3D('',#2240,#1862,#1863);
#1485=AXIS2_PLACEMENT_3D('',#2241,#1864,#1865);
#1486=DIRECTION('',(0.,0.,1.));
#1487=DIRECTION('',(1.,0.,0.));
#1488=DIRECTION('',(0.,0.,1.));
#1489=DIRECTION('',(1.,0.,0.));
#1490=DIRECTION('',(0.,0.,-1.));
#1491=DIRECTION('',(1.,0.,0.));
#1492=DIRECTION('',(0.,0.,1.));
#1493=DIRECTION('',(1.,0.,0.));
#1494=DIRECTION('',(0.,0.,1.));
#1495=DIRECTION('',(1.,0.,0.));
#1496=DIRECTION('',(0.,1.,0.));
#1497=DIRECTION('',(1.,0.,0.));
#1498=DIRECTION('',(0.,1.,0.));
#1499=DIRECTION('',(1.,-2.20282346155785E-16,0.));
#1500=DIRECTION('',(0.,1.,0.));
#1501=DIRECTION('',(1.,0.,0.));
#1502=DIRECTION('',(0.,-1.,0.));
#1503=DIRECTION('',(1.,0.,0.));
#1504=DIRECTION('',(0.,1.,0.));
#1505=DIRECTION('',(-1.,0.,0.));
#1506=DIRECTION('',(0.,-1.,0.));
#1507=DIRECTION('',(1.,0.,0.));
#1508=DIRECTION('',(0.,0.,-1.));
#1509=DIRECTION('',(1.,0.,0.));
#1510=DIRECTION('',(0.,-1.,0.));
#1511=DIRECTION('',(0.,0.,-1.));
#1512=DIRECTION('',(1.,0.,0.));
#1513=DIRECTION('',(0.,0.,1.));
#1514=DIRECTION('',(0.,0.,-1.));
#1515=DIRECTION('',(-1.,0.,0.));
#1516=DIRECTION('',(0.,0.,-1.));
#1517=DIRECTION('',(0.,0.,1.));
#1518=DIRECTION('',(0.,0.,1.));
#1519=DIRECTION('',(1.,0.,0.));
#1520=DIRECTION('',(0.,0.,1.));
#1521=DIRECTION('',(1.,0.,0.));
#1522=DIRECTION('',(0.,0.,1.));
#1523=DIRECTION('',(1.,0.,0.));
#1524=DIRECTION('',(0.,0.,1.));
#1525=DIRECTION('',(1.,0.,0.));
#1526=DIRECTION('',(1.80231010491097E-16,-1.,0.));
#1527=DIRECTION('',(-1.,0.,0.));
#1528=DIRECTION('',(1.9149544864679E-16,-1.,0.));
#1529=DIRECTION('',(-1.,0.,0.));
#1530=DIRECTION('',(0.,-1.,0.));
#1531=DIRECTION('',(-1.,0.,0.));
#1532=DIRECTION('',(0.,1.,0.));
#1533=DIRECTION('',(1.,0.,0.));
#1534=DIRECTION('',(1.,0.,0.));
#1535=DIRECTION('',(0.,0.,-1.));
#1536=DIRECTION('',(0.,-1.,0.));
#1537=DIRECTION('',(0.,0.,-1.));
#1538=DIRECTION('',(-2.20282346155785E-16,-1.,0.));
#1539=DIRECTION('',(1.,-2.20282346155785E-16,0.));
#1540=DIRECTION('',(-1.,2.20282346155785E-16,0.));
#1541=DIRECTION('',(0.,0.,-1.));
#1542=DIRECTION('',(1.,0.,0.));
#1543=DIRECTION('',(0.,0.,-1.));
#1544=DIRECTION('',(0.,-1.,0.));
#1545=DIRECTION('',(0.,0.,1.));
#1546=DIRECTION('',(1.,0.,0.));
#1547=DIRECTION('',(0.,0.,-1.));
#1548=DIRECTION('',(-1.,0.,0.));
#1549=DIRECTION('',(0.,0.,-1.));
#1550=DIRECTION('',(-1.,0.,0.));
#1551=DIRECTION('',(0.,0.,-1.));
#1552=DIRECTION('',(-1.,0.,0.));
#1553=DIRECTION('',(0.,1.,0.));
#1554=DIRECTION('',(0.,0.,1.));
#1555=DIRECTION('',(1.,0.,0.));
#1556=DIRECTION('',(1.,0.,0.));
#1557=DIRECTION('',(0.,0.,1.));
#1558=DIRECTION('',(1.,0.,0.));
#1559=DIRECTION('',(-1.6326809185664E-16,1.,0.));
#1560=DIRECTION('',(0.,0.,1.));
#1561=DIRECTION('',(1.,0.,0.));
#1562=DIRECTION('',(1.,0.,0.));
#1563=DIRECTION('',(0.,0.,1.));
#1564=DIRECTION('',(1.,0.,0.));
#1565=DIRECTION('',(0.,0.,1.));
#1566=DIRECTION('',(1.,0.,0.));
#1567=DIRECTION('',(0.,0.,-1.));
#1568=DIRECTION('',(1.,0.,0.));
#1569=DIRECTION('',(0.,0.,1.));
#1570=DIRECTION('',(1.,0.,0.));
#1571=DIRECTION('',(0.,0.,1.));
#1572=DIRECTION('',(1.,0.,0.));
#1573=DIRECTION('',(0.,0.,-1.));
#1574=DIRECTION('',(1.,0.,0.));
#1575=DIRECTION('',(1.,0.,0.));
#1576=DIRECTION('',(0.,1.,0.));
#1577=DIRECTION('',(1.,0.,0.));
#1578=DIRECTION('',(0.,1.,0.));
#1579=DIRECTION('',(1.,0.,0.));
#1580=DIRECTION('',(-1.71330713676721E-16,1.,0.));
#1581=DIRECTION('',(1.,0.,0.));
#1582=DIRECTION('',(0.,1.,0.));
#1583=DIRECTION('',(1.,0.,0.));
#1584=DIRECTION('',(0.,0.,1.));
#1585=DIRECTION('',(1.,0.,0.));
#1586=DIRECTION('',(-1.80231010491097E-16,1.,0.));
#1587=DIRECTION('',(0.,0.,1.));
#1588=DIRECTION('',(1.,0.,0.));
#1589=DIRECTION('',(1.,0.,0.));
#1590=DIRECTION('',(0.,0.,1.));
#1591=DIRECTION('',(1.,0.,0.));
#1592=DIRECTION('',(-1.9149544864679E-16,1.,0.));
#1593=DIRECTION('',(0.,0.,1.));
#1594=DIRECTION('',(1.,0.,0.));
#1595=DIRECTION('',(0.,1.,0.));
#1596=DIRECTION('',(0.,0.,1.));
#1597=DIRECTION('',(0.,1.,0.));
#1598=DIRECTION('',(0.,0.,1.));
#1599=DIRECTION('',(0.,1.,0.));
#1600=DIRECTION('',(0.,0.,1.));
#1601=DIRECTION('',(0.,1.,0.));
#1602=DIRECTION('',(0.,0.,1.));
#1603=DIRECTION('',(0.,1.,0.));
#1604=DIRECTION('',(0.,0.,1.));
#1605=DIRECTION('',(0.,1.,0.));
#1606=DIRECTION('',(0.,0.,1.));
#1607=DIRECTION('',(0.,1.,0.));
#1608=DIRECTION('',(0.,0.,1.));
#1609=DIRECTION('',(0.,0.,1.));
#1610=DIRECTION('',(0.,1.,0.));
#1611=DIRECTION('',(0.,0.,1.));
#1612=DIRECTION('',(1.,0.,0.));
#1613=DIRECTION('',(0.,1.,0.));
#1614=DIRECTION('',(0.,0.,1.));
#1615=DIRECTION('',(0.,0.,1.));
#1616=DIRECTION('',(0.,0.,-1.));
#1617=DIRECTION('',(-1.,0.,0.));
#1618=DIRECTION('',(-1.,0.,0.));
#1619=DIRECTION('',(0.,0.,-1.));
#1620=DIRECTION('',(0.,0.,-1.));
#1621=DIRECTION('',(-1.,0.,0.));
#1622=DIRECTION('',(-1.,0.,0.));
#1623=DIRECTION('',(0.,0.,-1.));
#1624=DIRECTION('',(0.,-1.,0.));
#1625=DIRECTION('',(0.,0.,-1.));
#1626=DIRECTION('',(0.,0.,-1.));
#1627=DIRECTION('',(0.,0.,1.));
#1628=DIRECTION('',(1.,0.,0.));
#1629=DIRECTION('',(0.,0.,1.));
#1630=DIRECTION('',(1.,0.,0.));
#1631=DIRECTION('',(1.,0.,0.));
#1632=DIRECTION('',(0.,-1.,0.));
#1633=DIRECTION('',(-1.71330713676721E-16,1.,0.));
#1634=DIRECTION('',(1.,0.,0.));
#1635=DIRECTION('',(0.,1.,0.));
#1636=DIRECTION('',(1.,0.,0.));
#1637=DIRECTION('',(0.,-1.,0.));
#1638=DIRECTION('',(1.,0.,0.));
#1639=DIRECTION('',(0.,0.,1.));
#1640=DIRECTION('',(1.,0.,0.));
#1641=DIRECTION('',(0.,1.,0.));
#1642=DIRECTION('',(0.,0.,1.));
#1643=DIRECTION('',(1.,0.,0.));
#1644=DIRECTION('',(1.,0.,0.));
#1645=DIRECTION('',(0.,0.,1.));
#1646=DIRECTION('',(1.,0.,0.));
#1647=DIRECTION('',(-1.6326809185664E-16,1.,0.));
#1648=DIRECTION('',(0.,0.,1.));
#1649=DIRECTION('',(1.,0.,0.));
#1650=DIRECTION('',(0.,1.,0.));
#1651=DIRECTION('',(0.,0.,1.));
#1652=DIRECTION('',(0.,1.,0.));
#1653=DIRECTION('',(0.,0.,1.));
#1654=DIRECTION('',(0.,1.,0.));
#1655=DIRECTION('',(0.,0.,1.));
#1656=DIRECTION('',(0.,1.,0.));
#1657=DIRECTION('',(0.,0.,1.));
#1658=DIRECTION('',(0.,1.,0.));
#1659=DIRECTION('',(0.,0.,1.));
#1660=DIRECTION('',(0.,1.,0.));
#1661=DIRECTION('',(0.,0.,1.));
#1662=DIRECTION('',(0.,1.,0.));
#1663=DIRECTION('',(0.,0.,1.));
#1664=DIRECTION('',(0.,0.,1.));
#1665=DIRECTION('',(0.,1.,0.));
#1666=DIRECTION('',(0.,0.,1.));
#1667=DIRECTION('',(1.,0.,0.));
#1668=DIRECTION('',(0.,1.,0.));
#1669=DIRECTION('',(0.,0.,1.));
#1670=DIRECTION('',(0.,0.,1.));
#1671=DIRECTION('',(0.,0.,-1.));
#1672=DIRECTION('',(0.,0.,-1.));
#1673=DIRECTION('',(0.,0.,1.));
#1674=DIRECTION('',(1.,0.,0.));
#1675=DIRECTION('',(0.,0.,1.));
#1676=DIRECTION('',(1.,0.,0.));
#1677=DIRECTION('',(1.9149544864679E-16,-1.,0.));
#1678=DIRECTION('',(0.,0.,1.));
#1679=DIRECTION('',(1.,0.,0.));
#1680=DIRECTION('',(0.,0.,1.));
#1681=DIRECTION('',(1.,0.,0.));
#1682=DIRECTION('',(1.80231010491097E-16,-1.,0.));
#1683=DIRECTION('',(0.,0.,1.));
#1684=DIRECTION('',(1.,0.,0.));
#1685=DIRECTION('',(0.,0.,1.));
#1686=DIRECTION('',(1.,0.,0.));
#1687=DIRECTION('',(0.,0.,1.));
#1688=DIRECTION('',(1.,0.,0.));
#1689=DIRECTION('',(-1.,0.,0.));
#1690=DIRECTION('',(1.9149544864679E-16,-1.,0.));
#1691=DIRECTION('',(0.,0.,1.));
#1692=DIRECTION('',(1.,0.,0.));
#1693=DIRECTION('',(1.80231010491097E-16,-1.,0.));
#1694=DIRECTION('',(0.,0.,1.));
#1695=DIRECTION('',(1.,0.,0.));
#1696=DIRECTION('',(-1.,0.,0.));
#1697=DIRECTION('',(0.,0.,1.));
#1698=DIRECTION('',(1.,0.,0.));
#1699=DIRECTION('',(-1.,-1.80231010491097E-16,0.));
#1700=DIRECTION('',(1.80231010491097E-16,-1.,0.));
#1701=DIRECTION('',(1.80231010491097E-16,-1.,0.));
#1702=DIRECTION('',(0.,0.,-1.));
#1703=DIRECTION('',(0.,0.,-1.));
#1704=DIRECTION('',(1.80231010491097E-16,-1.,0.));
#1705=DIRECTION('',(0.,0.,-1.));
#1706=DIRECTION('',(0.,1.,0.));
#1707=DIRECTION('',(0.,0.,1.));
#1708=DIRECTION('',(-1.,0.,0.));
#1709=DIRECTION('',(0.,0.,-1.));
#1710=DIRECTION('',(-1.,0.,0.));
#1711=DIRECTION('',(0.,0.,-1.));
#1712=DIRECTION('',(0.,0.,-1.));
#1713=DIRECTION('',(-1.,-1.9149544864679E-16,0.));
#1714=DIRECTION('',(1.9149544864679E-16,-1.,0.));
#1715=DIRECTION('',(1.9149544864679E-16,-1.,0.));
#1716=DIRECTION('',(0.,0.,-1.));
#1717=DIRECTION('',(0.,0.,-1.));
#1718=DIRECTION('',(1.9149544864679E-16,-1.,0.));
#1719=DIRECTION('',(1.,1.71330713676721E-16,0.));
#1720=DIRECTION('',(-1.71330713676721E-16,1.,0.));
#1721=DIRECTION('',(0.,0.,1.));
#1722=DIRECTION('',(0.,-1.,0.));
#1723=DIRECTION('',(0.,0.,-1.));
#1724=DIRECTION('',(0.,0.,1.));
#1725=DIRECTION('',(1.,0.,0.));
#1726=DIRECTION('',(0.,0.,-1.));
#1727=DIRECTION('',(0.,0.,1.));
#1728=DIRECTION('',(0.,-1.,0.));
#1729=DIRECTION('',(0.,0.,-1.));
#1730=DIRECTION('',(0.,0.,-1.));
#1731=DIRECTION('',(-1.,-1.6326809185664E-16,0.));
#1732=DIRECTION('',(1.6326809185664E-16,-1.,0.));
#1733=DIRECTION('',(0.,0.,-1.));
#1734=DIRECTION('',(0.,0.,-1.));
#1735=DIRECTION('',(0.,1.,0.));
#1736=DIRECTION('',(0.,0.,1.));
#1737=DIRECTION('',(0.,0.,-1.));
#1738=DIRECTION('',(0.,0.,-1.));
#1739=DIRECTION('',(-1.,0.,0.));
#1740=DIRECTION('',(0.,0.,1.));
#1741=DIRECTION('',(0.,0.,-1.));
#1742=DIRECTION('',(0.,0.,-1.));
#1743=DIRECTION('',(0.,0.,-1.));
#1744=DIRECTION('',(-1.,0.,0.));
#1745=DIRECTION('',(0.,0.,1.));
#1746=DIRECTION('',(1.,0.,0.));
#1747=DIRECTION('',(0.,0.,-1.));
#1748=DIRECTION('',(-1.,0.,0.));
#1749=DIRECTION('',(0.,0.,1.));
#1750=DIRECTION('',(1.,0.,0.));
#1751=DIRECTION('',(0.,0.,-1.));
#1752=DIRECTION('',(-1.,0.,0.));
#1753=DIRECTION('',(0.,0.,1.));
#1754=DIRECTION('',(1.,0.,0.));
#1755=DIRECTION('',(0.,0.,1.));
#1756=DIRECTION('',(1.,0.,0.));
#1757=DIRECTION('',(0.,0.,1.));
#1758=DIRECTION('',(1.,0.,0.));
#1759=DIRECTION('',(0.,0.,-1.));
#1760=DIRECTION('',(-1.,0.,0.));
#1761=DIRECTION('',(0.,0.,1.));
#1762=DIRECTION('',(1.,0.,0.));
#1763=DIRECTION('',(0.,0.,1.));
#1764=DIRECTION('',(1.,0.,0.));
#1765=DIRECTION('',(0.,0.,-1.));
#1766=DIRECTION('',(-1.,0.,0.));
#1767=DIRECTION('',(0.,0.,1.));
#1768=DIRECTION('',(1.,0.,0.));
#1769=DIRECTION('',(0.,0.,1.));
#1770=DIRECTION('',(1.,0.,0.));
#1771=DIRECTION('',(0.,0.,1.));
#1772=DIRECTION('',(1.,0.,0.));
#1773=DIRECTION('',(0.,0.,-1.));
#1774=DIRECTION('',(-1.,0.,0.));
#1775=DIRECTION('',(0.,0.,1.));
#1776=DIRECTION('',(1.,0.,0.));
#1777=DIRECTION('',(0.,0.,1.));
#1778=DIRECTION('',(1.,0.,0.));
#1779=DIRECTION('',(0.,0.,1.));
#1780=DIRECTION('',(1.,0.,0.));
#1781=DIRECTION('',(0.,0.,1.));
#1782=DIRECTION('',(1.,0.,0.));
#1783=DIRECTION('',(0.,0.,1.));
#1784=DIRECTION('',(1.,0.,0.));
#1785=DIRECTION('',(0.,0.,1.));
#1786=DIRECTION('',(1.,0.,0.));
#1787=DIRECTION('',(0.,1.,0.));
#1788=DIRECTION('',(0.,0.,1.));
#1789=DIRECTION('',(0.,1.,0.));
#1790=DIRECTION('',(0.,0.,1.));
#1791=DIRECTION('',(-1.,0.,0.));
#1792=DIRECTION('',(0.,0.,1.));
#1793=DIRECTION('',(0.,1.,0.));
#1794=DIRECTION('',(-1.,0.,0.));
#1795=DIRECTION('',(0.,0.,1.));
#1796=DIRECTION('',(0.,1.,0.));
#1797=DIRECTION('',(0.,0.,1.));
#1798=DIRECTION('',(1.,0.,0.));
#1799=DIRECTION('',(0.,1.,0.));
#1800=DIRECTION('',(0.,1.,0.));
#1801=DIRECTION('',(0.,1.,0.));
#1802=DIRECTION('',(0.,0.,1.));
#1803=DIRECTION('',(0.,1.,0.));
#1804=DIRECTION('',(0.,0.,1.));
#1805=DIRECTION('',(0.,1.,0.));
#1806=DIRECTION('',(0.,0.,1.));
#1807=DIRECTION('',(0.,1.,0.));
#1808=DIRECTION('',(0.,0.,1.));
#1809=DIRECTION('',(0.,1.,0.));
#1810=DIRECTION('',(0.,0.,1.));
#1811=DIRECTION('',(0.,0.,1.));
#1812=DIRECTION('',(0.,0.,1.));
#1813=DIRECTION('',(-1.,0.,0.));
#1814=DIRECTION('',(0.,0.,1.));
#1815=DIRECTION('',(0.,0.,1.));
#1816=DIRECTION('',(0.,-1.,0.));
#1817=DIRECTION('',(0.,0.,-1.));
#1818=DIRECTION('',(0.,0.,1.));
#1819=DIRECTION('',(0.,0.,1.));
#1820=DIRECTION('',(1.,0.,0.));
#1821=DIRECTION('',(0.,0.,1.));
#1822=DIRECTION('',(1.,0.,0.));
#1823=DIRECTION('',(0.,0.,-1.));
#1824=DIRECTION('',(1.,0.,0.));
#1825=DIRECTION('',(0.,0.,-1.));
#1826=DIRECTION('',(0.,1.,0.));
#1827=DIRECTION('',(-1.,0.,0.));
#1828=DIRECTION('',(0.,0.,1.));
#1829=DIRECTION('',(0.,-1.,0.));
#1830=DIRECTION('',(0.,0.,1.));
#1831=DIRECTION('',(1.,0.,0.));
#1832=DIRECTION('',(0.,0.,1.));
#1833=DIRECTION('',(1.,0.,0.));
#1834=DIRECTION('',(0.,0.,1.));
#1835=DIRECTION('',(1.,0.,0.));
#1836=DIRECTION('',(0.,0.,1.));
#1837=DIRECTION('',(1.,0.,0.));
#1838=DIRECTION('',(0.,0.,1.));
#1839=DIRECTION('',(1.,0.,0.));
#1840=DIRECTION('',(0.,0.,1.));
#1841=DIRECTION('',(1.,0.,0.));
#1842=DIRECTION('',(0.,0.,1.));
#1843=DIRECTION('',(1.,0.,0.));
#1844=DIRECTION('',(0.,0.,1.));
#1845=DIRECTION('',(1.,0.,0.));
#1846=DIRECTION('',(0.,0.,-1.));
#1847=DIRECTION('',(1.,0.,0.));
#1848=DIRECTION('',(0.,0.,1.));
#1849=DIRECTION('',(1.,0.,0.));
#1850=DIRECTION('',(0.,0.,1.));
#1851=DIRECTION('',(1.,0.,0.));
#1852=DIRECTION('',(0.,0.,-1.));
#1853=DIRECTION('',(1.,0.,0.));
#1854=DIRECTION('',(0.,0.,1.));
#1855=DIRECTION('',(1.,0.,0.));
#1856=DIRECTION('',(0.,0.,-1.));
#1857=DIRECTION('',(-1.,0.,0.));
#1858=DIRECTION('',(0.,0.,-1.));
#1859=DIRECTION('',(-1.,0.,0.));
#1860=DIRECTION('',(0.,0.,-1.));
#1861=DIRECTION('',(-1.,0.,0.));
#1862=DIRECTION('',(0.,-1.,0.));
#1863=DIRECTION('',(0.,0.,-1.));
#1864=DIRECTION('',(0.,1.,0.));
#1865=DIRECTION('',(0.,0.,1.));
#1866=CARTESIAN_POINT('',(0.,0.,0.));
#1867=CARTESIAN_POINT('',(0.0625,0.0425,0.003));
#1868=CARTESIAN_POINT('',(0.116,0.03525,0.003));
#1869=CARTESIAN_POINT('',(0.11685,0.03525,0.003));
#1870=CARTESIAN_POINT('',(0.049,0.03525,0.003));
#1871=CARTESIAN_POINT('',(0.04985,0.03525,0.003));
#1872=CARTESIAN_POINT('',(0.049,0.07525,0.003));
#1873=CARTESIAN_POINT('',(0.04985,0.07525,0.003));
#1874=CARTESIAN_POINT('',(0.0945,0.0755,0.003));
#1875=CARTESIAN_POINT('',(0.0945,0.074,0.003));
#1876=CARTESIAN_POINT('',(0.0945,0.077,0.003));
#1877=CARTESIAN_POINT('',(0.0625,0.074,0.003));
#1878=CARTESIAN_POINT('',(0.114,0.074,0.003));
#1879=CARTESIAN_POINT('',(0.114,0.0425,0.003));
#1880=CARTESIAN_POINT('',(0.114,0.034,0.003));
#1881=CARTESIAN_POINT('',(0.0625,0.034,0.003));
#1882=CARTESIAN_POINT('',(0.051,0.034,0.003));
#1883=CARTESIAN_POINT('',(0.051,0.0425,0.003));
#1884=CARTESIAN_POINT('',(0.051,0.074,0.003));
#1885=CARTESIAN_POINT('',(0.0625,0.074,0.003));
#1886=CARTESIAN_POINT('',(0.0705,0.074,0.003));
#1887=CARTESIAN_POINT('',(0.0705,0.0755,0.003));
#1888=CARTESIAN_POINT('',(0.0705,0.077,0.003));
#1889=CARTESIAN_POINT('',(0.1185,0.077,0.003));
#1890=CARTESIAN_POINT('',(0.046,0.077,0.003));
#1891=CARTESIAN_POINT('',(0.046,0.0755,0.003));
#1892=CARTESIAN_POINT('',(0.046,0.032,0.003));
#1893=CARTESIAN_POINT('',(0.0505,0.032,0.003));
#1894=CARTESIAN_POINT('',(0.119,0.032,0.003));
#1895=CARTESIAN_POINT('',(0.119,0.033,0.003));
#1896=CARTESIAN_POINT('',(0.119,0.077,0.003));
#1897=CARTESIAN_POINT('',(0.1185,0.077,0.003));
#1898=CARTESIAN_POINT('',(0.116,0.07525,0.003));
#1899=CARTESIAN_POINT('',(0.11685,0.07525,0.003));
#1900=CARTESIAN_POINT('',(0.0825,0.074,0.025));
#1901=CARTESIAN_POINT('',(0.0625,0.074,0.001));
#1902=CARTESIAN_POINT('',(0.0705,0.074,0.001));
#1903=CARTESIAN_POINT('',(0.0945,0.074,0.001));
#1904=CARTESIAN_POINT('',(0.0705,0.074,0.001));
#1905=CARTESIAN_POINT('',(0.051,0.074,0.025));
#1906=CARTESIAN_POINT('',(0.051,0.074,0.));
#1907=CARTESIAN_POINT('',(0.0825,0.074,0.));
#1908=CARTESIAN_POINT('',(0.114,0.074,0.));
#1909=CARTESIAN_POINT('',(0.114,0.074,0.025));
#1910=CARTESIAN_POINT('',(0.0945,0.074,0.001));
#1911=CARTESIAN_POINT('',(0.0625,0.0425,0.004));
#1912=CARTESIAN_POINT('',(0.1025,0.017,0.004));
#1913=CARTESIAN_POINT('',(0.1085,0.017,0.004));
#1914=CARTESIAN_POINT('',(0.0625,0.017,0.004));
#1915=CARTESIAN_POINT('',(0.0685,0.017,0.004));
#1916=CARTESIAN_POINT('',(0.0225,0.017,0.004));
#1917=CARTESIAN_POINT('',(0.0285,0.017,0.004));
#1918=CARTESIAN_POINT('',(0.121,0.0425,0.004));
#1919=CARTESIAN_POINT('',(0.121,0.081,0.004));
#1920=CARTESIAN_POINT('',(0.121,0.004,0.004));
#1921=CARTESIAN_POINT('',(0.0625,0.081,0.004));
#1922=CARTESIAN_POINT('',(0.004,0.081,0.004));
#1923=CARTESIAN_POINT('',(0.004,0.0425,0.004));
#1924=CARTESIAN_POINT('',(0.004,0.004,0.004));
#1925=CARTESIAN_POINT('',(0.0625,0.004,0.004));
#1926=CARTESIAN_POINT('',(0.119,0.033,0.004));
#1927=CARTESIAN_POINT('',(0.119,0.077,0.004));
#1928=CARTESIAN_POINT('',(0.119,0.032,0.004));
#1929=CARTESIAN_POINT('',(0.0505,0.032,0.004));
#1930=CARTESIAN_POINT('',(0.046,0.032,0.004));
#1931=CARTESIAN_POINT('',(0.046,0.0755,0.004));
#1932=CARTESIAN_POINT('',(0.046,0.077,0.004));
#1933=CARTESIAN_POINT('',(0.1185,0.077,0.004));
#1934=CARTESIAN_POINT('',(0.114,0.054,0.025));
#1935=CARTESIAN_POINT('',(0.114,0.054,0.));
#1936=CARTESIAN_POINT('',(0.114,0.034,0.));
#1937=CARTESIAN_POINT('',(0.114,0.034,0.025));
#1938=CARTESIAN_POINT('',(0.0825,0.034,0.025));
#1939=CARTESIAN_POINT('',(0.0825,0.034,0.));
#1940=CARTESIAN_POINT('',(0.051,0.034,0.));
#1941=CARTESIAN_POINT('',(0.051,0.034,0.025));
#1942=CARTESIAN_POINT('',(0.051,0.054,0.025));
#1943=CARTESIAN_POINT('',(0.051,0.054,0.));
#1944=CARTESIAN_POINT('',(0.0625,0.0425,0.));
#1945=CARTESIAN_POINT('',(0.1025,0.017,0.));
#1946=CARTESIAN_POINT('',(0.0965,0.017,0.));
#1947=CARTESIAN_POINT('',(0.0625,0.017,0.));
#1948=CARTESIAN_POINT('',(0.0565,0.017,0.));
#1949=CARTESIAN_POINT('',(0.0225,0.017,0.));
#1950=CARTESIAN_POINT('',(0.0165,0.017,0.));
#1951=CARTESIAN_POINT('',(0.,0.0425,0.));
#1952=CARTESIAN_POINT('',(0.,0.002,0.));
#1953=CARTESIAN_POINT('',(0.,0.083,0.));
#1954=CARTESIAN_POINT('',(0.002,0.083,0.));
#1955=CARTESIAN_POINT('',(0.002,0.085,0.));
#1956=CARTESIAN_POINT('',(0.0625,0.085,0.));
#1957=CARTESIAN_POINT('',(0.123,0.085,0.));
#1958=CARTESIAN_POINT('',(0.123,0.083,0.));
#1959=CARTESIAN_POINT('',(0.125,0.083,0.));
#1960=CARTESIAN_POINT('',(0.125,0.0425,0.));
#1961=CARTESIAN_POINT('',(0.125,0.002,0.));
#1962=CARTESIAN_POINT('',(0.123,0.002,0.));
#1963=CARTESIAN_POINT('',(0.123,0.,0.));
#1964=CARTESIAN_POINT('',(0.0625,0.,0.));
#1965=CARTESIAN_POINT('',(0.002,0.,0.));
#1966=CARTESIAN_POINT('',(0.002,0.002,0.));
#1967=CARTESIAN_POINT('',(0.0625,0.0425,0.033));
#1968=CARTESIAN_POINT('',(0.006,0.006,0.033));
#1969=CARTESIAN_POINT('',(0.008,0.006,0.033));
#1970=CARTESIAN_POINT('',(0.006,0.079,0.033));
#1971=CARTESIAN_POINT('',(0.008,0.079,0.033));
#1972=CARTESIAN_POINT('',(0.119,0.006,0.033));
#1973=CARTESIAN_POINT('',(0.121,0.006,0.033));
#1974=CARTESIAN_POINT('',(0.119,0.079,0.033));
#1975=CARTESIAN_POINT('',(0.121,0.079,0.033));
#1976=CARTESIAN_POINT('',(0.0625,0.081,0.033));
#1977=CARTESIAN_POINT('',(0.012,0.081,0.033));
#1978=CARTESIAN_POINT('',(0.0295,0.081,0.033));
#1979=CARTESIAN_POINT('',(0.0295,0.06,0.033));
#1980=CARTESIAN_POINT('',(0.0295,0.083,0.033));
#1981=CARTESIAN_POINT('',(0.0625,0.083,0.033));
#1982=CARTESIAN_POINT('',(0.002,0.083,0.033));
#1983=CARTESIAN_POINT('',(0.002,0.0425,0.033));
#1984=CARTESIAN_POINT('',(0.002,0.002,0.033));
#1985=CARTESIAN_POINT('',(0.0625,0.002,0.033));
#1986=CARTESIAN_POINT('',(0.123,0.002,0.033));
#1987=CARTESIAN_POINT('',(0.123,0.0425,0.033));
#1988=CARTESIAN_POINT('',(0.123,0.083,0.033));
#1989=CARTESIAN_POINT('',(0.0625,0.083,0.033));
#1990=CARTESIAN_POINT('',(0.0415,0.083,0.033));
#1991=CARTESIAN_POINT('',(0.0415,0.06,0.033));
#1992=CARTESIAN_POINT('',(0.0415,0.081,0.033));
#1993=CARTESIAN_POINT('',(0.0625,0.081,0.033));
#1994=CARTESIAN_POINT('',(0.113,0.081,0.033));
#1995=CARTESIAN_POINT('',(0.121,0.081,0.033));
#1996=CARTESIAN_POINT('',(0.121,0.073,0.033));
#1997=CARTESIAN_POINT('',(0.121,0.0425,0.033));
#1998=CARTESIAN_POINT('',(0.121,0.012,0.033));
#1999=CARTESIAN_POINT('',(0.121,0.004,0.033));
#2000=CARTESIAN_POINT('',(0.113,0.004,0.033));
#2001=CARTESIAN_POINT('',(0.0625,0.004,0.033));
#2002=CARTESIAN_POINT('',(0.012,0.004,0.033));
#2003=CARTESIAN_POINT('',(0.004,0.004,0.033));
#2004=CARTESIAN_POINT('',(0.004,0.012,0.033));
#2005=CARTESIAN_POINT('',(0.004,0.0425,0.033));
#2006=CARTESIAN_POINT('',(0.004,0.073,0.033));
#2007=CARTESIAN_POINT('',(0.004,0.081,0.033));
#2008=CARTESIAN_POINT('',(0.0625,0.081,0.033));
#2009=CARTESIAN_POINT('',(0.06225,0.081,0.0145));
#2010=CARTESIAN_POINT('',(0.06225,0.081,0.0158));
#2011=CARTESIAN_POINT('',(0.051,0.081,0.0145));
#2012=CARTESIAN_POINT('',(0.051,0.081,0.02225));
#2013=CARTESIAN_POINT('',(0.03125,0.081,0.0145));
#2014=CARTESIAN_POINT('',(0.03125,0.081,0.0158));
#2015=CARTESIAN_POINT('',(0.00875,0.081,0.0145));
#2016=CARTESIAN_POINT('',(0.00875,0.081,0.0158));
#2017=CARTESIAN_POINT('',(0.02,0.081,0.0145));
#2018=CARTESIAN_POINT('',(0.02,0.081,0.02225));
#2019=CARTESIAN_POINT('',(0.03975,0.081,0.0145));
#2020=CARTESIAN_POINT('',(0.03975,0.081,0.0158));
#2021=CARTESIAN_POINT('',(0.0415,0.081,0.033));
#2022=CARTESIAN_POINT('',(0.0415,0.081,0.0225));
#2023=CARTESIAN_POINT('',(0.0405,0.081,0.0225));
#2024=CARTESIAN_POINT('',(0.0405,0.081,0.0215));
#2025=CARTESIAN_POINT('',(0.0625,0.081,0.0215));
#2026=CARTESIAN_POINT('',(0.0305,0.081,0.0215));
#2027=CARTESIAN_POINT('',(0.0305,0.081,0.0225));
#2028=CARTESIAN_POINT('',(0.0295,0.081,0.0225));
#2029=CARTESIAN_POINT('',(0.0295,0.081,0.033));
#2030=CARTESIAN_POINT('',(0.012,0.081,0.033));
#2031=CARTESIAN_POINT('',(0.012,0.081,0.024));
#2032=CARTESIAN_POINT('',(0.0625,0.081,0.024));
#2033=CARTESIAN_POINT('',(0.006,0.081,0.024));
#2034=CARTESIAN_POINT('',(0.0625,0.081,0.024));
#2035=CARTESIAN_POINT('',(0.004,0.081,0.024));
#2036=CARTESIAN_POINT('',(0.004,0.081,0.033));
#2037=CARTESIAN_POINT('',(0.121,0.081,0.033));
#2038=CARTESIAN_POINT('',(0.121,0.081,0.024));
#2039=CARTESIAN_POINT('',(0.0625,0.081,0.024));
#2040=CARTESIAN_POINT('',(0.119,0.081,0.024));
#2041=CARTESIAN_POINT('',(0.0625,0.081,0.024));
#2042=CARTESIAN_POINT('',(0.113,0.081,0.024));
#2043=CARTESIAN_POINT('',(0.113,0.081,0.033));
#2044=CARTESIAN_POINT('',(0.0625,0.083,0.0295));
#2045=CARTESIAN_POINT('',(0.0415,0.083,0.0295));
#2046=CARTESIAN_POINT('',(0.0415,0.083,0.0295));
#2047=CARTESIAN_POINT('',(0.123,0.083,0.0295));
#2048=CARTESIAN_POINT('',(0.123,0.083,0.0295));
#2049=CARTESIAN_POINT('',(0.0625,0.083,0.0295));
#2050=CARTESIAN_POINT('',(0.0625,0.0425,0.0295));
#2051=CARTESIAN_POINT('',(0.0625,0.085,0.0295));
#2052=CARTESIAN_POINT('',(0.0415,0.085,0.0295));
#2053=CARTESIAN_POINT('',(0.123,0.085,0.0295));
#2054=CARTESIAN_POINT('',(0.0415,0.0425,0.0295));
#2055=CARTESIAN_POINT('',(0.123,0.0425,0.0295));
#2056=CARTESIAN_POINT('',(0.123,0.002,0.0295));
#2057=CARTESIAN_POINT('',(0.0625,0.002,0.0295));
#2058=CARTESIAN_POINT('',(0.002,0.002,0.0295));
#2059=CARTESIAN_POINT('',(0.002,0.0425,0.0295));
#2060=CARTESIAN_POINT('',(0.002,0.083,0.0295));
#2061=CARTESIAN_POINT('',(0.0625,0.083,0.0295));
#2062=CARTESIAN_POINT('',(0.0295,0.083,0.0295));
#2063=CARTESIAN_POINT('',(0.0295,0.0425,0.0295));
#2064=CARTESIAN_POINT('',(0.0295,0.085,0.0295));
#2065=CARTESIAN_POINT('',(0.0625,0.085,0.0295));
#2066=CARTESIAN_POINT('',(0.002,0.085,0.0295));
#2067=CARTESIAN_POINT('',(0.002,0.083,0.0295));
#2068=CARTESIAN_POINT('',(0.,0.083,0.0295));
#2069=CARTESIAN_POINT('',(0.,0.0425,0.0295));
#2070=CARTESIAN_POINT('',(0.,0.002,0.0295));
#2071=CARTESIAN_POINT('',(0.002,0.002,0.0295));
#2072=CARTESIAN_POINT('',(0.002,0.,0.0295));
#2073=CARTESIAN_POINT('',(0.0625,0.,0.0295));
#2074=CARTESIAN_POINT('',(0.123,0.,0.0295));
#2075=CARTESIAN_POINT('',(0.123,0.002,0.0295));
#2076=CARTESIAN_POINT('',(0.125,0.002,0.0295));
#2077=CARTESIAN_POINT('',(0.125,0.0425,0.0295));
#2078=CARTESIAN_POINT('',(0.125,0.083,0.0295));
#2079=CARTESIAN_POINT('',(0.123,0.083,0.0295));
#2080=CARTESIAN_POINT('',(0.0625,0.085,0.004));
#2081=CARTESIAN_POINT('',(0.06225,0.085,0.0145));
#2082=CARTESIAN_POINT('',(0.06225,0.085,0.0158));
#2083=CARTESIAN_POINT('',(0.051,0.085,0.0145));
#2084=CARTESIAN_POINT('',(0.051,0.085,0.02225));
#2085=CARTESIAN_POINT('',(0.03125,0.085,0.0145));
#2086=CARTESIAN_POINT('',(0.03125,0.085,0.0158));
#2087=CARTESIAN_POINT('',(0.00875,0.085,0.0145));
#2088=CARTESIAN_POINT('',(0.00875,0.085,0.0158));
#2089=CARTESIAN_POINT('',(0.03975,0.085,0.0145));
#2090=CARTESIAN_POINT('',(0.03975,0.085,0.0158));
#2091=CARTESIAN_POINT('',(0.02,0.085,0.0145));
#2092=CARTESIAN_POINT('',(0.02,0.085,0.02225));
#2093=CARTESIAN_POINT('',(0.0295,0.085,0.02725));
#2094=CARTESIAN_POINT('',(0.0295,0.085,0.0225));
#2095=CARTESIAN_POINT('',(0.0305,0.085,0.0225));
#2096=CARTESIAN_POINT('',(0.0305,0.085,0.0215));
#2097=CARTESIAN_POINT('',(0.0355,0.085,0.0215));
#2098=CARTESIAN_POINT('',(0.0405,0.085,0.0215));
#2099=CARTESIAN_POINT('',(0.0405,0.085,0.0225));
#2100=CARTESIAN_POINT('',(0.0415,0.085,0.0225));
#2101=CARTESIAN_POINT('',(0.0415,0.085,0.02725));
#2102=CARTESIAN_POINT('',(0.123,0.085,0.));
#2103=CARTESIAN_POINT('',(0.002,0.085,0.004));
#2104=CARTESIAN_POINT('',(0.0625,0.0425,0.024));
#2105=CARTESIAN_POINT('',(0.006,0.079,0.024));
#2106=CARTESIAN_POINT('',(0.004,0.079,0.024));
#2107=CARTESIAN_POINT('',(0.004,0.0425,0.024));
#2108=CARTESIAN_POINT('',(0.0625,0.0425,0.024));
#2109=CARTESIAN_POINT('',(0.119,0.079,0.024));
#2110=CARTESIAN_POINT('',(0.121,0.079,0.024));
#2111=CARTESIAN_POINT('',(0.121,0.0425,0.024));
#2112=CARTESIAN_POINT('',(0.121,0.073,0.024));
#2113=CARTESIAN_POINT('',(0.121,0.081,0.024));
#2114=CARTESIAN_POINT('',(0.0625,0.0425,0.024));
#2115=CARTESIAN_POINT('',(0.006,0.006,0.024));
#2116=CARTESIAN_POINT('',(0.006,0.004,0.024));
#2117=CARTESIAN_POINT('',(0.004,0.006,0.024));
#2118=CARTESIAN_POINT('',(0.0625,0.004,0.024));
#2119=CARTESIAN_POINT('',(0.004,0.004,0.024));
#2120=CARTESIAN_POINT('',(0.004,0.0425,0.024));
#2121=CARTESIAN_POINT('',(0.0625,0.0425,0.024));
#2122=CARTESIAN_POINT('',(0.121,0.0425,0.024));
#2123=CARTESIAN_POINT('',(0.121,0.012,0.024));
#2124=CARTESIAN_POINT('',(0.121,0.006,0.024));
#2125=CARTESIAN_POINT('',(0.119,0.006,0.024));
#2126=CARTESIAN_POINT('',(0.119,0.004,0.024));
#2127=CARTESIAN_POINT('',(0.0625,0.004,0.024));
#2128=CARTESIAN_POINT('',(0.113,0.004,0.024));
#2129=CARTESIAN_POINT('',(0.121,0.004,0.024));
#2130=CARTESIAN_POINT('',(0.121,0.0425,0.033));
#2131=CARTESIAN_POINT('',(0.121,0.0425,0.024));
#2132=CARTESIAN_POINT('',(0.121,0.004,0.024));
#2133=CARTESIAN_POINT('',(0.121,0.012,0.033));
#2134=CARTESIAN_POINT('',(0.121,0.073,0.033));
#2135=CARTESIAN_POINT('',(0.121,0.0425,0.024));
#2136=CARTESIAN_POINT('',(0.121,0.004,0.033));
#2137=CARTESIAN_POINT('',(0.0625,0.004,0.033));
#2138=CARTESIAN_POINT('',(0.0625,0.004,0.024));
#2139=CARTESIAN_POINT('',(0.004,0.004,0.033));
#2140=CARTESIAN_POINT('',(0.0625,0.004,0.024));
#2141=CARTESIAN_POINT('',(0.012,0.004,0.024));
#2142=CARTESIAN_POINT('',(0.012,0.004,0.033));
#2143=CARTESIAN_POINT('',(0.113,0.004,0.033));
#2144=CARTESIAN_POINT('',(0.004,0.0425,0.033));
#2145=CARTESIAN_POINT('',(0.004,0.0425,0.024));
#2146=CARTESIAN_POINT('',(0.004,0.073,0.024));
#2147=CARTESIAN_POINT('',(0.004,0.073,0.033));
#2148=CARTESIAN_POINT('',(0.004,0.012,0.033));
#2149=CARTESIAN_POINT('',(0.004,0.012,0.024));
#2150=CARTESIAN_POINT('',(0.004,0.0425,0.024));
#2151=CARTESIAN_POINT('',(0.123,0.0425,0.0295));
#2152=CARTESIAN_POINT('',(0.123,0.002,0.0295));
#2153=CARTESIAN_POINT('',(0.0625,0.002,0.0295));
#2154=CARTESIAN_POINT('',(0.002,0.002,0.0295));
#2155=CARTESIAN_POINT('',(0.002,0.0425,0.0295));
#2156=CARTESIAN_POINT('',(0.002,0.083,0.0295));
#2157=CARTESIAN_POINT('',(0.0625,0.083,0.0295));
#2158=CARTESIAN_POINT('',(0.0295,0.083,0.0295));
#2159=CARTESIAN_POINT('',(0.125,0.0425,0.004));
#2160=CARTESIAN_POINT('',(0.125,0.083,0.0295));
#2161=CARTESIAN_POINT('',(0.125,0.002,0.004));
#2162=CARTESIAN_POINT('',(0.0625,0.,0.004));
#2163=CARTESIAN_POINT('',(0.123,0.,0.004));
#2164=CARTESIAN_POINT('',(0.002,0.,0.));
#2165=CARTESIAN_POINT('',(0.,0.0425,0.004));
#2166=CARTESIAN_POINT('',(0.,0.083,0.004));
#2167=CARTESIAN_POINT('',(0.,0.002,0.0295));
#2168=CARTESIAN_POINT('',(0.002,0.083,0.004));
#2169=CARTESIAN_POINT('',(0.123,0.083,0.004));
#2170=CARTESIAN_POINT('',(0.123,0.002,0.004));
#2171=CARTESIAN_POINT('',(0.002,0.002,0.004));
#2172=CARTESIAN_POINT('',(0.004,0.081,0.033));
#2173=CARTESIAN_POINT('',(0.004,0.081,0.024));
#2174=CARTESIAN_POINT('',(0.0625,0.0425,0.024));
#2175=CARTESIAN_POINT('',(0.006,0.079,0.024));
#2176=CARTESIAN_POINT('',(0.121,0.081,0.033));
#2177=CARTESIAN_POINT('',(0.0625,0.0425,0.024));
#2178=CARTESIAN_POINT('',(0.119,0.079,0.024));
#2179=CARTESIAN_POINT('',(0.004,0.004,0.033));
#2180=CARTESIAN_POINT('',(0.004,0.004,0.024));
#2181=CARTESIAN_POINT('',(0.0625,0.0425,0.024));
#2182=CARTESIAN_POINT('',(0.006,0.006,0.024));
#2183=CARTESIAN_POINT('',(0.121,0.004,0.033));
#2184=CARTESIAN_POINT('',(0.0625,0.0425,0.024));
#2185=CARTESIAN_POINT('',(0.119,0.006,0.024));
#2186=CARTESIAN_POINT('',(0.119,0.006,0.008));
#2187=CARTESIAN_POINT('',(0.006,0.006,0.008));
#2188=CARTESIAN_POINT('',(0.119,0.079,0.008));
#2189=CARTESIAN_POINT('',(0.006,0.079,0.008));
#2190=CARTESIAN_POINT('',(0.02,0.06,0.0145));
#2191=CARTESIAN_POINT('',(0.03975,0.06,0.0145));
#2192=CARTESIAN_POINT('',(0.0415,0.06,0.02725));
#2193=CARTESIAN_POINT('',(0.0415,0.081,0.0225));
#2194=CARTESIAN_POINT('',(0.0295,0.06,0.02725));
#2195=CARTESIAN_POINT('',(0.0295,0.06,0.0225));
#2196=CARTESIAN_POINT('',(0.0355,0.06,0.0215));
#2197=CARTESIAN_POINT('',(0.0405,0.085,0.0215));
#2198=CARTESIAN_POINT('',(0.0305,0.06,0.0215));
#2199=CARTESIAN_POINT('',(0.00875,0.06,0.0145));
#2200=CARTESIAN_POINT('',(0.03125,0.06,0.0145));
#2201=CARTESIAN_POINT('',(0.051,0.06,0.0145));
#2202=CARTESIAN_POINT('',(0.06225,0.06,0.0145));
#2203=CARTESIAN_POINT('',(0.0505,0.032,0.003));
#2204=CARTESIAN_POINT('',(0.119,0.032,0.003));
#2205=CARTESIAN_POINT('',(0.046,0.032,0.003));
#2206=CARTESIAN_POINT('',(0.119,0.033,0.003));
#2207=CARTESIAN_POINT('',(0.119,0.077,0.003));
#2208=CARTESIAN_POINT('',(0.1185,0.077,0.003));
#2209=CARTESIAN_POINT('',(0.046,0.077,0.003));
#2210=CARTESIAN_POINT('',(0.0705,0.077,0.001));
#2211=CARTESIAN_POINT('',(0.0705,0.077,0.001));
#2212=CARTESIAN_POINT('',(0.1185,0.077,0.001));
#2213=CARTESIAN_POINT('',(0.0945,0.077,0.001));
#2214=CARTESIAN_POINT('',(0.0945,0.077,0.001));
#2215=CARTESIAN_POINT('',(0.046,0.0755,0.003));
#2216=CARTESIAN_POINT('',(0.0945,0.0755,0.001));
#2217=CARTESIAN_POINT('',(0.0945,0.0755,0.001));
#2218=CARTESIAN_POINT('',(0.0705,0.0755,0.001));
#2219=CARTESIAN_POINT('',(0.0705,0.0755,0.001));
#2220=CARTESIAN_POINT('',(0.0825,0.0545,0.001));
#2221=CARTESIAN_POINT('',(0.049,0.07525,0.0005));
#2222=CARTESIAN_POINT('',(0.049,0.07525,0.0005));
#2223=CARTESIAN_POINT('',(0.04985,0.07525,0.0005));
#2224=CARTESIAN_POINT('',(0.0825,0.0545,0.0005));
#2225=CARTESIAN_POINT('',(0.049,0.03525,0.0005));
#2226=CARTESIAN_POINT('',(0.049,0.03525,0.0005));
#2227=CARTESIAN_POINT('',(0.04985,0.03525,0.0005));
#2228=CARTESIAN_POINT('',(0.0825,0.0545,0.0005));
#2229=CARTESIAN_POINT('',(0.116,0.03525,0.0005));
#2230=CARTESIAN_POINT('',(0.116,0.03525,0.0005));
#2231=CARTESIAN_POINT('',(0.11685,0.03525,0.0005));
#2232=CARTESIAN_POINT('',(0.0825,0.0545,0.0005));
#2233=CARTESIAN_POINT('',(0.116,0.07525,0.0005));
#2234=CARTESIAN_POINT('',(0.116,0.07525,0.0005));
#2235=CARTESIAN_POINT('',(0.11685,0.07525,0.0005));
#2236=CARTESIAN_POINT('',(0.0825,0.0545,0.0005));
#2237=CARTESIAN_POINT('',(0.0225,0.017,0.025));
#2238=CARTESIAN_POINT('',(0.0625,0.017,0.025));
#2239=CARTESIAN_POINT('',(0.1025,0.017,0.025));
#2240=CARTESIAN_POINT('',(0.0405,0.06,0.0225));
#2241=CARTESIAN_POINT('',(0.0305,0.06,0.0225));
#2242=MECHANICAL_DESIGN_GEOMETRIC_PRESENTATION_REPRESENTATION('',(#1345),
#2243);
#2243=(
GEOMETRIC_REPRESENTATION_CONTEXT(3)
GLOBAL_UNCERTAINTY_ASSIGNED_CONTEXT((#2244))
GLOBAL_UNIT_ASSIGNED_CONTEXT((#2247,#2246,#2245))
REPRESENTATION_CONTEXT('Part 1','TOP_LEVEL_ASSEMBLY_PART')
);
#2244=UNCERTAINTY_MEASURE_WITH_UNIT(LENGTH_MEASURE(1.E-8),#2247,
'DISTANCE_ACCURACY_VALUE','Maximum Tolerance applied to model');
#2245=(
NAMED_UNIT(*)
SI_UNIT($,.STERADIAN.)
SOLID_ANGLE_UNIT()
);
#2246=(
NAMED_UNIT(*)
PLANE_ANGLE_UNIT()
SI_UNIT($,.RADIAN.)
);
#2247=(
LENGTH_UNIT()
NAMED_UNIT(*)
SI_UNIT($,.METRE.)
);
#2248=PRODUCT_DEFINITION_SHAPE('','',#2249);
#2249=PRODUCT_DEFINITION('','',#2251,#2250);
#2250=PRODUCT_DEFINITION_CONTEXT('',#2257,'design');
#2251=PRODUCT_DEFINITION_FORMATION_WITH_SPECIFIED_SOURCE('','',#2253,
 .NOT_KNOWN.);
#2252=PRODUCT_RELATED_PRODUCT_CATEGORY('','',(#2253));
#2253=PRODUCT('Part 1','Part 1','Part 1',(#2255));
#2254=PRODUCT_CATEGORY('','');
#2255=PRODUCT_CONTEXT('',#2257,'mechanical');
#2256=APPLICATION_PROTOCOL_DEFINITION('international standard',
'ap242_managed_model_based_3d_engineering',2020,#2257);
#2257=APPLICATION_CONTEXT('managed model based 3d engineering');
ENDSEC;
END-ISO-10303-21;
