%TF.GenerationSoftware,KiCad,Pcbnew,10.0.5*%
%TF.CreationDate,2026-09-02T15:57:42+02:00*%
%TF.ProjectId,BarSync,42617253-796e-4632-9e6b-696361645f70,rev?*%
%TF.SameCoordinates,Original*%
%TF.FileFunction,Copper,L1,Top*%
%TF.FilePolarity,Positive*%
%FSLAX46Y46*%
G04 Gerber Fmt 4.6, Leading zero omitted, Abs format (unit mm)*
G04 Created by KiCad (PCBNEW 10.0.5) date 2026-09-02 15:57:42*
%MOMM*%
%LPD*%
G01*
G04 APERTURE LIST*
G04 Aperture macros list*
%AMRoundRect*
0 Rectangle with rounded corners*
0 $1 Rounding radius*
0 $2 $3 $4 $5 $6 $7 $8 $9 X,Y pos of 4 corners*
0 Add a 4 corners polygon primitive as box body*
4,1,4,$2,$3,$4,$5,$6,$7,$8,$9,$2,$3,0*
0 Add four circle primitives for the rounded corners*
1,1,$1+$1,$2,$3*
1,1,$1+$1,$4,$5*
1,1,$1+$1,$6,$7*
1,1,$1+$1,$8,$9*
0 Add four rect primitives between the rounded corners*
20,1,$1+$1,$2,$3,$4,$5,0*
20,1,$1+$1,$4,$5,$6,$7,0*
20,1,$1+$1,$6,$7,$8,$9,0*
20,1,$1+$1,$8,$9,$2,$3,0*%
G04 Aperture macros list end*
%TA.AperFunction,ComponentPad*%
%ADD10C,1.600000*%
%TD*%
%TA.AperFunction,ComponentPad*%
%ADD11R,1.700000X1.700000*%
%TD*%
%TA.AperFunction,ComponentPad*%
%ADD12C,1.700000*%
%TD*%
%TA.AperFunction,ComponentPad*%
%ADD13RoundRect,0.250000X-0.550000X-0.550000X0.550000X-0.550000X0.550000X0.550000X-0.550000X0.550000X0*%
%TD*%
%TA.AperFunction,ComponentPad*%
%ADD14O,2.400000X1.800000*%
%TD*%
%TA.AperFunction,ComponentPad*%
%ADD15RoundRect,0.250000X-0.550000X0.550000X-0.550000X-0.550000X0.550000X-0.550000X0.550000X0.550000X0*%
%TD*%
%TA.AperFunction,Conductor*%
%ADD16C,1.000000*%
%TD*%
%TA.AperFunction,Conductor*%
%ADD17C,0.400000*%
%TD*%
%TA.AperFunction,Conductor*%
%ADD18C,0.250000*%
%TD*%
G04 APERTURE END LIST*
D10*
%TO.P,R4,1*%
%TO.N,Net-(J2-Pin_2)*%
X106000000Y-77500000D03*
%TO.P,R4,2*%
%TO.N,Net-(A1-VIN(+5V))*%
X106000000Y-67340000D03*
%TD*%
D11*
%TO.P,J5,1,Pin_1_1*%
%TO.N,Net-(A1-DAC1{slash}ADC2_CH8{slash}D25)*%
X113000000Y-104500000D03*
D12*
%TO.P,J5,2,Pin_2_2*%
%TO.N,GND*%
X113000000Y-101960000D03*
%TD*%
D10*
%TO.P,R2,1*%
%TO.N,Net-(R2-Pad1)*%
X100000000Y-67420000D03*
%TO.P,R2,2*%
%TO.N,GND*%
X100000000Y-77580000D03*
%TD*%
%TO.P,R3,1*%
%TO.N,Net-(A1-D15{slash}ADC2_CH3)*%
X112250000Y-67250000D03*
%TO.P,R3,2*%
%TO.N,Net-(A1-3.3V)*%
X112250000Y-77410000D03*
%TD*%
D11*
%TO.P,J3,1,Pin_1_1*%
%TO.N,Net-(A1-ADC1_CH4{slash}D32)*%
X87000000Y-104500000D03*
D12*
%TO.P,J3,2,Pin_2_2*%
%TO.N,GND*%
X87000000Y-101960000D03*
%TD*%
D10*
%TO.P,C2,1*%
%TO.N,Net-(A1-VIN(+5V))*%
X115500000Y-58500000D03*
%TO.P,C2,2*%
%TO.N,GND*%
X115500000Y-63500000D03*
%TD*%
D13*
%TO.P,U1,1,1_1*%
%TO.N,unconnected-(U1-Pad1)*%
X83000000Y-61570000D03*
D10*
%TO.P,U1,2,2_2*%
%TO.N,Net-(D1-K)*%
X83000000Y-64110000D03*
%TO.P,U1,3,3_3*%
%TO.N,Net-(J1-Pin_2)*%
X83000000Y-66650000D03*
%TO.P,U1,4,4_4*%
%TO.N,unconnected-(U1-Pad4)*%
X83000000Y-69190000D03*
%TO.P,U1,5,5_5*%
%TO.N,GND*%
X90620000Y-69190000D03*
%TO.P,U1,6,6_6*%
%TO.N,Net-(A1-D15{slash}ADC2_CH3)*%
X90620000Y-66650000D03*
%TO.P,U1,7,7_7*%
%TO.N,Net-(R2-Pad1)*%
X90620000Y-64110000D03*
%TO.P,U1,8,8_8*%
%TO.N,Net-(A1-VIN(+5V))*%
X90620000Y-61570000D03*
%TD*%
D14*
%TO.P,A1,1,3.3V_1*%
%TO.N,Net-(A1-3.3V)*%
X136310000Y-63300000D03*
%TO.P,A1,2,GND_2*%
%TO.N,GND*%
X136310000Y-65840000D03*
%TO.P,A1,3,D15/ADC2_CH3_3*%
%TO.N,Net-(A1-D15{slash}ADC2_CH3)*%
X136310000Y-68380000D03*
%TO.P,A1,4,D2/ADC2_CH2_4*%
%TO.N,unconnected-(A1-D2{slash}ADC2_CH2-Pad4)*%
X136310000Y-70920000D03*
%TO.P,A1,5,D4/ADC2_CH0_5*%
%TO.N,Net-(A1-D4{slash}ADC2_CH0)*%
X136310000Y-73460000D03*
%TO.P,A1,6,RX2/GPIO16_6*%
%TO.N,unconnected-(A1-RX2{slash}GPIO16-Pad6)*%
X136310000Y-76000000D03*
%TO.P,A1,7,TX2/GPIO17_7*%
%TO.N,unconnected-(A1-TX2{slash}GPIO17-Pad7)*%
X136310000Y-78540000D03*
%TO.P,A1,8,D5_8*%
%TO.N,Net-(A1-D5)*%
X136310000Y-81080000D03*
%TO.P,A1,9,D18_9*%
%TO.N,Net-(A1-D18)*%
X136310000Y-83620000D03*
%TO.P,A1,10,D19_10*%
%TO.N,unconnected-(A1-D19-Pad10)*%
X136310000Y-86160000D03*
%TO.P,A1,11,D21/SDA_11*%
%TO.N,Net-(A1-D21{slash}SDA)*%
X136310000Y-88700000D03*
%TO.P,A1,12,RX0/GPIO3_12*%
%TO.N,unconnected-(A1-RX0{slash}GPIO3-Pad12)*%
X136310000Y-91240000D03*
%TO.P,A1,13,TX0/GPIO1_13*%
%TO.N,unconnected-(A1-TX0{slash}GPIO1-Pad13)*%
X136310000Y-93780000D03*
%TO.P,A1,14,D22/SCL_14*%
%TO.N,unconnected-(A1-D22{slash}SCL-Pad14)*%
X136310000Y-96320000D03*
%TO.P,A1,15,D23_15*%
%TO.N,Net-(A1-D23)*%
X136310000Y-98860000D03*
%TO.P,A1,16,EN_16*%
%TO.N,unconnected-(A1-EN-Pad16)*%
X161710000Y-98860000D03*
%TO.P,A1,17,ADC1_CH0/VP_17*%
%TO.N,unconnected-(A1-ADC1_CH0{slash}VP-Pad17)*%
X161710000Y-96320000D03*
%TO.P,A1,18,ADC1_CH3/VN_18*%
%TO.N,unconnected-(A1-ADC1_CH3{slash}VN-Pad18)*%
X161710000Y-93780000D03*
%TO.P,A1,19,ADC1_CH6/D34_19*%
%TO.N,unconnected-(A1-ADC1_CH6{slash}D34-Pad19)*%
X161710000Y-91240000D03*
%TO.P,A1,20,ADC1_CH7/D35_20*%
%TO.N,unconnected-(A1-ADC1_CH7{slash}D35-Pad20)*%
X161710000Y-88700000D03*
%TO.P,A1,21,ADC1_CH4/D32_21*%
%TO.N,Net-(A1-ADC1_CH4{slash}D32)*%
X161710000Y-86160000D03*
%TO.P,A1,22,ADC1_CH5/D33_22*%
%TO.N,Net-(A1-ADC1_CH5{slash}D33)*%
X161710000Y-83620000D03*
%TO.P,A1,23,DAC1/ADC2_CH8/D25_23*%
%TO.N,Net-(A1-DAC1{slash}ADC2_CH8{slash}D25)*%
X161710000Y-81080000D03*
%TO.P,A1,24,DAC2/ADC2_CH9/D26_24*%
%TO.N,unconnected-(A1-DAC2{slash}ADC2_CH9{slash}D26-Pad24)*%
X161710000Y-78540000D03*
%TO.P,A1,25,ADC2_CH7/D27_25*%
%TO.N,unconnected-(A1-ADC2_CH7{slash}D27-Pad25)*%
X161710000Y-76000000D03*
%TO.P,A1,26,ADC2_CH6/D14_26*%
%TO.N,unconnected-(A1-ADC2_CH6{slash}D14-Pad26)*%
X161710000Y-73460000D03*
%TO.P,A1,27,ADC2_CH5/D12_27*%
%TO.N,unconnected-(A1-ADC2_CH5{slash}D12-Pad27)*%
X161710000Y-70920000D03*
%TO.P,A1,28,ADC2_CH4/D13_28*%
%TO.N,unconnected-(A1-ADC2_CH4{slash}D13-Pad28)*%
X161710000Y-68380000D03*
%TO.P,A1,29,GND_29*%
%TO.N,GND*%
X161710000Y-65840000D03*
%TO.P,A1,30,VIN(+5V)_30*%
%TO.N,Net-(A1-VIN(+5V))*%
X161710000Y-63300000D03*
%TD*%
D11*
%TO.P,J1,1,Pin_1_1*%
%TO.N,Net-(J1-Pin_1)*%
X98270000Y-87880000D03*
D12*
%TO.P,J1,2,Pin_2_2*%
%TO.N,Net-(J1-Pin_2)*%
X100810000Y-87880000D03*
%TD*%
D11*
%TO.P,J6,1,PIN_1_1*%
%TO.N,GND*%
X114460000Y-94500000D03*
D12*
%TO.P,J6,2,PIN_2_2*%
%TO.N,Net-(A1-3.3V)*%
X117000000Y-94500000D03*
%TO.P,J6,3,PIN_3_3*%
%TO.N,Net-(A1-D18)*%
X119540000Y-94500000D03*
%TO.P,J6,4,PIN_4_4*%
%TO.N,Net-(A1-D23)*%
X122080000Y-94500000D03*
%TO.P,J6,5,PIN_5_5*%
%TO.N,Net-(A1-D4{slash}ADC2_CH0)*%
X124620000Y-94500000D03*
%TO.P,J6,6,PIN_6_6*%
%TO.N,Net-(A1-D21{slash}SDA)*%
X127160000Y-94500000D03*
%TO.P,J6,7,PIN_7_7*%
%TO.N,Net-(A1-D5)*%
X129700000Y-94500000D03*
%TD*%
D10*
%TO.P,C1,1*%
%TO.N,Net-(A1-VIN(+5V))*%
X95250000Y-63000000D03*
%TO.P,C1,2*%
%TO.N,GND*%
X95250000Y-68000000D03*
%TD*%
%TO.P,R1,1*%
%TO.N,Net-(J1-Pin_1)*%
X91890000Y-87880000D03*
%TO.P,R1,2*%
%TO.N,Net-(D1-A)*%
X81730000Y-87880000D03*
%TD*%
D11*
%TO.P,J4,1,Pin_1_1*%
%TO.N,Net-(A1-ADC1_CH5{slash}D33)*%
X100000000Y-104540000D03*
D12*
%TO.P,J4,2,Pin_2_2*%
%TO.N,GND*%
X100000000Y-102000000D03*
%TD*%
D15*
%TO.P,D1,1,K_1*%
%TO.N,Net-(D1-K)*%
X81810000Y-74500000D03*
D10*
%TO.P,D1,2,A_2*%
%TO.N,Net-(D1-A)*%
X81810000Y-82120000D03*
%TD*%
D13*
%TO.P,U2,1,1_1*%
%TO.N,Net-(A1-D15{slash}ADC2_CH3)*%
X121000000Y-61260000D03*
D10*
%TO.P,U2,2,2_2*%
%TO.N,Net-(U2-Pad2)*%
X121000000Y-63800000D03*
%TO.P,U2,3,3_3*%
X121000000Y-66340000D03*
%TO.P,U2,4,4_4*%
%TO.N,Net-(J2-Pin_3)*%
X121000000Y-68880000D03*
%TO.P,U2,5,5_5*%
%TO.N,GND*%
X121000000Y-71420000D03*
%TO.P,U2,6,6_6*%
%TO.N,unconnected-(U2-Pad6)*%
X121000000Y-73960000D03*
%TO.P,U2,7,7_7*%
%TO.N,GND*%
X121000000Y-76500000D03*
%TO.P,U2,8,8_8*%
%TO.N,unconnected-(U2-Pad8)*%
X128620000Y-76500000D03*
%TO.P,U2,9,9_9*%
%TO.N,GND*%
X128620000Y-73960000D03*
%TO.P,U2,10,10_10*%
%TO.N,unconnected-(U2-Pad10)*%
X128620000Y-71420000D03*
%TO.P,U2,11,11_11*%
%TO.N,GND*%
X128620000Y-68880000D03*
%TO.P,U2,12,12_12*%
%TO.N,unconnected-(U2-Pad12)*%
X128620000Y-66340000D03*
%TO.P,U2,13,13_13*%
%TO.N,GND*%
X128620000Y-63800000D03*
%TO.P,U2,14,14_14*%
%TO.N,Net-(A1-VIN(+5V))*%
X128620000Y-61260000D03*
%TD*%
D11*
%TO.P,J2,1,Pin_1_1*%
%TO.N,GND*%
X109730000Y-87880000D03*
D12*
%TO.P,J2,2,Pin_2_2*%
%TO.N,Net-(J2-Pin_2)*%
X112270000Y-87880000D03*
%TO.P,J2,3,Pin_3_3*%
%TO.N,Net-(J2-Pin_3)*%
X114810000Y-87880000D03*
%TD*%
%TO.N,Net-(A1-VIN(+5V))*%
D16*
X105920000Y-67340000D02*
X106000000Y-67340000D01*
X100500000Y-61920000D02*
X105920000Y-67340000D01*
X90620000Y-61570000D02*
X93820000Y-61570000D01*
X100500000Y-58380000D02*
X100500000Y-61920000D01*
X161710000Y-63300000D02*
X161710000Y-59780000D01*
X93310000Y-58380000D02*
X90620000Y-61070000D01*
X93820000Y-61570000D02*
X95250000Y-63000000D01*
X125740000Y-58380000D02*
X100500000Y-58380000D01*
X129440000Y-58250000D02*
X128620000Y-59070000D01*
X90620000Y-61070000D02*
X90620000Y-61570000D01*
%TO.N,Net-(A1-DAC1{slash}ADC2_CH8{slash}D25)*%
D17*
X161710000Y-81080000D02*
X147420000Y-81080000D01*
%TO.N,Net-(A1-VIN(+5V))*%
D16*
X100500000Y-58380000D02*
X93310000Y-58380000D01*
X160180000Y-58250000D02*
X129440000Y-58250000D01*
X128620000Y-61260000D02*
X125740000Y-58380000D01*
%TO.N,Net-(A1-DAC1{slash}ADC2_CH8{slash}D25)*%
D17*
X146500000Y-82000000D02*
X146500000Y-106000000D01*
%TO.N,Net-(J2-Pin_2)*%
X106000000Y-78500000D02*
X112270000Y-84770000D01*
X112270000Y-84770000D02*
X112270000Y-87880000D01*
%TO.N,Net-(A1-VIN(+5V))*%
D16*
X161710000Y-59780000D02*
X160180000Y-58250000D01*
X128620000Y-59070000D02*
X128620000Y-61260000D01*
%TO.N,Net-(J2-Pin_2)*%
D17*
X106000000Y-77500000D02*
X106000000Y-78500000D01*
%TO.N,Net-(A1-DAC1{slash}ADC2_CH8{slash}D25)*%
X115000000Y-107000000D02*
X113000000Y-105000000D01*
X113000000Y-105000000D02*
X113000000Y-104500000D01*
%TO.N,GND*%
D16*
X100000000Y-74690000D02*
X102440000Y-72250000D01*
D17*
X126750000Y-67010000D02*
X126750000Y-63750000D01*
D16*
X163310000Y-65840000D02*
X164250000Y-64900000D01*
X128620000Y-63800000D02*
X132200000Y-63800000D01*
X154500000Y-60750000D02*
X133500000Y-60750000D01*
X133090000Y-65840000D02*
X136310000Y-65840000D01*
X119580000Y-71420000D02*
X117125000Y-73875000D01*
X90620000Y-69190000D02*
X90810000Y-69000000D01*
X109730000Y-87880000D02*
X109730000Y-98690000D01*
X132250000Y-65000000D02*
X133090000Y-65840000D01*
X85607919Y-101920000D02*
X112270000Y-101920000D01*
X161710000Y-65840000D02*
X159590000Y-65840000D01*
X88690000Y-56500000D02*
X86810000Y-58380000D01*
X119750000Y-76500000D02*
X117125000Y-73875000D01*
X87310000Y-68880000D02*
X87310000Y-58880000D01*
X81620000Y-58380000D02*
X78500000Y-61500000D01*
D18*
X132200000Y-63800000D02*
X132250000Y-63750000D01*
D16*
X86810000Y-58380000D02*
X81620000Y-58380000D01*
X109730000Y-98690000D02*
X110270000Y-98690000D01*
D17*
X126750000Y-63750000D02*
X126800000Y-63800000D01*
D16*
X117125000Y-73875000D02*
X115500000Y-72250000D01*
X90810000Y-69000000D02*
X94250000Y-69000000D01*
X78500000Y-61500000D02*
X78500000Y-94812081D01*
D17*
X126790000Y-73960000D02*
X126750000Y-74000000D01*
D16*
X87310000Y-58880000D02*
X86810000Y-58380000D01*
X133500000Y-60750000D02*
X132250000Y-62000000D01*
X132250000Y-63750000D02*
X132250000Y-65000000D01*
X115500000Y-72250000D02*
X115500000Y-63500000D01*
X100000000Y-77580000D02*
X100000000Y-74690000D01*
X90620000Y-69190000D02*
X90310000Y-68880000D01*
X110270000Y-98690000D02*
X114460000Y-94500000D01*
X159590000Y-65840000D02*
X154500000Y-60750000D01*
%TO.N,Net-(A1-DAC1{slash}ADC2_CH8{slash}D25)*%
D17*
X145500000Y-107000000D02*
X115000000Y-107000000D01*
X147420000Y-81080000D02*
X146500000Y-82000000D01*
X146500000Y-106000000D02*
X145500000Y-107000000D01*
%TO.N,GND*%
X128620000Y-68880000D02*
X126880000Y-68880000D01*
D16*
X121000000Y-71420000D02*
X119580000Y-71420000D01*
X90500000Y-69310000D02*
X90500000Y-72000000D01*
X109730000Y-98690000D02*
X113000000Y-101960000D01*
X112270000Y-101920000D02*
X112310000Y-101880000D01*
D17*
X126880000Y-68880000D02*
X126750000Y-68750000D01*
X126800000Y-63800000D02*
X128620000Y-63800000D01*
D16*
X94250000Y-69000000D02*
X95250000Y-68000000D01*
X164250000Y-59500000D02*
X161250000Y-56500000D01*
X90310000Y-68880000D02*
X87310000Y-68880000D01*
X132250000Y-62000000D02*
X132250000Y-63750000D01*
X102440000Y-72250000D02*
X115500000Y-72250000D01*
X90500000Y-72000000D02*
X96080000Y-77580000D01*
D17*
X126750000Y-68750000D02*
X126750000Y-67010000D01*
D16*
X121000000Y-76500000D02*
X119750000Y-76500000D01*
X164250000Y-64900000D02*
X164250000Y-59500000D01*
X90620000Y-69190000D02*
X90500000Y-69310000D01*
D17*
X128620000Y-73960000D02*
X126790000Y-73960000D01*
D16*
X96080000Y-77580000D02*
X100000000Y-77580000D01*
X161250000Y-56500000D02*
X88690000Y-56500000D01*
X78500000Y-94812081D02*
X85607919Y-101920000D01*
D17*
X126750000Y-74000000D02*
X126750000Y-68750000D01*
D16*
X161710000Y-65840000D02*
X163310000Y-65840000D01*
%TO.N,Net-(R2-Pad1)*%
D17*
X100000000Y-64750000D02*
X100000000Y-67420000D01*
X90620000Y-64110000D02*
X94110000Y-64110000D01*
X94750000Y-64750000D02*
X100000000Y-64750000D01*
X94110000Y-64110000D02*
X94750000Y-64750000D01*
%TO.N,Net-(A1-D15{slash}ADC2_CH3)*%
X97750000Y-66000000D02*
X94750000Y-66000000D01*
X132620000Y-68380000D02*
X136310000Y-68380000D01*
X131500000Y-69500000D02*
X132620000Y-68380000D01*
X97750000Y-70250000D02*
X97750000Y-66000000D01*
X130250000Y-80250000D02*
X131500000Y-79000000D01*
X121000000Y-61260000D02*
X112260000Y-61260000D01*
X112250000Y-61250000D02*
X112250000Y-67250000D01*
X125250000Y-63250000D02*
X125250000Y-80250000D01*
X108750000Y-67250000D02*
X108750000Y-70250000D01*
X112250000Y-67250000D02*
X108750000Y-67250000D01*
X123260000Y-61260000D02*
X125250000Y-63250000D01*
X108750000Y-70250000D02*
X97750000Y-70250000D01*
X90720000Y-66750000D02*
X90620000Y-66650000D01*
X94000000Y-66750000D02*
X90720000Y-66750000D01*
X112260000Y-61260000D02*
X112250000Y-61250000D01*
X125250000Y-80250000D02*
X130250000Y-80250000D01*
X121000000Y-61260000D02*
X123260000Y-61260000D01*
X131500000Y-79000000D02*
X131500000Y-69500000D01*
X94750000Y-66000000D02*
X94000000Y-66750000D01*
%TO.N,Net-(A1-ADC1_CH4{slash}D32)*%
X149500000Y-110000000D02*
X92500000Y-110000000D01*
X151500000Y-87000000D02*
X151500000Y-108000000D01*
X151500000Y-108000000D02*
X149500000Y-110000000D01*
X152340000Y-86160000D02*
X151500000Y-87000000D01*
X161710000Y-86160000D02*
X152340000Y-86160000D01*
X92500000Y-110000000D02*
X87000000Y-104500000D01*
%TO.N,Net-(D1-K)*%
X79810000Y-64380000D02*
X79810000Y-71570000D01*
X81810000Y-73570000D02*
X81810000Y-74500000D01*
X83000000Y-64110000D02*
X80080000Y-64110000D01*
X80080000Y-64110000D02*
X79810000Y-64380000D01*
X79810000Y-71570000D02*
X81810000Y-73570000D01*
%TO.N,Net-(J1-Pin_2)*%
X100810000Y-87880000D02*
X100810000Y-84560000D01*
X100810000Y-84560000D02*
X83000000Y-66750000D01*
X83000000Y-66750000D02*
X83000000Y-66650000D01*
%TO.N,Net-(A1-3.3V)*%
X117000000Y-103250000D02*
X117750000Y-104000000D01*
X117000000Y-94500000D02*
X116750000Y-94250000D01*
X114500000Y-77410000D02*
X119250000Y-82160000D01*
X140500000Y-103500000D02*
X140500000Y-64250000D01*
X119250000Y-82160000D02*
X119250000Y-92250000D01*
X117750000Y-104000000D02*
X140000000Y-104000000D01*
X117000000Y-94500000D02*
X117000000Y-103250000D01*
X139550000Y-63300000D02*
X136310000Y-63300000D01*
X140000000Y-104000000D02*
X140500000Y-103500000D01*
X112250000Y-77410000D02*
X114500000Y-77410000D01*
X119250000Y-92250000D02*
X117000000Y-94500000D01*
X136310000Y-63300000D02*
X136310000Y-63380000D01*
X140500000Y-64250000D02*
X139550000Y-63300000D01*
%TO.N,Net-(A1-D4{slash}ADC2_CH0)*%
X133250000Y-80000000D02*
X133250000Y-74625000D01*
X134415000Y-73460000D02*
X136310000Y-73460000D01*
X133250000Y-74625000D02*
X134415000Y-73460000D01*
X124620000Y-94500000D02*
X124620000Y-88630000D01*
X124620000Y-88630000D02*
X133250000Y-80000000D01*
%TO.N,Net-(A1-D5)*%
X129700000Y-94500000D02*
X129700000Y-86300000D01*
X129700000Y-86300000D02*
X134920000Y-81080000D01*
X136310000Y-81080000D02*
X136310000Y-81380000D01*
X134920000Y-81080000D02*
X136310000Y-81080000D01*
%TO.N,Net-(A1-D18)*%
X138500000Y-84250000D02*
X138500000Y-102500000D01*
X136310000Y-83620000D02*
X136310000Y-83560000D01*
X119540000Y-101790000D02*
X120250000Y-102500000D01*
X136310000Y-83560000D02*
X136250000Y-83500000D01*
X137750000Y-83500000D02*
X138500000Y-84250000D01*
X120250000Y-102500000D02*
X138500000Y-102500000D01*
X119540000Y-94500000D02*
X119540000Y-101790000D01*
X136250000Y-83500000D02*
X137750000Y-83500000D01*
%TO.N,Net-(A1-D21{slash}SDA)*%
X133000000Y-98250000D02*
X133000000Y-92010000D01*
X133000000Y-92010000D02*
X136310000Y-88700000D01*
X127160000Y-97660000D02*
X127750000Y-98250000D01*
X127750000Y-98250000D02*
X133000000Y-98250000D01*
X127160000Y-94500000D02*
X127160000Y-97660000D01*
%TO.N,Net-(A1-D23)*%
X134170000Y-101000000D02*
X136310000Y-98860000D01*
X122080000Y-100330000D02*
X122750000Y-101000000D01*
X122080000Y-94500000D02*
X122080000Y-100330000D01*
X122750000Y-101000000D02*
X134170000Y-101000000D01*
%TO.N,Net-(A1-ADC1_CH5{slash}D33)*%
X147000000Y-108500000D02*
X103960000Y-108500000D01*
X149000000Y-84500000D02*
X149000000Y-106500000D01*
X149880000Y-83620000D02*
X149000000Y-84500000D01*
X161710000Y-83620000D02*
X149880000Y-83620000D01*
X149000000Y-106500000D02*
X147000000Y-108500000D01*
X103960000Y-108500000D02*
X100000000Y-104540000D01*
%TO.N,Net-(J1-Pin_1)*%
X91890000Y-87880000D02*
X98270000Y-87880000D01*
%TO.N,Net-(D1-A)*%
X81810000Y-82120000D02*
X81810000Y-87800000D01*
X81810000Y-87800000D02*
X81730000Y-87880000D01*
%TO.N,Net-(U2-Pad2)*%
X121000000Y-63800000D02*
X117950000Y-63800000D01*
X117840000Y-66340000D02*
X121000000Y-66340000D01*
X117950000Y-63800000D02*
X117500000Y-64250000D01*
X117500000Y-66000000D02*
X117840000Y-66340000D01*
X117500000Y-64250000D02*
X117500000Y-66000000D01*
%TO.N,Net-(J2-Pin_3)*%
X108750000Y-78750000D02*
X108750000Y-74250000D01*
X108750000Y-74250000D02*
X114500000Y-74250000D01*
X120500000Y-80250000D02*
X124000000Y-80250000D01*
X114810000Y-87880000D02*
X114810000Y-84810000D01*
X114500000Y-74250000D02*
X120500000Y-80250000D01*
X124000000Y-80250000D02*
X124000000Y-70000000D01*
X122880000Y-68880000D02*
X121000000Y-68880000D01*
X124000000Y-70000000D02*
X122880000Y-68880000D01*
X114810000Y-84810000D02*
X108750000Y-78750000D01*
%TD*%
M02*
