%TF.GenerationSoftware,KiCad,Pcbnew,10.0.5*%
%TF.CreationDate,2026-09-05T16:22:57+02:00*%
%TF.ProjectId,BarSync,42617253-796e-4632-9e6b-696361645f70,rev?*%
%TF.SameCoordinates,Original*%
%TF.FileFunction,Soldermask,Bot*%
%TF.FilePolarity,Negative*%
%FSLAX46Y46*%
G04 Gerber Fmt 4.6, Leading zero omitted, Abs format (unit mm)*
G04 Created by KiCad (PCBNEW 10.0.5) date 2026-09-05 16:22:57*
%MOMM*%
%LPD*%
G01*
G04 APERTURE LIST*
G04 Aperture macros list*
%AMRoundRect*
0 Rectangle with rounded corners*
0 $1 Rounding radius*
0 $2 $3 $4 $5 $6 $7 $8 $9 X,Y pos of 4 corners*
0 Add a 4 corners polygon primitive as box body*
4,1,4,$2,$3,$4,$5,$6,$7,$8,$9,$2,$3,0*
0 Add four circle primitives for the rounded corners*
1,1,$1+$1,$2,$3*
1,1,$1+$1,$4,$5*
1,1,$1+$1,$6,$7*
1,1,$1+$1,$8,$9*
0 Add four rect primitives between the rounded corners*
20,1,$1+$1,$2,$3,$4,$5,0*
20,1,$1+$1,$4,$5,$6,$7,0*
20,1,$1+$1,$6,$7,$8,$9,0*
20,1,$1+$1,$8,$9,$2,$3,0*%
G04 Aperture macros list end*
%ADD10C,1.600000*%
%ADD11R,1.700000X1.700000*%
%ADD12C,1.700000*%
%ADD13C,2.200000*%
%ADD14RoundRect,0.250000X-0.550000X-0.550000X0.550000X-0.550000X0.550000X0.550000X-0.550000X0.550000X0*%
%ADD15O,2.400000X1.800000*%
%ADD16RoundRect,0.250000X-0.550000X0.550000X-0.550000X-0.550000X0.550000X-0.550000X0.550000X0.550000X0*%
G04 APERTURE END LIST*
D10*
%TO.C,R4*%
X106000000Y-77500000D03*
X106000000Y-67340000D03*
%TD*%
D11*
%TO.C,J5*%
X113000000Y-104500000D03*
D12*
X113000000Y-101960000D03*
%TD*%
D10*
%TO.C,R2*%
X100000000Y-67420000D03*
X100000000Y-77580000D03*
%TD*%
%TO.C,R3*%
X112250000Y-67250000D03*
X112250000Y-77410000D03*
%TD*%
D11*
%TO.C,J3*%
X87000000Y-104500000D03*
D12*
X87000000Y-101960000D03*
%TD*%
D13*
%TO.C,REF\u002A\u002A*%
X167000000Y-112500000D03*
%TD*%
D10*
%TO.C,C2*%
X115500000Y-58500000D03*
X115500000Y-63500000D03*
%TD*%
D14*
%TO.C,U1*%
X83000000Y-61570000D03*
D10*
X83000000Y-64110000D03*
X83000000Y-66650000D03*
X83000000Y-69190000D03*
X90620000Y-69190000D03*
X90620000Y-66650000D03*
X90620000Y-64110000D03*
X90620000Y-61570000D03*
%TD*%
D15*
%TO.C,A1*%
X136310000Y-63300000D03*
X136310000Y-65840000D03*
X136310000Y-68380000D03*
X136310000Y-70920000D03*
X136310000Y-73460000D03*
X136310000Y-76000000D03*
X136310000Y-78540000D03*
X136310000Y-81080000D03*
X136310000Y-83620000D03*
X136310000Y-86160000D03*
X136310000Y-88700000D03*
X136310000Y-91240000D03*
X136310000Y-93780000D03*
X136310000Y-96320000D03*
X136310000Y-98860000D03*
X161710000Y-98860000D03*
X161710000Y-96320000D03*
X161710000Y-93780000D03*
X161710000Y-91240000D03*
X161710000Y-88700000D03*
X161710000Y-86160000D03*
X161710000Y-83620000D03*
X161710000Y-81080000D03*
X161710000Y-78540000D03*
X161710000Y-76000000D03*
X161710000Y-73460000D03*
X161710000Y-70920000D03*
X161710000Y-68380000D03*
X161710000Y-65840000D03*
X161710000Y-63300000D03*
%TD*%
D13*
%TO.C,REF\u002A\u002A*%
X167000000Y-57500000D03*
%TD*%
D11*
%TO.C,J1*%
X98270000Y-87880000D03*
D12*
X100810000Y-87880000D03*
%TD*%
D11*
%TO.C,J6*%
X114460000Y-94500000D03*
D12*
X117000000Y-94500000D03*
X119540000Y-94500000D03*
X122080000Y-94500000D03*
X124620000Y-94500000D03*
X127160000Y-94500000D03*
X129700000Y-94500000D03*
%TD*%
D10*
%TO.C,C1*%
X95250000Y-63000000D03*
X95250000Y-68000000D03*
%TD*%
%TO.C,R1*%
X91890000Y-87880000D03*
X81730000Y-87880000D03*
%TD*%
D13*
%TO.C,REF\u002A\u002A*%
X77000000Y-112500000D03*
%TD*%
D11*
%TO.C,J4*%
X100000000Y-104540000D03*
D12*
X100000000Y-102000000D03*
%TD*%
D16*
%TO.C,D1*%
X81810000Y-74500000D03*
D10*
X81810000Y-82120000D03*
%TD*%
D14*
%TO.C,U2*%
X121000000Y-61260000D03*
D10*
X121000000Y-63800000D03*
X121000000Y-66340000D03*
X121000000Y-68880000D03*
X121000000Y-71420000D03*
X121000000Y-73960000D03*
X121000000Y-76500000D03*
X128620000Y-76500000D03*
X128620000Y-73960000D03*
X128620000Y-71420000D03*
X128620000Y-68880000D03*
X128620000Y-66340000D03*
X128620000Y-63800000D03*
X128620000Y-61260000D03*
%TD*%
D13*
%TO.C,REF\u002A\u002A*%
X77000000Y-57500000D03*
%TD*%
D11*
%TO.C,J2*%
X109730000Y-87880000D03*
D12*
X112270000Y-87880000D03*
X114810000Y-87880000D03*
%TD*%
M02*
