%TF.GenerationSoftware,KiCad,Pcbnew,10.0.5*%
%TF.CreationDate,2026-09-02T15:57:42+02:00*%
%TF.ProjectId,BarSync,42617253-796e-4632-9e6b-696361645f70,rev?*%
%TF.SameCoordinates,Original*%
%TF.FileFunction,Legend,Top*%
%TF.FilePolarity,Positive*%
%FSLAX46Y46*%
G04 Gerber Fmt 4.6, Leading zero omitted, Abs format (unit mm)*
G04 Created by KiCad (PCBNEW 10.0.5) date 2026-09-02 15:57:42*
%MOMM*%
%LPD*%
G01*
G04 APERTURE LIST*
%ADD10C,0.150000*%
%ADD11C,0.120000*%
%ADD12C,0.170000*%
%ADD13C,0.200000*%
%ADD14C,0.400000*%
%ADD15C,0.500000*%
G04 APERTURE END LIST*
D10*
X82920112Y-112346009D02*
X83062969Y-112393628D01*
X83062969Y-112393628D02*
X83110588Y-112441247D01*
X83110588Y-112441247D02*
X83158207Y-112536485D01*
X83158207Y-112536485D02*
X83158207Y-112679342D01*
X83158207Y-112679342D02*
X83110588Y-112774580D01*
X83110588Y-112774580D02*
X83062969Y-112822200D01*
X83062969Y-112822200D02*
X82967731Y-112869819D01*
X82967731Y-112869819D02*
X82586779Y-112869819D01*
X82586779Y-112869819D02*
X82586779Y-111869819D01*
X82586779Y-111869819D02*
X82920112Y-111869819D01*
X82920112Y-111869819D02*
X83015350Y-111917438D01*
X83015350Y-111917438D02*
X83062969Y-111965057D01*
X83062969Y-111965057D02*
X83110588Y-112060295D01*
X83110588Y-112060295D02*
X83110588Y-112155533D01*
X83110588Y-112155533D02*
X83062969Y-112250771D01*
X83062969Y-112250771D02*
X83015350Y-112298390D01*
X83015350Y-112298390D02*
X82920112Y-112346009D01*
X82920112Y-112346009D02*
X82586779Y-112346009D01*
X84015350Y-112869819D02*
X84015350Y-112346009D01*
X84015350Y-112346009D02*
X83967731Y-112250771D01*
X83967731Y-112250771D02*
X83872493Y-112203152D01*
X83872493Y-112203152D02*
X83682017Y-112203152D01*
X83682017Y-112203152D02*
X83586779Y-112250771D01*
X84015350Y-112822200D02*
X83920112Y-112869819D01*
X83920112Y-112869819D02*
X83682017Y-112869819D01*
X83682017Y-112869819D02*
X83586779Y-112822200D01*
X83586779Y-112822200D02*
X83539160Y-112726961D01*
X83539160Y-112726961D02*
X83539160Y-112631723D01*
X83539160Y-112631723D02*
X83586779Y-112536485D01*
X83586779Y-112536485D02*
X83682017Y-112488866D01*
X83682017Y-112488866D02*
X83920112Y-112488866D01*
X83920112Y-112488866D02*
X84015350Y-112441247D01*
X84491541Y-112869819D02*
X84491541Y-112203152D01*
X84491541Y-112393628D02*
X84539160Y-112298390D01*
X84539160Y-112298390D02*
X84586779Y-112250771D01*
X84586779Y-112250771D02*
X84682017Y-112203152D01*
X84682017Y-112203152D02*
X84777255Y-112203152D01*
X85062970Y-112822200D02*
X85205827Y-112869819D01*
X85205827Y-112869819D02*
X85443922Y-112869819D01*
X85443922Y-112869819D02*
X85539160Y-112822200D01*
X85539160Y-112822200D02*
X85586779Y-112774580D01*
X85586779Y-112774580D02*
X85634398Y-112679342D01*
X85634398Y-112679342D02*
X85634398Y-112584104D01*
X85634398Y-112584104D02*
X85586779Y-112488866D01*
X85586779Y-112488866D02*
X85539160Y-112441247D01*
X85539160Y-112441247D02*
X85443922Y-112393628D01*
X85443922Y-112393628D02*
X85253446Y-112346009D01*
X85253446Y-112346009D02*
X85158208Y-112298390D01*
X85158208Y-112298390D02*
X85110589Y-112250771D01*
X85110589Y-112250771D02*
X85062970Y-112155533D01*
X85062970Y-112155533D02*
X85062970Y-112060295D01*
X85062970Y-112060295D02*
X85110589Y-111965057D01*
X85110589Y-111965057D02*
X85158208Y-111917438D01*
X85158208Y-111917438D02*
X85253446Y-111869819D01*
X85253446Y-111869819D02*
X85491541Y-111869819D01*
X85491541Y-111869819D02*
X85634398Y-111917438D01*
X85967732Y-112203152D02*
X86205827Y-112869819D01*
X86443922Y-112203152D02*
X86205827Y-112869819D01*
X86205827Y-112869819D02*
X86110589Y-113107914D01*
X86110589Y-113107914D02*
X86062970Y-113155533D01*
X86062970Y-113155533D02*
X85967732Y-113203152D01*
X86824875Y-112203152D02*
X86824875Y-112869819D01*
X86824875Y-112298390D02*
X86872494Y-112250771D01*
X86872494Y-112250771D02*
X86967732Y-112203152D01*
X86967732Y-112203152D02*
X87110589Y-112203152D01*
X87110589Y-112203152D02*
X87205827Y-112250771D01*
X87205827Y-112250771D02*
X87253446Y-112346009D01*
X87253446Y-112346009D02*
X87253446Y-112869819D01*
X88158208Y-112822200D02*
X88062970Y-112869819D01*
X88062970Y-112869819D02*
X87872494Y-112869819D01*
X87872494Y-112869819D02*
X87777256Y-112822200D01*
X87777256Y-112822200D02*
X87729637Y-112774580D01*
X87729637Y-112774580D02*
X87682018Y-112679342D01*
X87682018Y-112679342D02*
X87682018Y-112393628D01*
X87682018Y-112393628D02*
X87729637Y-112298390D01*
X87729637Y-112298390D02*
X87777256Y-112250771D01*
X87777256Y-112250771D02*
X87872494Y-112203152D01*
X87872494Y-112203152D02*
X88062970Y-112203152D01*
X88062970Y-112203152D02*
X88158208Y-112250771D01*
X89348685Y-112488866D02*
X90110590Y-112488866D01*
X91348685Y-112869819D02*
X91348685Y-111869819D01*
X91348685Y-111869819D02*
X91682018Y-112584104D01*
X91682018Y-112584104D02*
X92015351Y-111869819D01*
X92015351Y-111869819D02*
X92015351Y-112869819D01*
X92491542Y-112869819D02*
X92491542Y-111869819D01*
X92967732Y-112869819D02*
X92967732Y-111869819D01*
X92967732Y-111869819D02*
X93205827Y-111869819D01*
X93205827Y-111869819D02*
X93348684Y-111917438D01*
X93348684Y-111917438D02*
X93443922Y-112012676D01*
X93443922Y-112012676D02*
X93491541Y-112107914D01*
X93491541Y-112107914D02*
X93539160Y-112298390D01*
X93539160Y-112298390D02*
X93539160Y-112441247D01*
X93539160Y-112441247D02*
X93491541Y-112631723D01*
X93491541Y-112631723D02*
X93443922Y-112726961D01*
X93443922Y-112726961D02*
X93348684Y-112822200D01*
X93348684Y-112822200D02*
X93205827Y-112869819D01*
X93205827Y-112869819D02*
X92967732Y-112869819D01*
X93967732Y-112869819D02*
X93967732Y-111869819D01*
X95777255Y-112774580D02*
X95729636Y-112822200D01*
X95729636Y-112822200D02*
X95586779Y-112869819D01*
X95586779Y-112869819D02*
X95491541Y-112869819D01*
X95491541Y-112869819D02*
X95348684Y-112822200D01*
X95348684Y-112822200D02*
X95253446Y-112726961D01*
X95253446Y-112726961D02*
X95205827Y-112631723D01*
X95205827Y-112631723D02*
X95158208Y-112441247D01*
X95158208Y-112441247D02*
X95158208Y-112298390D01*
X95158208Y-112298390D02*
X95205827Y-112107914D01*
X95205827Y-112107914D02*
X95253446Y-112012676D01*
X95253446Y-112012676D02*
X95348684Y-111917438D01*
X95348684Y-111917438D02*
X95491541Y-111869819D01*
X95491541Y-111869819D02*
X95586779Y-111869819D01*
X95586779Y-111869819D02*
X95729636Y-111917438D01*
X95729636Y-111917438D02*
X95777255Y-111965057D01*
X96348684Y-112869819D02*
X96253446Y-112822200D01*
X96253446Y-112822200D02*
X96205827Y-112726961D01*
X96205827Y-112726961D02*
X96205827Y-111869819D01*
X96872494Y-112869819D02*
X96777256Y-112822200D01*
X96777256Y-112822200D02*
X96729637Y-112774580D01*
X96729637Y-112774580D02*
X96682018Y-112679342D01*
X96682018Y-112679342D02*
X96682018Y-112393628D01*
X96682018Y-112393628D02*
X96729637Y-112298390D01*
X96729637Y-112298390D02*
X96777256Y-112250771D01*
X96777256Y-112250771D02*
X96872494Y-112203152D01*
X96872494Y-112203152D02*
X97015351Y-112203152D01*
X97015351Y-112203152D02*
X97110589Y-112250771D01*
X97110589Y-112250771D02*
X97158208Y-112298390D01*
X97158208Y-112298390D02*
X97205827Y-112393628D01*
X97205827Y-112393628D02*
X97205827Y-112679342D01*
X97205827Y-112679342D02*
X97158208Y-112774580D01*
X97158208Y-112774580D02*
X97110589Y-112822200D01*
X97110589Y-112822200D02*
X97015351Y-112869819D01*
X97015351Y-112869819D02*
X96872494Y-112869819D01*
X98062970Y-112822200D02*
X97967732Y-112869819D01*
X97967732Y-112869819D02*
X97777256Y-112869819D01*
X97777256Y-112869819D02*
X97682018Y-112822200D01*
X97682018Y-112822200D02*
X97634399Y-112774580D01*
X97634399Y-112774580D02*
X97586780Y-112679342D01*
X97586780Y-112679342D02*
X97586780Y-112393628D01*
X97586780Y-112393628D02*
X97634399Y-112298390D01*
X97634399Y-112298390D02*
X97682018Y-112250771D01*
X97682018Y-112250771D02*
X97777256Y-112203152D01*
X97777256Y-112203152D02*
X97967732Y-112203152D01*
X97967732Y-112203152D02*
X98062970Y-112250771D01*
X98491542Y-112869819D02*
X98491542Y-111869819D01*
X98586780Y-112488866D02*
X98872494Y-112869819D01*
X98872494Y-112203152D02*
X98491542Y-112584104D01*
X100396304Y-112346009D02*
X100539161Y-112393628D01*
X100539161Y-112393628D02*
X100586780Y-112441247D01*
X100586780Y-112441247D02*
X100634399Y-112536485D01*
X100634399Y-112536485D02*
X100634399Y-112679342D01*
X100634399Y-112679342D02*
X100586780Y-112774580D01*
X100586780Y-112774580D02*
X100539161Y-112822200D01*
X100539161Y-112822200D02*
X100443923Y-112869819D01*
X100443923Y-112869819D02*
X100062971Y-112869819D01*
X100062971Y-112869819D02*
X100062971Y-111869819D01*
X100062971Y-111869819D02*
X100396304Y-111869819D01*
X100396304Y-111869819D02*
X100491542Y-111917438D01*
X100491542Y-111917438D02*
X100539161Y-111965057D01*
X100539161Y-111965057D02*
X100586780Y-112060295D01*
X100586780Y-112060295D02*
X100586780Y-112155533D01*
X100586780Y-112155533D02*
X100539161Y-112250771D01*
X100539161Y-112250771D02*
X100491542Y-112298390D01*
X100491542Y-112298390D02*
X100396304Y-112346009D01*
X100396304Y-112346009D02*
X100062971Y-112346009D01*
X101491542Y-112869819D02*
X101491542Y-112346009D01*
X101491542Y-112346009D02*
X101443923Y-112250771D01*
X101443923Y-112250771D02*
X101348685Y-112203152D01*
X101348685Y-112203152D02*
X101158209Y-112203152D01*
X101158209Y-112203152D02*
X101062971Y-112250771D01*
X101491542Y-112822200D02*
X101396304Y-112869819D01*
X101396304Y-112869819D02*
X101158209Y-112869819D01*
X101158209Y-112869819D02*
X101062971Y-112822200D01*
X101062971Y-112822200D02*
X101015352Y-112726961D01*
X101015352Y-112726961D02*
X101015352Y-112631723D01*
X101015352Y-112631723D02*
X101062971Y-112536485D01*
X101062971Y-112536485D02*
X101158209Y-112488866D01*
X101158209Y-112488866D02*
X101396304Y-112488866D01*
X101396304Y-112488866D02*
X101491542Y-112441247D01*
X101967733Y-112869819D02*
X101967733Y-112203152D01*
X101967733Y-112393628D02*
X102015352Y-112298390D01*
X102015352Y-112298390D02*
X102062971Y-112250771D01*
X102062971Y-112250771D02*
X102158209Y-112203152D01*
X102158209Y-112203152D02*
X102253447Y-112203152D01*
X103920114Y-112774580D02*
X103872495Y-112822200D01*
X103872495Y-112822200D02*
X103729638Y-112869819D01*
X103729638Y-112869819D02*
X103634400Y-112869819D01*
X103634400Y-112869819D02*
X103491543Y-112822200D01*
X103491543Y-112822200D02*
X103396305Y-112726961D01*
X103396305Y-112726961D02*
X103348686Y-112631723D01*
X103348686Y-112631723D02*
X103301067Y-112441247D01*
X103301067Y-112441247D02*
X103301067Y-112298390D01*
X103301067Y-112298390D02*
X103348686Y-112107914D01*
X103348686Y-112107914D02*
X103396305Y-112012676D01*
X103396305Y-112012676D02*
X103491543Y-111917438D01*
X103491543Y-111917438D02*
X103634400Y-111869819D01*
X103634400Y-111869819D02*
X103729638Y-111869819D01*
X103729638Y-111869819D02*
X103872495Y-111917438D01*
X103872495Y-111917438D02*
X103920114Y-111965057D01*
X104491543Y-112869819D02*
X104396305Y-112822200D01*
X104396305Y-112822200D02*
X104348686Y-112774580D01*
X104348686Y-112774580D02*
X104301067Y-112679342D01*
X104301067Y-112679342D02*
X104301067Y-112393628D01*
X104301067Y-112393628D02*
X104348686Y-112298390D01*
X104348686Y-112298390D02*
X104396305Y-112250771D01*
X104396305Y-112250771D02*
X104491543Y-112203152D01*
X104491543Y-112203152D02*
X104634400Y-112203152D01*
X104634400Y-112203152D02*
X104729638Y-112250771D01*
X104729638Y-112250771D02*
X104777257Y-112298390D01*
X104777257Y-112298390D02*
X104824876Y-112393628D01*
X104824876Y-112393628D02*
X104824876Y-112679342D01*
X104824876Y-112679342D02*
X104777257Y-112774580D01*
X104777257Y-112774580D02*
X104729638Y-112822200D01*
X104729638Y-112822200D02*
X104634400Y-112869819D01*
X104634400Y-112869819D02*
X104491543Y-112869819D01*
X105682019Y-112203152D02*
X105682019Y-112869819D01*
X105253448Y-112203152D02*
X105253448Y-112726961D01*
X105253448Y-112726961D02*
X105301067Y-112822200D01*
X105301067Y-112822200D02*
X105396305Y-112869819D01*
X105396305Y-112869819D02*
X105539162Y-112869819D01*
X105539162Y-112869819D02*
X105634400Y-112822200D01*
X105634400Y-112822200D02*
X105682019Y-112774580D01*
X106158210Y-112203152D02*
X106158210Y-112869819D01*
X106158210Y-112298390D02*
X106205829Y-112250771D01*
X106205829Y-112250771D02*
X106301067Y-112203152D01*
X106301067Y-112203152D02*
X106443924Y-112203152D01*
X106443924Y-112203152D02*
X106539162Y-112250771D01*
X106539162Y-112250771D02*
X106586781Y-112346009D01*
X106586781Y-112346009D02*
X106586781Y-112869819D01*
X106920115Y-112203152D02*
X107301067Y-112203152D01*
X107062972Y-111869819D02*
X107062972Y-112726961D01*
X107062972Y-112726961D02*
X107110591Y-112822200D01*
X107110591Y-112822200D02*
X107205829Y-112869819D01*
X107205829Y-112869819D02*
X107301067Y-112869819D01*
X108015353Y-112822200D02*
X107920115Y-112869819D01*
X107920115Y-112869819D02*
X107729639Y-112869819D01*
X107729639Y-112869819D02*
X107634401Y-112822200D01*
X107634401Y-112822200D02*
X107586782Y-112726961D01*
X107586782Y-112726961D02*
X107586782Y-112346009D01*
X107586782Y-112346009D02*
X107634401Y-112250771D01*
X107634401Y-112250771D02*
X107729639Y-112203152D01*
X107729639Y-112203152D02*
X107920115Y-112203152D01*
X107920115Y-112203152D02*
X108015353Y-112250771D01*
X108015353Y-112250771D02*
X108062972Y-112346009D01*
X108062972Y-112346009D02*
X108062972Y-112441247D01*
X108062972Y-112441247D02*
X107586782Y-112536485D01*
X108491544Y-112869819D02*
X108491544Y-112203152D01*
X108491544Y-112393628D02*
X108539163Y-112298390D01*
X108539163Y-112298390D02*
X108586782Y-112250771D01*
X108586782Y-112250771D02*
X108682020Y-112203152D01*
X108682020Y-112203152D02*
X108777258Y-112203152D01*
X110682021Y-112869819D02*
X110634402Y-112869819D01*
X110634402Y-112869819D02*
X110539163Y-112822200D01*
X110539163Y-112822200D02*
X110396306Y-112679342D01*
X110396306Y-112679342D02*
X110158211Y-112393628D01*
X110158211Y-112393628D02*
X110062973Y-112250771D01*
X110062973Y-112250771D02*
X110015354Y-112107914D01*
X110015354Y-112107914D02*
X110015354Y-112012676D01*
X110015354Y-112012676D02*
X110062973Y-111917438D01*
X110062973Y-111917438D02*
X110158211Y-111869819D01*
X110158211Y-111869819D02*
X110205830Y-111869819D01*
X110205830Y-111869819D02*
X110301068Y-111917438D01*
X110301068Y-111917438D02*
X110348687Y-112012676D01*
X110348687Y-112012676D02*
X110348687Y-112060295D01*
X110348687Y-112060295D02*
X110301068Y-112155533D01*
X110301068Y-112155533D02*
X110253449Y-112203152D01*
X110253449Y-112203152D02*
X109967735Y-112393628D01*
X109967735Y-112393628D02*
X109920116Y-112441247D01*
X109920116Y-112441247D02*
X109872497Y-112536485D01*
X109872497Y-112536485D02*
X109872497Y-112679342D01*
X109872497Y-112679342D02*
X109920116Y-112774580D01*
X109920116Y-112774580D02*
X109967735Y-112822200D01*
X109967735Y-112822200D02*
X110062973Y-112869819D01*
X110062973Y-112869819D02*
X110205830Y-112869819D01*
X110205830Y-112869819D02*
X110301068Y-112822200D01*
X110301068Y-112822200D02*
X110348687Y-112774580D01*
X110348687Y-112774580D02*
X110491544Y-112584104D01*
X110491544Y-112584104D02*
X110539163Y-112441247D01*
X110539163Y-112441247D02*
X110539163Y-112346009D01*
X111729640Y-111869819D02*
X112062973Y-112869819D01*
X112062973Y-112869819D02*
X112396306Y-111869819D01*
X112729640Y-112869819D02*
X112729640Y-112203152D01*
X112729640Y-111869819D02*
X112682021Y-111917438D01*
X112682021Y-111917438D02*
X112729640Y-111965057D01*
X112729640Y-111965057D02*
X112777259Y-111917438D01*
X112777259Y-111917438D02*
X112729640Y-111869819D01*
X112729640Y-111869819D02*
X112729640Y-111965057D01*
X113158211Y-112822200D02*
X113253449Y-112869819D01*
X113253449Y-112869819D02*
X113443925Y-112869819D01*
X113443925Y-112869819D02*
X113539163Y-112822200D01*
X113539163Y-112822200D02*
X113586782Y-112726961D01*
X113586782Y-112726961D02*
X113586782Y-112679342D01*
X113586782Y-112679342D02*
X113539163Y-112584104D01*
X113539163Y-112584104D02*
X113443925Y-112536485D01*
X113443925Y-112536485D02*
X113301068Y-112536485D01*
X113301068Y-112536485D02*
X113205830Y-112488866D01*
X113205830Y-112488866D02*
X113158211Y-112393628D01*
X113158211Y-112393628D02*
X113158211Y-112346009D01*
X113158211Y-112346009D02*
X113205830Y-112250771D01*
X113205830Y-112250771D02*
X113301068Y-112203152D01*
X113301068Y-112203152D02*
X113443925Y-112203152D01*
X113443925Y-112203152D02*
X113539163Y-112250771D01*
X114443925Y-112203152D02*
X114443925Y-112869819D01*
X114015354Y-112203152D02*
X114015354Y-112726961D01*
X114015354Y-112726961D02*
X114062973Y-112822200D01*
X114062973Y-112822200D02*
X114158211Y-112869819D01*
X114158211Y-112869819D02*
X114301068Y-112869819D01*
X114301068Y-112869819D02*
X114396306Y-112822200D01*
X114396306Y-112822200D02*
X114443925Y-112774580D01*
X115348687Y-112869819D02*
X115348687Y-112346009D01*
X115348687Y-112346009D02*
X115301068Y-112250771D01*
X115301068Y-112250771D02*
X115205830Y-112203152D01*
X115205830Y-112203152D02*
X115015354Y-112203152D01*
X115015354Y-112203152D02*
X114920116Y-112250771D01*
X115348687Y-112822200D02*
X115253449Y-112869819D01*
X115253449Y-112869819D02*
X115015354Y-112869819D01*
X115015354Y-112869819D02*
X114920116Y-112822200D01*
X114920116Y-112822200D02*
X114872497Y-112726961D01*
X114872497Y-112726961D02*
X114872497Y-112631723D01*
X114872497Y-112631723D02*
X114920116Y-112536485D01*
X114920116Y-112536485D02*
X115015354Y-112488866D01*
X115015354Y-112488866D02*
X115253449Y-112488866D01*
X115253449Y-112488866D02*
X115348687Y-112441247D01*
X115967735Y-112869819D02*
X115872497Y-112822200D01*
X115872497Y-112822200D02*
X115824878Y-112726961D01*
X115824878Y-112726961D02*
X115824878Y-111869819D01*
X116348688Y-112869819D02*
X116348688Y-112203152D01*
X116348688Y-111869819D02*
X116301069Y-111917438D01*
X116301069Y-111917438D02*
X116348688Y-111965057D01*
X116348688Y-111965057D02*
X116396307Y-111917438D01*
X116396307Y-111917438D02*
X116348688Y-111869819D01*
X116348688Y-111869819D02*
X116348688Y-111965057D01*
X116729640Y-112203152D02*
X117253449Y-112203152D01*
X117253449Y-112203152D02*
X116729640Y-112869819D01*
X116729640Y-112869819D02*
X117253449Y-112869819D01*
X118015354Y-112822200D02*
X117920116Y-112869819D01*
X117920116Y-112869819D02*
X117729640Y-112869819D01*
X117729640Y-112869819D02*
X117634402Y-112822200D01*
X117634402Y-112822200D02*
X117586783Y-112726961D01*
X117586783Y-112726961D02*
X117586783Y-112346009D01*
X117586783Y-112346009D02*
X117634402Y-112250771D01*
X117634402Y-112250771D02*
X117729640Y-112203152D01*
X117729640Y-112203152D02*
X117920116Y-112203152D01*
X117920116Y-112203152D02*
X118015354Y-112250771D01*
X118015354Y-112250771D02*
X118062973Y-112346009D01*
X118062973Y-112346009D02*
X118062973Y-112441247D01*
X118062973Y-112441247D02*
X117586783Y-112536485D01*
X118491545Y-112869819D02*
X118491545Y-112203152D01*
X118491545Y-112393628D02*
X118539164Y-112298390D01*
X118539164Y-112298390D02*
X118586783Y-112250771D01*
X118586783Y-112250771D02*
X118682021Y-112203152D01*
X118682021Y-112203152D02*
X118777259Y-112203152D01*
X119729641Y-111869819D02*
X120062974Y-112869819D01*
X120062974Y-112869819D02*
X120396307Y-111869819D01*
X121253450Y-112869819D02*
X120682022Y-112869819D01*
X120967736Y-112869819D02*
X120967736Y-111869819D01*
X120967736Y-111869819D02*
X120872498Y-112012676D01*
X120872498Y-112012676D02*
X120777260Y-112107914D01*
X120777260Y-112107914D02*
X120682022Y-112155533D01*
X121682022Y-112774580D02*
X121729641Y-112822200D01*
X121729641Y-112822200D02*
X121682022Y-112869819D01*
X121682022Y-112869819D02*
X121634403Y-112822200D01*
X121634403Y-112822200D02*
X121682022Y-112774580D01*
X121682022Y-112774580D02*
X121682022Y-112869819D01*
X122110593Y-111965057D02*
X122158212Y-111917438D01*
X122158212Y-111917438D02*
X122253450Y-111869819D01*
X122253450Y-111869819D02*
X122491545Y-111869819D01*
X122491545Y-111869819D02*
X122586783Y-111917438D01*
X122586783Y-111917438D02*
X122634402Y-111965057D01*
X122634402Y-111965057D02*
X122682021Y-112060295D01*
X122682021Y-112060295D02*
X122682021Y-112155533D01*
X122682021Y-112155533D02*
X122634402Y-112298390D01*
X122634402Y-112298390D02*
X122062974Y-112869819D01*
X122062974Y-112869819D02*
X122682021Y-112869819D01*
X98515350Y-90453152D02*
X98515350Y-91119819D01*
X98277255Y-90072200D02*
X98039160Y-90786485D01*
X98039160Y-90786485D02*
X98658207Y-90786485D01*
X101312969Y-90119819D02*
X100836779Y-90119819D01*
X100836779Y-90119819D02*
X100789160Y-90596009D01*
X100789160Y-90596009D02*
X100836779Y-90548390D01*
X100836779Y-90548390D02*
X100932017Y-90500771D01*
X100932017Y-90500771D02*
X101170112Y-90500771D01*
X101170112Y-90500771D02*
X101265350Y-90548390D01*
X101265350Y-90548390D02*
X101312969Y-90596009D01*
X101312969Y-90596009D02*
X101360588Y-90691247D01*
X101360588Y-90691247D02*
X101360588Y-90929342D01*
X101360588Y-90929342D02*
X101312969Y-91024580D01*
X101312969Y-91024580D02*
X101265350Y-91072200D01*
X101265350Y-91072200D02*
X101170112Y-91119819D01*
X101170112Y-91119819D02*
X100932017Y-91119819D01*
X100932017Y-91119819D02*
X100836779Y-91072200D01*
X100836779Y-91072200D02*
X100789160Y-91024580D01*
X108039160Y-90215057D02*
X108086779Y-90167438D01*
X108086779Y-90167438D02*
X108182017Y-90119819D01*
X108182017Y-90119819D02*
X108420112Y-90119819D01*
X108420112Y-90119819D02*
X108515350Y-90167438D01*
X108515350Y-90167438D02*
X108562969Y-90215057D01*
X108562969Y-90215057D02*
X108610588Y-90310295D01*
X108610588Y-90310295D02*
X108610588Y-90405533D01*
X108610588Y-90405533D02*
X108562969Y-90548390D01*
X108562969Y-90548390D02*
X107991541Y-91119819D01*
X107991541Y-91119819D02*
X108610588Y-91119819D01*
X112265350Y-90453152D02*
X112265350Y-91119819D01*
X112027255Y-90072200D02*
X111789160Y-90786485D01*
X111789160Y-90786485D02*
X112408207Y-90786485D01*
X113610588Y-96917438D02*
X113515350Y-96869819D01*
X113515350Y-96869819D02*
X113372493Y-96869819D01*
X113372493Y-96869819D02*
X113229636Y-96917438D01*
X113229636Y-96917438D02*
X113134398Y-97012676D01*
X113134398Y-97012676D02*
X113086779Y-97107914D01*
X113086779Y-97107914D02*
X113039160Y-97298390D01*
X113039160Y-97298390D02*
X113039160Y-97441247D01*
X113039160Y-97441247D02*
X113086779Y-97631723D01*
X113086779Y-97631723D02*
X113134398Y-97726961D01*
X113134398Y-97726961D02*
X113229636Y-97822200D01*
X113229636Y-97822200D02*
X113372493Y-97869819D01*
X113372493Y-97869819D02*
X113467731Y-97869819D01*
X113467731Y-97869819D02*
X113610588Y-97822200D01*
X113610588Y-97822200D02*
X113658207Y-97774580D01*
X113658207Y-97774580D02*
X113658207Y-97441247D01*
X113658207Y-97441247D02*
X113467731Y-97441247D01*
X114086779Y-97869819D02*
X114086779Y-96869819D01*
X114086779Y-96869819D02*
X114658207Y-97869819D01*
X114658207Y-97869819D02*
X114658207Y-96869819D01*
X115134398Y-97869819D02*
X115134398Y-96869819D01*
X115134398Y-96869819D02*
X115372493Y-96869819D01*
X115372493Y-96869819D02*
X115515350Y-96917438D01*
X115515350Y-96917438D02*
X115610588Y-97012676D01*
X115610588Y-97012676D02*
X115658207Y-97107914D01*
X115658207Y-97107914D02*
X115705826Y-97298390D01*
X115705826Y-97298390D02*
X115705826Y-97441247D01*
X115705826Y-97441247D02*
X115658207Y-97631723D01*
X115658207Y-97631723D02*
X115610588Y-97726961D01*
X115610588Y-97726961D02*
X115515350Y-97822200D01*
X115515350Y-97822200D02*
X115372493Y-97869819D01*
X115372493Y-97869819D02*
X115134398Y-97869819D01*
X115062969Y-90119819D02*
X114586779Y-90119819D01*
X114586779Y-90119819D02*
X114539160Y-90596009D01*
X114539160Y-90596009D02*
X114586779Y-90548390D01*
X114586779Y-90548390D02*
X114682017Y-90500771D01*
X114682017Y-90500771D02*
X114920112Y-90500771D01*
X114920112Y-90500771D02*
X115015350Y-90548390D01*
X115015350Y-90548390D02*
X115062969Y-90596009D01*
X115062969Y-90596009D02*
X115110588Y-90691247D01*
X115110588Y-90691247D02*
X115110588Y-90929342D01*
X115110588Y-90929342D02*
X115062969Y-91024580D01*
X115062969Y-91024580D02*
X115015350Y-91072200D01*
X115015350Y-91072200D02*
X114920112Y-91119819D01*
X114920112Y-91119819D02*
X114682017Y-91119819D01*
X114682017Y-91119819D02*
X114586779Y-91072200D01*
X114586779Y-91072200D02*
X114539160Y-91024580D01*
X107454819Y-65416666D02*
X106978628Y-65749999D01*
X107454819Y-65988094D02*
X106454819Y-65988094D01*
X106454819Y-65988094D02*
X106454819Y-65607142D01*
X106454819Y-65607142D02*
X106502438Y-65511904D01*
X106502438Y-65511904D02*
X106550057Y-65464285D01*
X106550057Y-65464285D02*
X106645295Y-65416666D01*
X106645295Y-65416666D02*
X106788152Y-65416666D01*
X106788152Y-65416666D02*
X106883390Y-65464285D01*
X106883390Y-65464285D02*
X106931009Y-65511904D01*
X106931009Y-65511904D02*
X106978628Y-65607142D01*
X106978628Y-65607142D02*
X106978628Y-65988094D01*
X106788152Y-64559523D02*
X107454819Y-64559523D01*
X106407200Y-64797618D02*
X107121485Y-65035713D01*
X107121485Y-65035713D02*
X107121485Y-64416666D01*
X112416666Y-106704819D02*
X112416666Y-107419104D01*
X112416666Y-107419104D02*
X112369047Y-107561961D01*
X112369047Y-107561961D02*
X112273809Y-107657200D01*
X112273809Y-107657200D02*
X112130952Y-107704819D01*
X112130952Y-107704819D02*
X112035714Y-107704819D01*
X113369047Y-106704819D02*
X112892857Y-106704819D01*
X112892857Y-106704819D02*
X112845238Y-107181009D01*
X112845238Y-107181009D02*
X112892857Y-107133390D01*
X112892857Y-107133390D02*
X112988095Y-107085771D01*
X112988095Y-107085771D02*
X113226190Y-107085771D01*
X113226190Y-107085771D02*
X113321428Y-107133390D01*
X113321428Y-107133390D02*
X113369047Y-107181009D01*
X113369047Y-107181009D02*
X113416666Y-107276247D01*
X113416666Y-107276247D02*
X113416666Y-107514342D01*
X113416666Y-107514342D02*
X113369047Y-107609580D01*
X113369047Y-107609580D02*
X113321428Y-107657200D01*
X113321428Y-107657200D02*
X113226190Y-107704819D01*
X113226190Y-107704819D02*
X112988095Y-107704819D01*
X112988095Y-107704819D02*
X112892857Y-107657200D01*
X112892857Y-107657200D02*
X112845238Y-107609580D01*
X107511904Y-104954819D02*
X107178571Y-104478628D01*
X106940476Y-104954819D02*
X106940476Y-103954819D01*
X106940476Y-103954819D02*
X107321428Y-103954819D01*
X107321428Y-103954819D02*
X107416666Y-104002438D01*
X107416666Y-104002438D02*
X107464285Y-104050057D01*
X107464285Y-104050057D02*
X107511904Y-104145295D01*
X107511904Y-104145295D02*
X107511904Y-104288152D01*
X107511904Y-104288152D02*
X107464285Y-104383390D01*
X107464285Y-104383390D02*
X107416666Y-104431009D01*
X107416666Y-104431009D02*
X107321428Y-104478628D01*
X107321428Y-104478628D02*
X106940476Y-104478628D01*
X108321428Y-104907200D02*
X108226190Y-104954819D01*
X108226190Y-104954819D02*
X108035714Y-104954819D01*
X108035714Y-104954819D02*
X107940476Y-104907200D01*
X107940476Y-104907200D02*
X107892857Y-104811961D01*
X107892857Y-104811961D02*
X107892857Y-104431009D01*
X107892857Y-104431009D02*
X107940476Y-104335771D01*
X107940476Y-104335771D02*
X108035714Y-104288152D01*
X108035714Y-104288152D02*
X108226190Y-104288152D01*
X108226190Y-104288152D02*
X108321428Y-104335771D01*
X108321428Y-104335771D02*
X108369047Y-104431009D01*
X108369047Y-104431009D02*
X108369047Y-104526247D01*
X108369047Y-104526247D02*
X107892857Y-104621485D01*
X108750000Y-104907200D02*
X108845238Y-104954819D01*
X108845238Y-104954819D02*
X109035714Y-104954819D01*
X109035714Y-104954819D02*
X109130952Y-104907200D01*
X109130952Y-104907200D02*
X109178571Y-104811961D01*
X109178571Y-104811961D02*
X109178571Y-104764342D01*
X109178571Y-104764342D02*
X109130952Y-104669104D01*
X109130952Y-104669104D02*
X109035714Y-104621485D01*
X109035714Y-104621485D02*
X108892857Y-104621485D01*
X108892857Y-104621485D02*
X108797619Y-104573866D01*
X108797619Y-104573866D02*
X108750000Y-104478628D01*
X108750000Y-104478628D02*
X108750000Y-104431009D01*
X108750000Y-104431009D02*
X108797619Y-104335771D01*
X108797619Y-104335771D02*
X108892857Y-104288152D01*
X108892857Y-104288152D02*
X109035714Y-104288152D01*
X109035714Y-104288152D02*
X109130952Y-104335771D01*
X109988095Y-104907200D02*
X109892857Y-104954819D01*
X109892857Y-104954819D02*
X109702381Y-104954819D01*
X109702381Y-104954819D02*
X109607143Y-104907200D01*
X109607143Y-104907200D02*
X109559524Y-104811961D01*
X109559524Y-104811961D02*
X109559524Y-104431009D01*
X109559524Y-104431009D02*
X109607143Y-104335771D01*
X109607143Y-104335771D02*
X109702381Y-104288152D01*
X109702381Y-104288152D02*
X109892857Y-104288152D01*
X109892857Y-104288152D02*
X109988095Y-104335771D01*
X109988095Y-104335771D02*
X110035714Y-104431009D01*
X110035714Y-104431009D02*
X110035714Y-104526247D01*
X110035714Y-104526247D02*
X109559524Y-104621485D01*
X110321429Y-104288152D02*
X110702381Y-104288152D01*
X110464286Y-103954819D02*
X110464286Y-104811961D01*
X110464286Y-104811961D02*
X110511905Y-104907200D01*
X110511905Y-104907200D02*
X110607143Y-104954819D01*
X110607143Y-104954819D02*
X110702381Y-104954819D01*
X101704819Y-65416666D02*
X101228628Y-65749999D01*
X101704819Y-65988094D02*
X100704819Y-65988094D01*
X100704819Y-65988094D02*
X100704819Y-65607142D01*
X100704819Y-65607142D02*
X100752438Y-65511904D01*
X100752438Y-65511904D02*
X100800057Y-65464285D01*
X100800057Y-65464285D02*
X100895295Y-65416666D01*
X100895295Y-65416666D02*
X101038152Y-65416666D01*
X101038152Y-65416666D02*
X101133390Y-65464285D01*
X101133390Y-65464285D02*
X101181009Y-65511904D01*
X101181009Y-65511904D02*
X101228628Y-65607142D01*
X101228628Y-65607142D02*
X101228628Y-65988094D01*
X100800057Y-65035713D02*
X100752438Y-64988094D01*
X100752438Y-64988094D02*
X100704819Y-64892856D01*
X100704819Y-64892856D02*
X100704819Y-64654761D01*
X100704819Y-64654761D02*
X100752438Y-64559523D01*
X100752438Y-64559523D02*
X100800057Y-64511904D01*
X100800057Y-64511904D02*
X100895295Y-64464285D01*
X100895295Y-64464285D02*
X100990533Y-64464285D01*
X100990533Y-64464285D02*
X101133390Y-64511904D01*
X101133390Y-64511904D02*
X101704819Y-65083332D01*
X101704819Y-65083332D02*
X101704819Y-64464285D01*
X113704819Y-65166666D02*
X113228628Y-65499999D01*
X113704819Y-65738094D02*
X112704819Y-65738094D01*
X112704819Y-65738094D02*
X112704819Y-65357142D01*
X112704819Y-65357142D02*
X112752438Y-65261904D01*
X112752438Y-65261904D02*
X112800057Y-65214285D01*
X112800057Y-65214285D02*
X112895295Y-65166666D01*
X112895295Y-65166666D02*
X113038152Y-65166666D01*
X113038152Y-65166666D02*
X113133390Y-65214285D01*
X113133390Y-65214285D02*
X113181009Y-65261904D01*
X113181009Y-65261904D02*
X113228628Y-65357142D01*
X113228628Y-65357142D02*
X113228628Y-65738094D01*
X112704819Y-64833332D02*
X112704819Y-64214285D01*
X112704819Y-64214285D02*
X113085771Y-64547618D01*
X113085771Y-64547618D02*
X113085771Y-64404761D01*
X113085771Y-64404761D02*
X113133390Y-64309523D01*
X113133390Y-64309523D02*
X113181009Y-64261904D01*
X113181009Y-64261904D02*
X113276247Y-64214285D01*
X113276247Y-64214285D02*
X113514342Y-64214285D01*
X113514342Y-64214285D02*
X113609580Y-64261904D01*
X113609580Y-64261904D02*
X113657200Y-64309523D01*
X113657200Y-64309523D02*
X113704819Y-64404761D01*
X113704819Y-64404761D02*
X113704819Y-64690475D01*
X113704819Y-64690475D02*
X113657200Y-64785713D01*
X113657200Y-64785713D02*
X113609580Y-64833332D01*
X86416666Y-106704819D02*
X86416666Y-107419104D01*
X86416666Y-107419104D02*
X86369047Y-107561961D01*
X86369047Y-107561961D02*
X86273809Y-107657200D01*
X86273809Y-107657200D02*
X86130952Y-107704819D01*
X86130952Y-107704819D02*
X86035714Y-107704819D01*
X86797619Y-106704819D02*
X87416666Y-106704819D01*
X87416666Y-106704819D02*
X87083333Y-107085771D01*
X87083333Y-107085771D02*
X87226190Y-107085771D01*
X87226190Y-107085771D02*
X87321428Y-107133390D01*
X87321428Y-107133390D02*
X87369047Y-107181009D01*
X87369047Y-107181009D02*
X87416666Y-107276247D01*
X87416666Y-107276247D02*
X87416666Y-107514342D01*
X87416666Y-107514342D02*
X87369047Y-107609580D01*
X87369047Y-107609580D02*
X87321428Y-107657200D01*
X87321428Y-107657200D02*
X87226190Y-107704819D01*
X87226190Y-107704819D02*
X86940476Y-107704819D01*
X86940476Y-107704819D02*
X86845238Y-107657200D01*
X86845238Y-107657200D02*
X86797619Y-107609580D01*
X85297618Y-98859580D02*
X85249999Y-98907200D01*
X85249999Y-98907200D02*
X85107142Y-98954819D01*
X85107142Y-98954819D02*
X85011904Y-98954819D01*
X85011904Y-98954819D02*
X84869047Y-98907200D01*
X84869047Y-98907200D02*
X84773809Y-98811961D01*
X84773809Y-98811961D02*
X84726190Y-98716723D01*
X84726190Y-98716723D02*
X84678571Y-98526247D01*
X84678571Y-98526247D02*
X84678571Y-98383390D01*
X84678571Y-98383390D02*
X84726190Y-98192914D01*
X84726190Y-98192914D02*
X84773809Y-98097676D01*
X84773809Y-98097676D02*
X84869047Y-98002438D01*
X84869047Y-98002438D02*
X85011904Y-97954819D01*
X85011904Y-97954819D02*
X85107142Y-97954819D01*
X85107142Y-97954819D02*
X85249999Y-98002438D01*
X85249999Y-98002438D02*
X85297618Y-98050057D01*
X86154761Y-98288152D02*
X86154761Y-98954819D01*
X85726190Y-98288152D02*
X85726190Y-98811961D01*
X85726190Y-98811961D02*
X85773809Y-98907200D01*
X85773809Y-98907200D02*
X85869047Y-98954819D01*
X85869047Y-98954819D02*
X86011904Y-98954819D01*
X86011904Y-98954819D02*
X86107142Y-98907200D01*
X86107142Y-98907200D02*
X86154761Y-98859580D01*
X86583333Y-98907200D02*
X86678571Y-98954819D01*
X86678571Y-98954819D02*
X86869047Y-98954819D01*
X86869047Y-98954819D02*
X86964285Y-98907200D01*
X86964285Y-98907200D02*
X87011904Y-98811961D01*
X87011904Y-98811961D02*
X87011904Y-98764342D01*
X87011904Y-98764342D02*
X86964285Y-98669104D01*
X86964285Y-98669104D02*
X86869047Y-98621485D01*
X86869047Y-98621485D02*
X86726190Y-98621485D01*
X86726190Y-98621485D02*
X86630952Y-98573866D01*
X86630952Y-98573866D02*
X86583333Y-98478628D01*
X86583333Y-98478628D02*
X86583333Y-98431009D01*
X86583333Y-98431009D02*
X86630952Y-98335771D01*
X86630952Y-98335771D02*
X86726190Y-98288152D01*
X86726190Y-98288152D02*
X86869047Y-98288152D01*
X86869047Y-98288152D02*
X86964285Y-98335771D01*
X87297619Y-98288152D02*
X87678571Y-98288152D01*
X87440476Y-97954819D02*
X87440476Y-98811961D01*
X87440476Y-98811961D02*
X87488095Y-98907200D01*
X87488095Y-98907200D02*
X87583333Y-98954819D01*
X87583333Y-98954819D02*
X87678571Y-98954819D01*
X88154762Y-98954819D02*
X88059524Y-98907200D01*
X88059524Y-98907200D02*
X88011905Y-98859580D01*
X88011905Y-98859580D02*
X87964286Y-98764342D01*
X87964286Y-98764342D02*
X87964286Y-98478628D01*
X87964286Y-98478628D02*
X88011905Y-98383390D01*
X88011905Y-98383390D02*
X88059524Y-98335771D01*
X88059524Y-98335771D02*
X88154762Y-98288152D01*
X88154762Y-98288152D02*
X88297619Y-98288152D01*
X88297619Y-98288152D02*
X88392857Y-98335771D01*
X88392857Y-98335771D02*
X88440476Y-98383390D01*
X88440476Y-98383390D02*
X88488095Y-98478628D01*
X88488095Y-98478628D02*
X88488095Y-98764342D01*
X88488095Y-98764342D02*
X88440476Y-98859580D01*
X88440476Y-98859580D02*
X88392857Y-98907200D01*
X88392857Y-98907200D02*
X88297619Y-98954819D01*
X88297619Y-98954819D02*
X88154762Y-98954819D01*
X88916667Y-98954819D02*
X88916667Y-98288152D01*
X88916667Y-98383390D02*
X88964286Y-98335771D01*
X88964286Y-98335771D02*
X89059524Y-98288152D01*
X89059524Y-98288152D02*
X89202381Y-98288152D01*
X89202381Y-98288152D02*
X89297619Y-98335771D01*
X89297619Y-98335771D02*
X89345238Y-98431009D01*
X89345238Y-98431009D02*
X89345238Y-98954819D01*
X89345238Y-98431009D02*
X89392857Y-98335771D01*
X89392857Y-98335771D02*
X89488095Y-98288152D01*
X89488095Y-98288152D02*
X89630952Y-98288152D01*
X89630952Y-98288152D02*
X89726191Y-98335771D01*
X89726191Y-98335771D02*
X89773810Y-98431009D01*
X89773810Y-98431009D02*
X89773810Y-98954819D01*
X165666666Y-109804819D02*
X165333333Y-109328628D01*
X165095238Y-109804819D02*
X165095238Y-108804819D01*
X165095238Y-108804819D02*
X165476190Y-108804819D01*
X165476190Y-108804819D02*
X165571428Y-108852438D01*
X165571428Y-108852438D02*
X165619047Y-108900057D01*
X165619047Y-108900057D02*
X165666666Y-108995295D01*
X165666666Y-108995295D02*
X165666666Y-109138152D01*
X165666666Y-109138152D02*
X165619047Y-109233390D01*
X165619047Y-109233390D02*
X165571428Y-109281009D01*
X165571428Y-109281009D02*
X165476190Y-109328628D01*
X165476190Y-109328628D02*
X165095238Y-109328628D01*
X166095238Y-109281009D02*
X166428571Y-109281009D01*
X166571428Y-109804819D02*
X166095238Y-109804819D01*
X166095238Y-109804819D02*
X166095238Y-108804819D01*
X166095238Y-108804819D02*
X166571428Y-108804819D01*
X167333333Y-109281009D02*
X167000000Y-109281009D01*
X167000000Y-109804819D02*
X167000000Y-108804819D01*
X167000000Y-108804819D02*
X167476190Y-108804819D01*
X168000000Y-108804819D02*
X168000000Y-109042914D01*
X167761905Y-108947676D02*
X168000000Y-109042914D01*
X168000000Y-109042914D02*
X168238095Y-108947676D01*
X167857143Y-109233390D02*
X168000000Y-109042914D01*
X168000000Y-109042914D02*
X168142857Y-109233390D01*
X168761905Y-108804819D02*
X168761905Y-109042914D01*
X168523810Y-108947676D02*
X168761905Y-109042914D01*
X168761905Y-109042914D02*
X169000000Y-108947676D01*
X168619048Y-109233390D02*
X168761905Y-109042914D01*
X168761905Y-109042914D02*
X168904762Y-109233390D01*
X118359580Y-60166666D02*
X118407200Y-60214285D01*
X118407200Y-60214285D02*
X118454819Y-60357142D01*
X118454819Y-60357142D02*
X118454819Y-60452380D01*
X118454819Y-60452380D02*
X118407200Y-60595237D01*
X118407200Y-60595237D02*
X118311961Y-60690475D01*
X118311961Y-60690475D02*
X118216723Y-60738094D01*
X118216723Y-60738094D02*
X118026247Y-60785713D01*
X118026247Y-60785713D02*
X117883390Y-60785713D01*
X117883390Y-60785713D02*
X117692914Y-60738094D01*
X117692914Y-60738094D02*
X117597676Y-60690475D01*
X117597676Y-60690475D02*
X117502438Y-60595237D01*
X117502438Y-60595237D02*
X117454819Y-60452380D01*
X117454819Y-60452380D02*
X117454819Y-60357142D01*
X117454819Y-60357142D02*
X117502438Y-60214285D01*
X117502438Y-60214285D02*
X117550057Y-60166666D01*
X117550057Y-59785713D02*
X117502438Y-59738094D01*
X117502438Y-59738094D02*
X117454819Y-59642856D01*
X117454819Y-59642856D02*
X117454819Y-59404761D01*
X117454819Y-59404761D02*
X117502438Y-59309523D01*
X117502438Y-59309523D02*
X117550057Y-59261904D01*
X117550057Y-59261904D02*
X117645295Y-59214285D01*
X117645295Y-59214285D02*
X117740533Y-59214285D01*
X117740533Y-59214285D02*
X117883390Y-59261904D01*
X117883390Y-59261904D02*
X118454819Y-59833332D01*
X118454819Y-59833332D02*
X118454819Y-59214285D01*
X82488095Y-71204819D02*
X82488095Y-72014342D01*
X82488095Y-72014342D02*
X82535714Y-72109580D01*
X82535714Y-72109580D02*
X82583333Y-72157200D01*
X82583333Y-72157200D02*
X82678571Y-72204819D01*
X82678571Y-72204819D02*
X82869047Y-72204819D01*
X82869047Y-72204819D02*
X82964285Y-72157200D01*
X82964285Y-72157200D02*
X83011904Y-72109580D01*
X83011904Y-72109580D02*
X83059523Y-72014342D01*
X83059523Y-72014342D02*
X83059523Y-71204819D01*
X84059523Y-72204819D02*
X83488095Y-72204819D01*
X83773809Y-72204819D02*
X83773809Y-71204819D01*
X83773809Y-71204819D02*
X83678571Y-71347676D01*
X83678571Y-71347676D02*
X83583333Y-71442914D01*
X83583333Y-71442914D02*
X83488095Y-71490533D01*
X148848785Y-65329104D02*
X149324975Y-65329104D01*
X148753547Y-65614819D02*
X149086880Y-64614819D01*
X149086880Y-64614819D02*
X149420213Y-65614819D01*
X150277356Y-65614819D02*
X149705928Y-65614819D01*
X149991642Y-65614819D02*
X149991642Y-64614819D01*
X149991642Y-64614819D02*
X149896404Y-64757676D01*
X149896404Y-64757676D02*
X149801166Y-64852914D01*
X149801166Y-64852914D02*
X149705928Y-64900533D01*
X165666666Y-54804819D02*
X165333333Y-54328628D01*
X165095238Y-54804819D02*
X165095238Y-53804819D01*
X165095238Y-53804819D02*
X165476190Y-53804819D01*
X165476190Y-53804819D02*
X165571428Y-53852438D01*
X165571428Y-53852438D02*
X165619047Y-53900057D01*
X165619047Y-53900057D02*
X165666666Y-53995295D01*
X165666666Y-53995295D02*
X165666666Y-54138152D01*
X165666666Y-54138152D02*
X165619047Y-54233390D01*
X165619047Y-54233390D02*
X165571428Y-54281009D01*
X165571428Y-54281009D02*
X165476190Y-54328628D01*
X165476190Y-54328628D02*
X165095238Y-54328628D01*
X166095238Y-54281009D02*
X166428571Y-54281009D01*
X166571428Y-54804819D02*
X166095238Y-54804819D01*
X166095238Y-54804819D02*
X166095238Y-53804819D01*
X166095238Y-53804819D02*
X166571428Y-53804819D01*
X167333333Y-54281009D02*
X167000000Y-54281009D01*
X167000000Y-54804819D02*
X167000000Y-53804819D01*
X167000000Y-53804819D02*
X167476190Y-53804819D01*
X168000000Y-53804819D02*
X168000000Y-54042914D01*
X167761905Y-53947676D02*
X168000000Y-54042914D01*
X168000000Y-54042914D02*
X168238095Y-53947676D01*
X167857143Y-54233390D02*
X168000000Y-54042914D01*
X168000000Y-54042914D02*
X168142857Y-54233390D01*
X168761905Y-53804819D02*
X168761905Y-54042914D01*
X168523810Y-53947676D02*
X168761905Y-54042914D01*
X168761905Y-54042914D02*
X169000000Y-53947676D01*
X168619048Y-54233390D02*
X168761905Y-54042914D01*
X168761905Y-54042914D02*
X168904762Y-54233390D01*
X97666666Y-84704819D02*
X97666666Y-85419104D01*
X97666666Y-85419104D02*
X97619047Y-85561961D01*
X97619047Y-85561961D02*
X97523809Y-85657200D01*
X97523809Y-85657200D02*
X97380952Y-85704819D01*
X97380952Y-85704819D02*
X97285714Y-85704819D01*
X98666666Y-85704819D02*
X98095238Y-85704819D01*
X98380952Y-85704819D02*
X98380952Y-84704819D01*
X98380952Y-84704819D02*
X98285714Y-84847676D01*
X98285714Y-84847676D02*
X98190476Y-84942914D01*
X98190476Y-84942914D02*
X98095238Y-84990533D01*
X104454819Y-90690474D02*
X103454819Y-90690474D01*
X103454819Y-90690474D02*
X104169104Y-90357141D01*
X104169104Y-90357141D02*
X103454819Y-90023808D01*
X103454819Y-90023808D02*
X104454819Y-90023808D01*
X104454819Y-89547617D02*
X103454819Y-89547617D01*
X104454819Y-89071427D02*
X103454819Y-89071427D01*
X103454819Y-89071427D02*
X103454819Y-88833332D01*
X103454819Y-88833332D02*
X103502438Y-88690475D01*
X103502438Y-88690475D02*
X103597676Y-88595237D01*
X103597676Y-88595237D02*
X103692914Y-88547618D01*
X103692914Y-88547618D02*
X103883390Y-88499999D01*
X103883390Y-88499999D02*
X104026247Y-88499999D01*
X104026247Y-88499999D02*
X104216723Y-88547618D01*
X104216723Y-88547618D02*
X104311961Y-88595237D01*
X104311961Y-88595237D02*
X104407200Y-88690475D01*
X104407200Y-88690475D02*
X104454819Y-88833332D01*
X104454819Y-88833332D02*
X104454819Y-89071427D01*
X104454819Y-88071427D02*
X103454819Y-88071427D01*
X104073866Y-87595237D02*
X104073866Y-86833333D01*
X104454819Y-86357142D02*
X103454819Y-86357142D01*
X104454819Y-85880952D02*
X103454819Y-85880952D01*
X103454819Y-85880952D02*
X104454819Y-85309524D01*
X104454819Y-85309524D02*
X103454819Y-85309524D01*
X110954819Y-94833333D02*
X111669104Y-94833333D01*
X111669104Y-94833333D02*
X111811961Y-94880952D01*
X111811961Y-94880952D02*
X111907200Y-94976190D01*
X111907200Y-94976190D02*
X111954819Y-95119047D01*
X111954819Y-95119047D02*
X111954819Y-95214285D01*
X110954819Y-93928571D02*
X110954819Y-94119047D01*
X110954819Y-94119047D02*
X111002438Y-94214285D01*
X111002438Y-94214285D02*
X111050057Y-94261904D01*
X111050057Y-94261904D02*
X111192914Y-94357142D01*
X111192914Y-94357142D02*
X111383390Y-94404761D01*
X111383390Y-94404761D02*
X111764342Y-94404761D01*
X111764342Y-94404761D02*
X111859580Y-94357142D01*
X111859580Y-94357142D02*
X111907200Y-94309523D01*
X111907200Y-94309523D02*
X111954819Y-94214285D01*
X111954819Y-94214285D02*
X111954819Y-94023809D01*
X111954819Y-94023809D02*
X111907200Y-93928571D01*
X111907200Y-93928571D02*
X111859580Y-93880952D01*
X111859580Y-93880952D02*
X111764342Y-93833333D01*
X111764342Y-93833333D02*
X111526247Y-93833333D01*
X111526247Y-93833333D02*
X111431009Y-93880952D01*
X111431009Y-93880952D02*
X111383390Y-93928571D01*
X111383390Y-93928571D02*
X111335771Y-94023809D01*
X111335771Y-94023809D02*
X111335771Y-94214285D01*
X111335771Y-94214285D02*
X111383390Y-94309523D01*
X111383390Y-94309523D02*
X111431009Y-94357142D01*
X111431009Y-94357142D02*
X111526247Y-94404761D01*
X98109580Y-62916666D02*
X98157200Y-62964285D01*
X98157200Y-62964285D02*
X98204819Y-63107142D01*
X98204819Y-63107142D02*
X98204819Y-63202380D01*
X98204819Y-63202380D02*
X98157200Y-63345237D01*
X98157200Y-63345237D02*
X98061961Y-63440475D01*
X98061961Y-63440475D02*
X97966723Y-63488094D01*
X97966723Y-63488094D02*
X97776247Y-63535713D01*
X97776247Y-63535713D02*
X97633390Y-63535713D01*
X97633390Y-63535713D02*
X97442914Y-63488094D01*
X97442914Y-63488094D02*
X97347676Y-63440475D01*
X97347676Y-63440475D02*
X97252438Y-63345237D01*
X97252438Y-63345237D02*
X97204819Y-63202380D01*
X97204819Y-63202380D02*
X97204819Y-63107142D01*
X97204819Y-63107142D02*
X97252438Y-62964285D01*
X97252438Y-62964285D02*
X97300057Y-62916666D01*
X98204819Y-61964285D02*
X98204819Y-62535713D01*
X98204819Y-62249999D02*
X97204819Y-62249999D01*
X97204819Y-62249999D02*
X97347676Y-62345237D01*
X97347676Y-62345237D02*
X97442914Y-62440475D01*
X97442914Y-62440475D02*
X97490533Y-62535713D01*
X86583333Y-85704819D02*
X86250000Y-85228628D01*
X86011905Y-85704819D02*
X86011905Y-84704819D01*
X86011905Y-84704819D02*
X86392857Y-84704819D01*
X86392857Y-84704819D02*
X86488095Y-84752438D01*
X86488095Y-84752438D02*
X86535714Y-84800057D01*
X86535714Y-84800057D02*
X86583333Y-84895295D01*
X86583333Y-84895295D02*
X86583333Y-85038152D01*
X86583333Y-85038152D02*
X86535714Y-85133390D01*
X86535714Y-85133390D02*
X86488095Y-85181009D01*
X86488095Y-85181009D02*
X86392857Y-85228628D01*
X86392857Y-85228628D02*
X86011905Y-85228628D01*
X87535714Y-85704819D02*
X86964286Y-85704819D01*
X87250000Y-85704819D02*
X87250000Y-84704819D01*
X87250000Y-84704819D02*
X87154762Y-84847676D01*
X87154762Y-84847676D02*
X87059524Y-84942914D01*
X87059524Y-84942914D02*
X86964286Y-84990533D01*
X75666666Y-109804819D02*
X75333333Y-109328628D01*
X75095238Y-109804819D02*
X75095238Y-108804819D01*
X75095238Y-108804819D02*
X75476190Y-108804819D01*
X75476190Y-108804819D02*
X75571428Y-108852438D01*
X75571428Y-108852438D02*
X75619047Y-108900057D01*
X75619047Y-108900057D02*
X75666666Y-108995295D01*
X75666666Y-108995295D02*
X75666666Y-109138152D01*
X75666666Y-109138152D02*
X75619047Y-109233390D01*
X75619047Y-109233390D02*
X75571428Y-109281009D01*
X75571428Y-109281009D02*
X75476190Y-109328628D01*
X75476190Y-109328628D02*
X75095238Y-109328628D01*
X76095238Y-109281009D02*
X76428571Y-109281009D01*
X76571428Y-109804819D02*
X76095238Y-109804819D01*
X76095238Y-109804819D02*
X76095238Y-108804819D01*
X76095238Y-108804819D02*
X76571428Y-108804819D01*
X77333333Y-109281009D02*
X77000000Y-109281009D01*
X77000000Y-109804819D02*
X77000000Y-108804819D01*
X77000000Y-108804819D02*
X77476190Y-108804819D01*
X78000000Y-108804819D02*
X78000000Y-109042914D01*
X77761905Y-108947676D02*
X78000000Y-109042914D01*
X78000000Y-109042914D02*
X78238095Y-108947676D01*
X77857143Y-109233390D02*
X78000000Y-109042914D01*
X78000000Y-109042914D02*
X78142857Y-109233390D01*
X78761905Y-108804819D02*
X78761905Y-109042914D01*
X78523810Y-108947676D02*
X78761905Y-109042914D01*
X78761905Y-109042914D02*
X79000000Y-108947676D01*
X78619048Y-109233390D02*
X78761905Y-109042914D01*
X78761905Y-109042914D02*
X78904762Y-109233390D01*
X99666666Y-106704819D02*
X99666666Y-107419104D01*
X99666666Y-107419104D02*
X99619047Y-107561961D01*
X99619047Y-107561961D02*
X99523809Y-107657200D01*
X99523809Y-107657200D02*
X99380952Y-107704819D01*
X99380952Y-107704819D02*
X99285714Y-107704819D01*
X100571428Y-107038152D02*
X100571428Y-107704819D01*
X100333333Y-106657200D02*
X100095238Y-107371485D01*
X100095238Y-107371485D02*
X100714285Y-107371485D01*
X97714286Y-98954819D02*
X97714286Y-97954819D01*
X97714286Y-97954819D02*
X97952381Y-97954819D01*
X97952381Y-97954819D02*
X98095238Y-98002438D01*
X98095238Y-98002438D02*
X98190476Y-98097676D01*
X98190476Y-98097676D02*
X98238095Y-98192914D01*
X98238095Y-98192914D02*
X98285714Y-98383390D01*
X98285714Y-98383390D02*
X98285714Y-98526247D01*
X98285714Y-98526247D02*
X98238095Y-98716723D01*
X98238095Y-98716723D02*
X98190476Y-98811961D01*
X98190476Y-98811961D02*
X98095238Y-98907200D01*
X98095238Y-98907200D02*
X97952381Y-98954819D01*
X97952381Y-98954819D02*
X97714286Y-98954819D01*
X98714286Y-98954819D02*
X98714286Y-98288152D01*
X98714286Y-97954819D02*
X98666667Y-98002438D01*
X98666667Y-98002438D02*
X98714286Y-98050057D01*
X98714286Y-98050057D02*
X98761905Y-98002438D01*
X98761905Y-98002438D02*
X98714286Y-97954819D01*
X98714286Y-97954819D02*
X98714286Y-98050057D01*
X99095238Y-98288152D02*
X99333333Y-98954819D01*
X99333333Y-98954819D02*
X99571428Y-98288152D01*
X99952381Y-98954819D02*
X99952381Y-98288152D01*
X99952381Y-97954819D02*
X99904762Y-98002438D01*
X99904762Y-98002438D02*
X99952381Y-98050057D01*
X99952381Y-98050057D02*
X100000000Y-98002438D01*
X100000000Y-98002438D02*
X99952381Y-97954819D01*
X99952381Y-97954819D02*
X99952381Y-98050057D01*
X100380952Y-98907200D02*
X100476190Y-98954819D01*
X100476190Y-98954819D02*
X100666666Y-98954819D01*
X100666666Y-98954819D02*
X100761904Y-98907200D01*
X100761904Y-98907200D02*
X100809523Y-98811961D01*
X100809523Y-98811961D02*
X100809523Y-98764342D01*
X100809523Y-98764342D02*
X100761904Y-98669104D01*
X100761904Y-98669104D02*
X100666666Y-98621485D01*
X100666666Y-98621485D02*
X100523809Y-98621485D01*
X100523809Y-98621485D02*
X100428571Y-98573866D01*
X100428571Y-98573866D02*
X100380952Y-98478628D01*
X100380952Y-98478628D02*
X100380952Y-98431009D01*
X100380952Y-98431009D02*
X100428571Y-98335771D01*
X100428571Y-98335771D02*
X100523809Y-98288152D01*
X100523809Y-98288152D02*
X100666666Y-98288152D01*
X100666666Y-98288152D02*
X100761904Y-98335771D01*
X101380952Y-98954819D02*
X101285714Y-98907200D01*
X101285714Y-98907200D02*
X101238095Y-98859580D01*
X101238095Y-98859580D02*
X101190476Y-98764342D01*
X101190476Y-98764342D02*
X101190476Y-98478628D01*
X101190476Y-98478628D02*
X101238095Y-98383390D01*
X101238095Y-98383390D02*
X101285714Y-98335771D01*
X101285714Y-98335771D02*
X101380952Y-98288152D01*
X101380952Y-98288152D02*
X101523809Y-98288152D01*
X101523809Y-98288152D02*
X101619047Y-98335771D01*
X101619047Y-98335771D02*
X101666666Y-98383390D01*
X101666666Y-98383390D02*
X101714285Y-98478628D01*
X101714285Y-98478628D02*
X101714285Y-98764342D01*
X101714285Y-98764342D02*
X101666666Y-98859580D01*
X101666666Y-98859580D02*
X101619047Y-98907200D01*
X101619047Y-98907200D02*
X101523809Y-98954819D01*
X101523809Y-98954819D02*
X101380952Y-98954819D01*
X102142857Y-98954819D02*
X102142857Y-98288152D01*
X102142857Y-98478628D02*
X102190476Y-98383390D01*
X102190476Y-98383390D02*
X102238095Y-98335771D01*
X102238095Y-98335771D02*
X102333333Y-98288152D01*
X102333333Y-98288152D02*
X102428571Y-98288152D01*
X84384819Y-79048094D02*
X83384819Y-79048094D01*
X83384819Y-79048094D02*
X83384819Y-78809999D01*
X83384819Y-78809999D02*
X83432438Y-78667142D01*
X83432438Y-78667142D02*
X83527676Y-78571904D01*
X83527676Y-78571904D02*
X83622914Y-78524285D01*
X83622914Y-78524285D02*
X83813390Y-78476666D01*
X83813390Y-78476666D02*
X83956247Y-78476666D01*
X83956247Y-78476666D02*
X84146723Y-78524285D01*
X84146723Y-78524285D02*
X84241961Y-78571904D01*
X84241961Y-78571904D02*
X84337200Y-78667142D01*
X84337200Y-78667142D02*
X84384819Y-78809999D01*
X84384819Y-78809999D02*
X84384819Y-79048094D01*
X84384819Y-77524285D02*
X84384819Y-78095713D01*
X84384819Y-77809999D02*
X83384819Y-77809999D01*
X83384819Y-77809999D02*
X83527676Y-77905237D01*
X83527676Y-77905237D02*
X83622914Y-78000475D01*
X83622914Y-78000475D02*
X83670533Y-78095713D01*
X84064819Y-74761904D02*
X83064819Y-74761904D01*
X84064819Y-74190476D02*
X83493390Y-74619047D01*
X83064819Y-74190476D02*
X83636247Y-74761904D01*
X128488095Y-78454819D02*
X128488095Y-79264342D01*
X128488095Y-79264342D02*
X128535714Y-79359580D01*
X128535714Y-79359580D02*
X128583333Y-79407200D01*
X128583333Y-79407200D02*
X128678571Y-79454819D01*
X128678571Y-79454819D02*
X128869047Y-79454819D01*
X128869047Y-79454819D02*
X128964285Y-79407200D01*
X128964285Y-79407200D02*
X129011904Y-79359580D01*
X129011904Y-79359580D02*
X129059523Y-79264342D01*
X129059523Y-79264342D02*
X129059523Y-78454819D01*
X129488095Y-78550057D02*
X129535714Y-78502438D01*
X129535714Y-78502438D02*
X129630952Y-78454819D01*
X129630952Y-78454819D02*
X129869047Y-78454819D01*
X129869047Y-78454819D02*
X129964285Y-78502438D01*
X129964285Y-78502438D02*
X130011904Y-78550057D01*
X130011904Y-78550057D02*
X130059523Y-78645295D01*
X130059523Y-78645295D02*
X130059523Y-78740533D01*
X130059523Y-78740533D02*
X130011904Y-78883390D01*
X130011904Y-78883390D02*
X129440476Y-79454819D01*
X129440476Y-79454819D02*
X130059523Y-79454819D01*
X75666666Y-54804819D02*
X75333333Y-54328628D01*
X75095238Y-54804819D02*
X75095238Y-53804819D01*
X75095238Y-53804819D02*
X75476190Y-53804819D01*
X75476190Y-53804819D02*
X75571428Y-53852438D01*
X75571428Y-53852438D02*
X75619047Y-53900057D01*
X75619047Y-53900057D02*
X75666666Y-53995295D01*
X75666666Y-53995295D02*
X75666666Y-54138152D01*
X75666666Y-54138152D02*
X75619047Y-54233390D01*
X75619047Y-54233390D02*
X75571428Y-54281009D01*
X75571428Y-54281009D02*
X75476190Y-54328628D01*
X75476190Y-54328628D02*
X75095238Y-54328628D01*
X76095238Y-54281009D02*
X76428571Y-54281009D01*
X76571428Y-54804819D02*
X76095238Y-54804819D01*
X76095238Y-54804819D02*
X76095238Y-53804819D01*
X76095238Y-53804819D02*
X76571428Y-53804819D01*
X77333333Y-54281009D02*
X77000000Y-54281009D01*
X77000000Y-54804819D02*
X77000000Y-53804819D01*
X77000000Y-53804819D02*
X77476190Y-53804819D01*
X78000000Y-53804819D02*
X78000000Y-54042914D01*
X77761905Y-53947676D02*
X78000000Y-54042914D01*
X78000000Y-54042914D02*
X78238095Y-53947676D01*
X77857143Y-54233390D02*
X78000000Y-54042914D01*
X78000000Y-54042914D02*
X78142857Y-54233390D01*
X78761905Y-53804819D02*
X78761905Y-54042914D01*
X78523810Y-53947676D02*
X78761905Y-54042914D01*
X78761905Y-54042914D02*
X79000000Y-53947676D01*
X78619048Y-54233390D02*
X78761905Y-54042914D01*
X78761905Y-54042914D02*
X78904762Y-54233390D01*
X109166666Y-84704819D02*
X109166666Y-85419104D01*
X109166666Y-85419104D02*
X109119047Y-85561961D01*
X109119047Y-85561961D02*
X109023809Y-85657200D01*
X109023809Y-85657200D02*
X108880952Y-85704819D01*
X108880952Y-85704819D02*
X108785714Y-85704819D01*
X109595238Y-84800057D02*
X109642857Y-84752438D01*
X109642857Y-84752438D02*
X109738095Y-84704819D01*
X109738095Y-84704819D02*
X109976190Y-84704819D01*
X109976190Y-84704819D02*
X110071428Y-84752438D01*
X110071428Y-84752438D02*
X110119047Y-84800057D01*
X110119047Y-84800057D02*
X110166666Y-84895295D01*
X110166666Y-84895295D02*
X110166666Y-84990533D01*
X110166666Y-84990533D02*
X110119047Y-85133390D01*
X110119047Y-85133390D02*
X109547619Y-85704819D01*
X109547619Y-85704819D02*
X110166666Y-85704819D01*
X118204819Y-91607141D02*
X117204819Y-91607141D01*
X117204819Y-91607141D02*
X117919104Y-91273808D01*
X117919104Y-91273808D02*
X117204819Y-90940475D01*
X117204819Y-90940475D02*
X118204819Y-90940475D01*
X118204819Y-90464284D02*
X117204819Y-90464284D01*
X118204819Y-89988094D02*
X117204819Y-89988094D01*
X117204819Y-89988094D02*
X117204819Y-89749999D01*
X117204819Y-89749999D02*
X117252438Y-89607142D01*
X117252438Y-89607142D02*
X117347676Y-89511904D01*
X117347676Y-89511904D02*
X117442914Y-89464285D01*
X117442914Y-89464285D02*
X117633390Y-89416666D01*
X117633390Y-89416666D02*
X117776247Y-89416666D01*
X117776247Y-89416666D02*
X117966723Y-89464285D01*
X117966723Y-89464285D02*
X118061961Y-89511904D01*
X118061961Y-89511904D02*
X118157200Y-89607142D01*
X118157200Y-89607142D02*
X118204819Y-89749999D01*
X118204819Y-89749999D02*
X118204819Y-89988094D01*
X118204819Y-88988094D02*
X117204819Y-88988094D01*
X117823866Y-88511904D02*
X117823866Y-87750000D01*
X117204819Y-87416666D02*
X117204819Y-86845238D01*
X118204819Y-87130952D02*
X117204819Y-87130952D01*
X118204819Y-86511904D02*
X117204819Y-86511904D01*
X117681009Y-86511904D02*
X117681009Y-85940476D01*
X118204819Y-85940476D02*
X117204819Y-85940476D01*
X118204819Y-84892857D02*
X117728628Y-85226190D01*
X118204819Y-85464285D02*
X117204819Y-85464285D01*
X117204819Y-85464285D02*
X117204819Y-85083333D01*
X117204819Y-85083333D02*
X117252438Y-84988095D01*
X117252438Y-84988095D02*
X117300057Y-84940476D01*
X117300057Y-84940476D02*
X117395295Y-84892857D01*
X117395295Y-84892857D02*
X117538152Y-84892857D01*
X117538152Y-84892857D02*
X117633390Y-84940476D01*
X117633390Y-84940476D02*
X117681009Y-84988095D01*
X117681009Y-84988095D02*
X117728628Y-85083333D01*
X117728628Y-85083333D02*
X117728628Y-85464285D01*
X117204819Y-84464285D02*
X118014342Y-84464285D01*
X118014342Y-84464285D02*
X118109580Y-84416666D01*
X118109580Y-84416666D02*
X118157200Y-84369047D01*
X118157200Y-84369047D02*
X118204819Y-84273809D01*
X118204819Y-84273809D02*
X118204819Y-84083333D01*
X118204819Y-84083333D02*
X118157200Y-83988095D01*
X118157200Y-83988095D02*
X118109580Y-83940476D01*
X118109580Y-83940476D02*
X118014342Y-83892857D01*
X118014342Y-83892857D02*
X117204819Y-83892857D01*
%TO.C,R4*%
D11*
X106000000Y-68380000D02*
X106000000Y-69150000D01*
X106000000Y-76460000D02*
X106000000Y-75690000D01*
X104630000Y-69150000D02*
X107370000Y-69150000D01*
X107370000Y-75690000D01*
X104630000Y-75690000D01*
X104630000Y-69150000D01*
%TO.C,J5*%
X111620000Y-103230000D02*
X111620000Y-100580000D01*
X114380000Y-100580000D02*
X111620000Y-100580000D01*
X114380000Y-103230000D02*
X111620000Y-103230000D01*
X114380000Y-103230000D02*
X114380000Y-100580000D01*
X114380000Y-104500000D02*
X114380000Y-105880000D01*
X114380000Y-105880000D02*
X113000000Y-105880000D01*
%TO.C,R2*%
X100000000Y-68460000D02*
X100000000Y-69230000D01*
X100000000Y-76540000D02*
X100000000Y-75770000D01*
X98630000Y-69230000D02*
X101370000Y-69230000D01*
X101370000Y-75770000D01*
X98630000Y-75770000D01*
X98630000Y-69230000D01*
%TO.C,R3*%
X112250000Y-68290000D02*
X112250000Y-69060000D01*
X112250000Y-76370000D02*
X112250000Y-75600000D01*
X110880000Y-69060000D02*
X113620000Y-69060000D01*
X113620000Y-75600000D01*
X110880000Y-75600000D01*
X110880000Y-69060000D01*
%TO.C,J3*%
X85620000Y-103230000D02*
X85620000Y-100580000D01*
X88380000Y-100580000D02*
X85620000Y-100580000D01*
X88380000Y-103230000D02*
X85620000Y-103230000D01*
X88380000Y-103230000D02*
X88380000Y-100580000D01*
X88380000Y-104500000D02*
X88380000Y-105880000D01*
X88380000Y-105880000D02*
X87000000Y-105880000D01*
%TO.C,C2*%
X114130000Y-58380000D02*
X114467000Y-58380000D01*
X114130000Y-63620000D02*
X114130000Y-58380000D01*
X114467000Y-63620000D02*
X114130000Y-63620000D01*
X116533000Y-58380000D02*
X116870000Y-58380000D01*
X116870000Y-58380000D02*
X116870000Y-63620000D01*
X116870000Y-63620000D02*
X116533000Y-63620000D01*
%TO.C,U1*%
X84160000Y-60240000D02*
X84160000Y-70520000D01*
X84160000Y-70520000D02*
X89460000Y-70520000D01*
X85810000Y-60240000D02*
X84160000Y-60240000D01*
X89460000Y-60240000D02*
X87810000Y-60240000D01*
X89460000Y-70520000D02*
X89460000Y-60240000D01*
X81670000Y-60180000D02*
X91950000Y-60180000D01*
X91950000Y-70580000D01*
X81670000Y-70580000D01*
X81670000Y-60180000D01*
X87810000Y-60240000D02*
G75*
G02*
X85810000Y-60240000I-1000000J0D01*
G01*
%TO.C,A1*%
D12*
X134813071Y-54805119D02*
X134813071Y-103305119D01*
X135813071Y-53805119D02*
X144686405Y-53805119D01*
D13*
X141653071Y-103705119D02*
X141653071Y-97855119D01*
D14*
X141853071Y-98005119D02*
X141853071Y-103605119D01*
X141853071Y-103505119D02*
X143803071Y-103505119D01*
D13*
X142053071Y-103305119D02*
X142053071Y-97905119D01*
X142053071Y-103305119D02*
X142053071Y-97905119D01*
X143653071Y-97855119D02*
X143653071Y-103305119D01*
X143653071Y-103305119D02*
X142053071Y-103305119D01*
D14*
X143803071Y-103505119D02*
X145853071Y-103505119D01*
D15*
X143853071Y-103555119D02*
X143853071Y-98005119D01*
D13*
X144053071Y-97855119D02*
X144053071Y-103305119D01*
X144053071Y-103305119D02*
X145653071Y-103305119D01*
D12*
X144686405Y-52610000D02*
X144686405Y-53750000D01*
D13*
X145653071Y-100505119D02*
X148853071Y-100505119D01*
X145653071Y-103305119D02*
X145653071Y-100505119D01*
D14*
X145853071Y-100705119D02*
X148603071Y-100705119D01*
X145853071Y-103505119D02*
X145853071Y-100705119D01*
D13*
X146053071Y-100905119D02*
X146053071Y-103705119D01*
X146053071Y-100905119D02*
X146053071Y-103705119D01*
X146053071Y-103705119D02*
X141653071Y-103705119D01*
X146711231Y-91982519D02*
X147509231Y-91982519D01*
X146711231Y-92124019D02*
X146711231Y-91982519D01*
X146711231Y-92944619D02*
X146733401Y-92831419D01*
X146711231Y-93001219D02*
X146711231Y-92944619D01*
X146733401Y-92831419D02*
X146777731Y-92746519D01*
X146733401Y-93114419D02*
X146711231Y-93001219D01*
X146777731Y-92746519D02*
X147331901Y-92124019D01*
X146822071Y-93227619D02*
X146733401Y-93114419D01*
X146844231Y-92944619D02*
X146844231Y-93001219D01*
X146844231Y-93001219D02*
X146888571Y-93086119D01*
X146888571Y-92831419D02*
X146844231Y-92944619D01*
X146888571Y-93086119D02*
X146955071Y-93142719D01*
X146910731Y-93284219D02*
X146822071Y-93227619D01*
X146955071Y-93142719D02*
X147065901Y-93171019D01*
X147043731Y-93312519D02*
X146910731Y-93284219D01*
X147065901Y-93171019D02*
X147154571Y-93171019D01*
X147132401Y-93312519D02*
X147043731Y-93312519D01*
X147154571Y-93171019D02*
X147265401Y-93142719D01*
X147265401Y-93142719D02*
X147331901Y-93086119D01*
X147287571Y-93284219D02*
X147132401Y-93312519D01*
X147331901Y-92124019D02*
X146711231Y-92124019D01*
X147331901Y-93086119D02*
X147376231Y-93001219D01*
X147376231Y-93001219D02*
X147487071Y-93001219D01*
X147376231Y-93227619D02*
X147287571Y-93284219D01*
X147464901Y-93114419D02*
X147376231Y-93227619D01*
X147487071Y-93001219D02*
X147464901Y-93114419D01*
X147509231Y-91982519D02*
X147509231Y-92124019D01*
X147509231Y-92124019D02*
X146888571Y-92831419D01*
X147686571Y-92293819D02*
X147708731Y-92208919D01*
X147686571Y-92407019D02*
X147686571Y-92293819D01*
X147708731Y-92208919D02*
X147753071Y-92124019D01*
X147708731Y-92520219D02*
X147686571Y-92407019D01*
X147708731Y-92944619D02*
X147730901Y-92831419D01*
X147708731Y-93001219D02*
X147708731Y-92944619D01*
X147730901Y-92831419D02*
X147775231Y-92746519D01*
X147730901Y-93114419D02*
X147708731Y-93001219D01*
X147753071Y-92124019D02*
X147819571Y-92067419D01*
X147753071Y-92605119D02*
X147708731Y-92520219D01*
X147775231Y-92746519D02*
X147863901Y-92661619D01*
X147797401Y-92293819D02*
X147797401Y-92407019D01*
X147797401Y-92407019D02*
X147841731Y-92520219D01*
X147819571Y-92067419D02*
X147908231Y-92010819D01*
X147819571Y-92237219D02*
X147797401Y-92293819D01*
X147819571Y-92944619D02*
X147819571Y-93001219D01*
X147819571Y-93001219D02*
X147863901Y-93086119D01*
X147819571Y-93227619D02*
X147730901Y-93114419D01*
X147841731Y-92520219D02*
X147908231Y-92576819D01*
X147863901Y-92180619D02*
X147819571Y-92237219D01*
X147863901Y-92661619D02*
X147753071Y-92605119D01*
X147863901Y-92831419D02*
X147819571Y-92944619D01*
X147863901Y-93086119D02*
X147930401Y-93142719D01*
X147908231Y-92010819D02*
X147996901Y-91982519D01*
X147908231Y-92152319D02*
X147863901Y-92180619D01*
X147908231Y-92576819D02*
X148041231Y-92605119D01*
X147908231Y-92774819D02*
X147863901Y-92831419D01*
X147908231Y-93284219D02*
X147819571Y-93227619D01*
X147930401Y-93142719D02*
X148041231Y-93171019D01*
X147996901Y-91982519D02*
X148174231Y-91982519D01*
X148019071Y-92124019D02*
X147908231Y-92152319D01*
X148041231Y-92605119D02*
X148129901Y-92605119D01*
X148041231Y-92718219D02*
X147908231Y-92774819D01*
X148041231Y-93171019D02*
X148129901Y-93171019D01*
X148063401Y-93312519D02*
X147908231Y-93284219D01*
X148107731Y-93312519D02*
X148063401Y-93312519D01*
X148129901Y-92605119D02*
X148129901Y-92718219D01*
X148129901Y-92718219D02*
X148041231Y-92718219D01*
X148129901Y-93171019D02*
X148240731Y-93142719D01*
X148152071Y-92124019D02*
X148019071Y-92124019D01*
X148174231Y-91982519D02*
X148262901Y-92010819D01*
X148240731Y-93142719D02*
X148307231Y-93086119D01*
X148262901Y-92010819D02*
X148351571Y-92067419D01*
X148262901Y-92152319D02*
X148152071Y-92124019D01*
X148262901Y-93284219D02*
X148107731Y-93312519D01*
X148307231Y-92180619D02*
X148262901Y-92152319D01*
X148307231Y-93086119D02*
X148351571Y-93001219D01*
X148351571Y-92067419D02*
X148418071Y-92124019D01*
X148351571Y-92237219D02*
X148307231Y-92180619D01*
X148351571Y-93001219D02*
X148462401Y-93001219D01*
X148351571Y-93227619D02*
X148262901Y-93284219D01*
X148373731Y-92293819D02*
X148351571Y-92237219D01*
X148418071Y-92124019D02*
X148462401Y-92208919D01*
X148440231Y-93114419D02*
X148351571Y-93227619D01*
X148453071Y-100905119D02*
X146053071Y-100905119D01*
X148453071Y-103705119D02*
X148453071Y-100905119D01*
X148462401Y-92208919D02*
X148484571Y-92293819D01*
X148462401Y-93001219D02*
X148440231Y-93114419D01*
X148484571Y-92293819D02*
X148373731Y-92293819D01*
D11*
X148603071Y-100705119D02*
X148703071Y-100805119D01*
D14*
X148703071Y-100805119D02*
X148703071Y-103505119D01*
X148703071Y-103505119D02*
X151403071Y-103505119D01*
D13*
X148797906Y-92463619D02*
X149108236Y-92463619D01*
X148797906Y-92605119D02*
X148797906Y-92463619D01*
X148853071Y-100505119D02*
X148853071Y-103305119D01*
X148853071Y-100505119D02*
X148853071Y-103305119D01*
X148853071Y-103305119D02*
X151253071Y-103305119D01*
X149108236Y-92463619D02*
X149108236Y-92605119D01*
X149108236Y-92605119D02*
X148797906Y-92605119D01*
X149287071Y-92888069D02*
X149309231Y-92803169D01*
X149287071Y-93001269D02*
X149287071Y-92888069D01*
X149309231Y-92803169D02*
X149375731Y-92689969D01*
X149309231Y-93086169D02*
X149287071Y-93001269D01*
X149375731Y-92689969D02*
X149464401Y-92605169D01*
X149375731Y-93199369D02*
X149309231Y-93086169D01*
X149420071Y-92916369D02*
X149420071Y-93001269D01*
X149420071Y-93001269D02*
X149442231Y-93086169D01*
X149442231Y-92831469D02*
X149420071Y-92916369D01*
X149442231Y-93086169D02*
X149486571Y-93142769D01*
X149464401Y-92605169D02*
X149575231Y-92576869D01*
X149464401Y-93284269D02*
X149375731Y-93199369D01*
X149486571Y-92774869D02*
X149442231Y-92831469D01*
X149486571Y-93142769D02*
X149553071Y-93171069D01*
X149553071Y-92746569D02*
X149486571Y-92774869D01*
X149553071Y-93171069D02*
X149974231Y-93171069D01*
X149575231Y-92576869D02*
X149974231Y-92576869D01*
X149575231Y-93312569D02*
X149464401Y-93284269D01*
X149974231Y-91982569D02*
X150107231Y-91982569D01*
X149974231Y-92576869D02*
X149974231Y-91982569D01*
X149974231Y-92746569D02*
X149553071Y-92746569D01*
X149974231Y-93171069D02*
X149974231Y-92746569D01*
X150107231Y-91982569D02*
X150107231Y-93312569D01*
X150107231Y-93312569D02*
X149575231Y-93312569D01*
X150284571Y-92293869D02*
X150328901Y-92180669D01*
X150284571Y-92435369D02*
X150284571Y-92293869D01*
X150328901Y-92180669D02*
X150417571Y-92067469D01*
X150328901Y-92548569D02*
X150284571Y-92435369D01*
X150351071Y-93001269D02*
X150484071Y-93001269D01*
X150373231Y-93086169D02*
X150351071Y-93001269D01*
X150417571Y-92067469D02*
X150506231Y-92010869D01*
X150417571Y-92322169D02*
X150417571Y-92407069D01*
X150417571Y-92407069D02*
X150461901Y-92491969D01*
X150417571Y-92661669D02*
X150328901Y-92548569D01*
X150439731Y-93199369D02*
X150373231Y-93086169D01*
X150461901Y-92237269D02*
X150417571Y-92322169D01*
X150461901Y-92491969D02*
X150528401Y-92548569D01*
X150484071Y-93001269D02*
X150506231Y-93057869D01*
X150506231Y-92010869D02*
X150617071Y-91982569D01*
X150506231Y-92718269D02*
X150417571Y-92661669D01*
X150506231Y-93057869D02*
X150550571Y-93114469D01*
X150528401Y-92180669D02*
X150461901Y-92237269D01*
X150528401Y-92548569D02*
X150617071Y-92576869D01*
X150528401Y-93284269D02*
X150439731Y-93199369D01*
X150550571Y-93114469D02*
X150617071Y-93142769D01*
X150617071Y-91982569D02*
X150794401Y-91982569D01*
X150617071Y-92152369D02*
X150528401Y-92180669D01*
X150617071Y-92576869D02*
X150750071Y-92576869D01*
X150617071Y-92746569D02*
X150506231Y-92718269D01*
X150617071Y-93142769D02*
X150750071Y-93142769D01*
X150639231Y-93312569D02*
X150528401Y-93284269D01*
X150750071Y-92576869D02*
X150838731Y-92605169D01*
X150750071Y-92746569D02*
X150617071Y-92746569D01*
X150750071Y-93142769D02*
X150816571Y-93114469D01*
X150750071Y-93312569D02*
X150639231Y-93312569D01*
X150794401Y-91982569D02*
X150905231Y-92010869D01*
X150794401Y-92152369D02*
X150617071Y-92152369D01*
X150816571Y-92774869D02*
X150750071Y-92746569D01*
X150816571Y-93114469D02*
X150883071Y-93057869D01*
X150838731Y-92605169D02*
X150927401Y-92661669D01*
X150838731Y-93284269D02*
X150750071Y-93312569D01*
X150883071Y-92180669D02*
X150794401Y-92152369D01*
X150883071Y-92831469D02*
X150816571Y-92774869D01*
X150883071Y-93057869D02*
X150905231Y-92972969D01*
X150905231Y-92010869D02*
X151016071Y-92095769D01*
X150905231Y-92916369D02*
X150883071Y-92831469D01*
X150905231Y-92972969D02*
X150905231Y-92916369D01*
X150927401Y-92661669D02*
X151016071Y-92774869D01*
X150927401Y-93227669D02*
X150838731Y-93284269D01*
X150949571Y-92265569D02*
X150883071Y-92180669D01*
X150971731Y-92350469D02*
X150949571Y-92265569D01*
X151016071Y-92095769D02*
X151082571Y-92237269D01*
X151016071Y-92774869D02*
X151038231Y-92888069D01*
X151016071Y-93114469D02*
X150927401Y-93227669D01*
X151038231Y-92888069D02*
X151038231Y-93001269D01*
X151038231Y-93001269D02*
X151016071Y-93114469D01*
X151082571Y-92237269D02*
X151104731Y-92350469D01*
X151104731Y-92350469D02*
X150971731Y-92350469D01*
X151253071Y-100505119D02*
X154453071Y-100505119D01*
X151253071Y-103305119D02*
X151253071Y-100505119D01*
X151282071Y-91982569D02*
X152080071Y-91982569D01*
X151282071Y-92152369D02*
X151282071Y-91982569D01*
X151282071Y-93142769D02*
X151947071Y-93142769D01*
X151282071Y-93312569D02*
X151282071Y-93142769D01*
X151370731Y-92605169D02*
X151947071Y-92605169D01*
X151370731Y-92774869D02*
X151370731Y-92605169D01*
D14*
X151403071Y-100755119D02*
X154203071Y-100755119D01*
X151403071Y-103505119D02*
X151403071Y-100755119D01*
D13*
X151653071Y-100905119D02*
X151653071Y-103705119D01*
X151653071Y-100905119D02*
X151653071Y-103705119D01*
X151653071Y-103705119D02*
X148453071Y-103705119D01*
X151947071Y-92152369D02*
X151282071Y-92152369D01*
X151947071Y-92605169D02*
X151947071Y-92152369D01*
X151947071Y-92774869D02*
X151370731Y-92774869D01*
X151947071Y-93142769D02*
X151947071Y-92774869D01*
X152080071Y-91982569D02*
X152080071Y-93312569D01*
X152080071Y-93312569D02*
X151282071Y-93312569D01*
D12*
X153439737Y-52610000D02*
X144686405Y-52610000D01*
X153439737Y-53800000D02*
X153439737Y-52610000D01*
D13*
X154053071Y-100905119D02*
X151653071Y-100905119D01*
X154053071Y-103705119D02*
X154053071Y-100905119D01*
D14*
X154203071Y-100755119D02*
X154203071Y-103505119D01*
X154203071Y-103505119D02*
X156753071Y-103505119D01*
D13*
X154453071Y-100505119D02*
X154453071Y-103305119D01*
X154453071Y-100505119D02*
X154453071Y-103305119D01*
X154453071Y-103305119D02*
X156553071Y-103305119D01*
X156553071Y-99505119D02*
X156953071Y-99505119D01*
X156553071Y-103305119D02*
X156553071Y-99505119D01*
D14*
X156753071Y-103505119D02*
X156753071Y-99605119D01*
D13*
X156953071Y-99505119D02*
X156953071Y-103705119D01*
X156953071Y-99505119D02*
X156953071Y-103705119D01*
X156953071Y-103705119D02*
X154053071Y-103705119D01*
X157953071Y-104305119D02*
X139953071Y-104305119D01*
D12*
X162313071Y-53805119D02*
X153463071Y-53805119D01*
X162313071Y-104305119D02*
X135813071Y-104305119D01*
X163313071Y-54805119D02*
X163313071Y-103305119D01*
D13*
X141103071Y-79892987D02*
X156865201Y-79892987D01*
X156865201Y-97855119D01*
X141103071Y-97855119D01*
X141103071Y-79892987D01*
D11*
X144686405Y-52610000D02*
X153463071Y-52610000D01*
X153463071Y-58510000D01*
X144686405Y-58510000D01*
X144686405Y-52610000D01*
D10*
X139953071Y-78805119D02*
X157953071Y-78805119D01*
X157953071Y-104305119D01*
X139953071Y-104305119D01*
X139953071Y-78805119D01*
D12*
X134813060Y-54860000D02*
G75*
G02*
X135813071Y-53805119I1056048J321D01*
G01*
X135813071Y-104305119D02*
G75*
G02*
X134813071Y-103305119I-305J999695D01*
G01*
X162313071Y-53805119D02*
G75*
G02*
X163313081Y-54805119I329J-999681D01*
G01*
X163313071Y-103305119D02*
G75*
G02*
X162313071Y-104305071I-999671J-281D01*
G01*
%TO.C,J1*%
D11*
X96890000Y-89260000D02*
X96890000Y-87880000D01*
X98270000Y-89260000D02*
X96890000Y-89260000D01*
X99540000Y-86500000D02*
X102190000Y-86500000D01*
X99540000Y-89260000D02*
X99540000Y-86500000D01*
X99540000Y-89260000D02*
X102190000Y-89260000D01*
X102190000Y-89260000D02*
X102190000Y-86500000D01*
%TO.C,J6*%
X113080000Y-95880000D02*
X113080000Y-94500000D01*
X114460000Y-95880000D02*
X113080000Y-95880000D01*
X115730000Y-93120000D02*
X131080000Y-93120000D01*
X115730000Y-95880000D02*
X115730000Y-93120000D01*
X115730000Y-95880000D02*
X131080000Y-95880000D01*
X131080000Y-95880000D02*
X131080000Y-93120000D01*
%TO.C,C1*%
X93880000Y-62880000D02*
X94217000Y-62880000D01*
X93880000Y-68120000D02*
X93880000Y-62880000D01*
X94217000Y-68120000D02*
X93880000Y-68120000D01*
X96283000Y-62880000D02*
X96620000Y-62880000D01*
X96620000Y-62880000D02*
X96620000Y-68120000D01*
X96620000Y-68120000D02*
X96283000Y-68120000D01*
%TO.C,R1*%
X82770000Y-87880000D02*
X83540000Y-87880000D01*
X90850000Y-87880000D02*
X90080000Y-87880000D01*
X83540000Y-86510000D02*
X90080000Y-86510000D01*
X90080000Y-89250000D01*
X83540000Y-89250000D01*
X83540000Y-86510000D01*
%TO.C,J4*%
X98620000Y-103270000D02*
X98620000Y-100620000D01*
X101380000Y-100620000D02*
X98620000Y-100620000D01*
X101380000Y-103270000D02*
X98620000Y-103270000D01*
X101380000Y-103270000D02*
X101380000Y-100620000D01*
X101380000Y-104540000D02*
X101380000Y-105920000D01*
X101380000Y-105920000D02*
X100000000Y-105920000D01*
%TO.C,D1*%
X81810000Y-75540000D02*
X81810000Y-76190000D01*
X81810000Y-81080000D02*
X81810000Y-80430000D01*
X82930000Y-76790000D02*
X80690000Y-76790000D01*
X82930000Y-76910000D02*
X80690000Y-76910000D01*
X82930000Y-77030000D02*
X80690000Y-77030000D01*
X80690000Y-76190000D02*
X82930000Y-76190000D01*
X82930000Y-80430000D01*
X80690000Y-80430000D01*
X80690000Y-76190000D01*
%TO.C,U2*%
X122160000Y-59930000D02*
X122160000Y-77830000D01*
X122160000Y-77830000D02*
X127460000Y-77830000D01*
X123810000Y-59930000D02*
X122160000Y-59930000D01*
X127460000Y-59930000D02*
X125810000Y-59930000D01*
X127460000Y-77830000D02*
X127460000Y-59930000D01*
X119670000Y-59870000D02*
X129950000Y-59870000D01*
X129950000Y-77890000D01*
X119670000Y-77890000D01*
X119670000Y-59870000D01*
X125810000Y-59930000D02*
G75*
G02*
X123810000Y-59930000I-1000000J0D01*
G01*
%TO.C,J2*%
X108350000Y-89260000D02*
X108350000Y-87880000D01*
X109730000Y-89260000D02*
X108350000Y-89260000D01*
X111000000Y-86500000D02*
X116190000Y-86500000D01*
X111000000Y-89260000D02*
X111000000Y-86500000D01*
X111000000Y-89260000D02*
X116190000Y-89260000D01*
X116190000Y-89260000D02*
X116190000Y-86500000D01*
%TD*%
M02*
