M48
; DRILL file KiCad 10.0.5 date 2026-09-02T15:58:05
; FORMAT={-:-/ absolute / metric / decimal}
; #@! TF.CreationDate,2026-09-02T15:58:05+02:00
; #@! TF.GenerationSoftware,Kicad,Pcbnew,10.0.5
; #@! TF.FileFunction,Plated,1,2,PTH
FMAT,2
METRIC
; #@! TA.AperFunction,Plated,PTH,ComponentDrill
T1C0.800
; #@! TA.AperFunction,Plated,PTH,ComponentDrill
T2C1.000
%
G90
G05
T1
X81.73Y-87.88
X81.81Y-74.5
X81.81Y-82.12
X83.0Y-61.57
X83.0Y-64.11
X83.0Y-66.65
X83.0Y-69.19
X90.62Y-61.57
X90.62Y-64.11
X90.62Y-66.65
X90.62Y-69.19
X91.89Y-87.88
X95.25Y-63.0
X95.25Y-68.0
X100.0Y-67.42
X100.0Y-77.58
X106.0Y-67.34
X106.0Y-77.5
X112.25Y-67.25
X112.25Y-77.41
X115.5Y-58.5
X115.5Y-63.5
X121.0Y-61.26
X121.0Y-63.8
X121.0Y-66.34
X121.0Y-68.88
X121.0Y-71.42
X121.0Y-73.96
X121.0Y-76.5
X128.62Y-61.26
X128.62Y-63.8
X128.62Y-66.34
X128.62Y-68.88
X128.62Y-71.42
X128.62Y-73.96
X128.62Y-76.5
T2
X87.0Y-101.96
X87.0Y-104.5
X98.27Y-87.88
X100.0Y-102.0
X100.0Y-104.54
X100.81Y-87.88
X109.73Y-87.88
X112.27Y-87.88
X113.0Y-101.96
X113.0Y-104.5
X114.46Y-94.5
X114.81Y-87.88
X117.0Y-94.5
X119.54Y-94.5
X122.08Y-94.5
X124.62Y-94.5
X127.16Y-94.5
X129.7Y-94.5
X136.31Y-63.3
X136.31Y-65.84
X136.31Y-68.38
X136.31Y-70.92
X136.31Y-73.46
X136.31Y-76.0
X136.31Y-78.54
X136.31Y-81.08
X136.31Y-83.62
X136.31Y-86.16
X136.31Y-88.7
X136.31Y-91.24
X136.31Y-93.78
X136.31Y-96.32
X136.31Y-98.86
X161.71Y-63.3
X161.71Y-65.84
X161.71Y-68.38
X161.71Y-70.92
X161.71Y-73.46
X161.71Y-76.0
X161.71Y-78.54
X161.71Y-81.08
X161.71Y-83.62
X161.71Y-86.16
X161.71Y-88.7
X161.71Y-91.24
X161.71Y-93.78
X161.71Y-96.32
X161.71Y-98.86
M30
