<svg xmlns="http://www.w3.org/2000/svg" width="43mm" height="23.7mm" viewBox="0 0 43 23.7" xmlns:c2pa="http://c2pa.org/manifest"><metadata><c2pa:manifest>AAAWgmp1bWIAAAAeanVtZGMycGEAEQAQgAAAqgA4m3EDYzJwYQAAABZcanVtYgAAAEdqdW1kYzJtYQARABCAAACqADibcQN1cm46YzJwYTphYTQ3MjRjMS0zZjE2LTQ1ODItYTFkMi0wMDA5ODE0Y2U2NTQAAAADl2p1bWIAAAApanVtZGMyYXMAEQAQgAAAqgA4m3EDYzJwYS5hc3NlcnRpb25zAAAAALxqdW1iAAAARGp1bWRjYm9yABEAEIAAAKoAOJtxE2MycGEuaW5ncmVkaWVudC52MwAAAAAYYzJzaJvBviGdt9zGFIxcBS1D1lUAAABwY2JvcqNpZGM6Zm9ybWF0bWltYWdlL3N2Zyt4bWxqaW5zdGFuY2VJRHgseG1wOmlpZDozYjNhNDU5ZS1iNTM0LTQ5YTMtODZkNy0yZTdlZTQyMDA1ZDVscmVsYXRpb25zaGlwaHBhcmVudE9mAAAB4mp1bWIAAABBanVtZGNib3IAEQAQgAAAqgA4m3ETYzJwYS5hY3Rpb25zLnYyAAAAABhjMnNoFhUOIKQlqt4lpkKzP4Pp/wAAAZljYm9yomdhY3Rpb25zgqJmYWN0aW9ua2MycGEub3BlbmVkanBhcmFtZXRlcnOha2luZ3JlZGllbnRzgaJjdXJseC1zZWxmI2p1bWJmPWMycGEuYXNzZXJ0aW9ucy9jMnBhLmluZ3JlZGllbnQudjNkaGFzaFggak07k0jUPlg1G0Jh+uvIkhm4llfPiK07Z4psAcDuHNOkZmFjdGlvbngdY29tLmFudGhyb3BpYy5jbGF1ZGUucHJvdmlkZWRqcGFyYW1ldGVyc6F4H2NvbS5hbnRocm9waWMub3JpZ2luLWNvbmZpZGVuY2VndW5rbm93bmtkZXNjcmlwdGlvbnhmQ2xhdWRlIHByb3ZpZGVkIHRoaXMgZmlsZSBhdCB0aGUgcmVxdWVzdCBvZiBhIHVzZXIgYW5kIG1heSBoYXZlIGNyZWF0ZWQgb3IgbW9kaWZpZWQgdGhlIGZpbGUgY29udGVudHMubXNvZnR3YXJlQWdlbnShZG5hbWVmQ2xhdWRlcmFsbEFjdGlvbnNJbmNsdWRlZPUAAADIanVtYgAAAEBqdW1kY2JvcgARABCAAACqADibcRNjMnBhLmhhc2guZGF0YQAAAAAYYzJzaCjsWsZkjNBA6kqrpjWcn24AAACAY2JvcqVjYWxnZnNoYTI1NmNwYWRNAAAAAAAAAAAAAAAAAGRoYXNoWCBMPAZJsKdcXelOq10S5zw88YN7kzuOwvtqYCdjaqqyR2RuYW1lbmp1bWJmIG1hbmlmZXN0amV4Y2x1c2lvbnOBomVzdGFydBiaZmxlbmd0aBkeBAAAAj5qdW1iAAAAJ2p1bWRjMmNsABEAEIAAAKoAOJtxA2MycGEuY2xhaW0udjIAAAACD2Nib3KlY2FsZ2ZzaGEyNTZpc2lnbmF0dXJleE1zZWxmI2p1bWJmPS9jMnBhL3VybjpjMnBhOmFhNDcyNGMxLTNmMTYtNDU4Mi1hMWQyLTAwMDk4MTRjZTY1NC9jMnBhLnNpZ25hdHVyZWppbnN0YW5jZUlEeCx4bXA6aWlkOmNjYzYyMWE0LTU4NjMtNGE1OS1iMzQ4LWYzZDg2ODczMjRjZXJjcmVhdGVkX2Fzc2VydGlvbnODomN1cmx4LXNlbGYjanVtYmY9YzJwYS5hc3NlcnRpb25zL2MycGEuaW5ncmVkaWVudC52M2RoYXNoWCBqTTuTSNQ+WDUbQmH668iSGbiWV8+IrTtnimwBwO4c06JjdXJseCpzZWxmI2p1bWJmPWMycGEuYXNzZXJ0aW9ucy9jMnBhLmFjdGlvbnMudjJkaGFzaFggxi5zs3OY1aC8G6sNSQRMc/UDUBxjKRIOI6OilKxbhhCiY3VybHgpc2VsZiNqdW1iZj1jMnBhLmFzc2VydGlvbnMvYzJwYS5oYXNoLmRhdGFkaGFzaFggGszmxpeDO54abe/a7vdjwhw9oonviBEN+K4hJw3RcVt0Y2xhaW1fZ2VuZXJhdG9yX2luZm+jZG5hbWVvQW50aHJvcGljIEZpbGVzZ3ZlcnNpb25lMS4wLjBrc3BlY1ZlcnNpb25lMi40LjAAABA4anVtYgAAAChqdW1kYzJjcwARABCAAACqADibcQNjMnBhLnNpZ25hdHVyZQAAABAIY2JvctKEWQISogEmGCFZAgowggIGMIIBjaADAgECAhRA5aAK7sI50L64g/oGQgU9Z1UTADAKBggqhkjOPQQDAzBJMRcwFQYDVQQKEw5BbnRocm9waWMsIFBCQzEuMCwGA1UEAxMlQW50aHJvcGljIENvbnRlbnQgQ3JlZGVudGlhbHMgUm9vdCBDQTAeFw0yNjA4MDcxODQzNTZaFw0yODA4MDYxOTQzNTZaMEQxFzAVBgNVBAoTDkFudGhyb3BpYywgUEJDMSkwJwYDVQQDEyBBbnRocm9waWMgQ2xhdWRlIENvbnRlbnQgU2lnbmluZzBZMBMGByqGSM49AgEGCCqGSM49AwEHA0IABJh6CmvLUBgFFNU0vUKlOVtE6djd17L5SuwX0LemFisBM3dkd/3cyjxFA3Qo5S46fX0/ihY0VZ7mfb9KF703t5OjWDBWMA4GA1UdDwEB/wQEAwIHgDAVBgNVHSUEDjAMBgorBgEEAYPoXgIBMAwGA1UdEwEB/wQCMAAwHwYDVR0jBBgwFoAUzlHiBIFOZFsj+OPEz5o+nMHXXMIwCgYIKoZIzj0EAwMDZwAwZAIwMXMdFJ4BetLLVY7ORuE9noqbbAZOZn/aArXyTwFAZfKrPzxF2vPoJNf1+UCdg1XGAjBwX1zd9WGqYkqmL5SFqw1QySjr1zJfpJM9+1rdDwSPLMOPOjKuiXjoU/pUUeG9RwmhY3BhZFkNngAAAAAAAAAAAAAAAAAAAAAAAAAAAAAAAAAAAAAAAAAAAAAAAAAAAAAAAAAAAAAAAAAAAAAAAAAAAAAAAAAAAAAAAAAAAAAAAAAAAAAAAAAAAAAAAAAAAAAAAAAAAAAAAAAAAAAAAAAAAAAAAAAAAAAAAAAAAAAAAAAAAAAAAAAAAAAAAAAAAAAAAAAAAAAAAAAAAAAAAAAAAAAAAAAAAAAAAAAAAAAAAAAAAAAAAAAAAAAAAAAAAAAAAAAAAAAAAAAAAAAAAAAAAAAAAAAAAAAAAAAAAAAAAAAAAAAAAAAAAAAAAAAAAAAAAAAAAAAAAAAAAAAAAAAAAAAAAAAAAAAAAAAAAAAAAAAAAAAAAAAAAAAAAAAAAAAAAAAAAAAAAAAAAAAAAAAAAAAAAAAAAAAAAAAAAAAAAAAAAAAAAAAAAAAAAAAAAAAAAAAAAAAAAAAAAAAAAAAAAAAAAAAAAAAAAAAAAAAAAAAAAAAAAAAAAAAAAAAAAAAAAAAAAAAAAAAAAAAAAAAAAAAAAAAAAAAAAAAAAAAAAAAAAAAAAAAAAAAAAAAAAAAAAAAAAAAAAAAAAAAAAAAAAAAAAAAAAAAAAAAAAAAAAAAAAAAAAAAAAAAAAAAAAAAAAAAAAAAAAAAAAAAAAAAAAAAAAAAAAAAAAAAAAAAAAAAAAAAAAAAAAAAAAAAAAAAAAAAAAAAAAAAAAAAAAAAAAAAAAAAAAAAAAAAAAAAAAAAAAAAAAAAAAAAAAAAAAAAAAAAAAAAAAAAAAAAAAAAAAAAAAAAAAAAAAAAAAAAAAAAAAAAAAAAAAAAAAAAAAAAAAAAAAAAAAAAAAAAAAAAAAAAAAAAAAAAAAAAAAAAAAAAAAAAAAAAAAAAAAAAAAAAAAAAAAAAAAAAAAAAAAAAAAAAAAAAAAAAAAAAAAAAAAAAAAAAAAAAAAAAAAAAAAAAAAAAAAAAAAAAAAAAAAAAAAAAAAAAAAAAAAAAAAAAAAAAAAAAAAAAAAAAAAAAAAAAAAAAAAAAAAAAAAAAAAAAAAAAAAAAAAAAAAAAAAAAAAAAAAAAAAAAAAAAAAAAAAAAAAAAAAAAAAAAAAAAAAAAAAAAAAAAAAAAAAAAAAAAAAAAAAAAAAAAAAAAAAAAAAAAAAAAAAAAAAAAAAAAAAAAAAAAAAAAAAAAAAAAAAAAAAAAAAAAAAAAAAAAAAAAAAAAAAAAAAAAAAAAAAAAAAAAAAAAAAAAAAAAAAAAAAAAAAAAAAAAAAAAAAAAAAAAAAAAAAAAAAAAAAAAAAAAAAAAAAAAAAAAAAAAAAAAAAAAAAAAAAAAAAAAAAAAAAAAAAAAAAAAAAAAAAAAAAAAAAAAAAAAAAAAAAAAAAAAAAAAAAAAAAAAAAAAAAAAAAAAAAAAAAAAAAAAAAAAAAAAAAAAAAAAAAAAAAAAAAAAAAAAAAAAAAAAAAAAAAAAAAAAAAAAAAAAAAAAAAAAAAAAAAAAAAAAAAAAAAAAAAAAAAAAAAAAAAAAAAAAAAAAAAAAAAAAAAAAAAAAAAAAAAAAAAAAAAAAAAAAAAAAAAAAAAAAAAAAAAAAAAAAAAAAAAAAAAAAAAAAAAAAAAAAAAAAAAAAAAAAAAAAAAAAAAAAAAAAAAAAAAAAAAAAAAAAAAAAAAAAAAAAAAAAAAAAAAAAAAAAAAAAAAAAAAAAAAAAAAAAAAAAAAAAAAAAAAAAAAAAAAAAAAAAAAAAAAAAAAAAAAAAAAAAAAAAAAAAAAAAAAAAAAAAAAAAAAAAAAAAAAAAAAAAAAAAAAAAAAAAAAAAAAAAAAAAAAAAAAAAAAAAAAAAAAAAAAAAAAAAAAAAAAAAAAAAAAAAAAAAAAAAAAAAAAAAAAAAAAAAAAAAAAAAAAAAAAAAAAAAAAAAAAAAAAAAAAAAAAAAAAAAAAAAAAAAAAAAAAAAAAAAAAAAAAAAAAAAAAAAAAAAAAAAAAAAAAAAAAAAAAAAAAAAAAAAAAAAAAAAAAAAAAAAAAAAAAAAAAAAAAAAAAAAAAAAAAAAAAAAAAAAAAAAAAAAAAAAAAAAAAAAAAAAAAAAAAAAAAAAAAAAAAAAAAAAAAAAAAAAAAAAAAAAAAAAAAAAAAAAAAAAAAAAAAAAAAAAAAAAAAAAAAAAAAAAAAAAAAAAAAAAAAAAAAAAAAAAAAAAAAAAAAAAAAAAAAAAAAAAAAAAAAAAAAAAAAAAAAAAAAAAAAAAAAAAAAAAAAAAAAAAAAAAAAAAAAAAAAAAAAAAAAAAAAAAAAAAAAAAAAAAAAAAAAAAAAAAAAAAAAAAAAAAAAAAAAAAAAAAAAAAAAAAAAAAAAAAAAAAAAAAAAAAAAAAAAAAAAAAAAAAAAAAAAAAAAAAAAAAAAAAAAAAAAAAAAAAAAAAAAAAAAAAAAAAAAAAAAAAAAAAAAAAAAAAAAAAAAAAAAAAAAAAAAAAAAAAAAAAAAAAAAAAAAAAAAAAAAAAAAAAAAAAAAAAAAAAAAAAAAAAAAAAAAAAAAAAAAAAAAAAAAAAAAAAAAAAAAAAAAAAAAAAAAAAAAAAAAAAAAAAAAAAAAAAAAAAAAAAAAAAAAAAAAAAAAAAAAAAAAAAAAAAAAAAAAAAAAAAAAAAAAAAAAAAAAAAAAAAAAAAAAAAAAAAAAAAAAAAAAAAAAAAAAAAAAAAAAAAAAAAAAAAAAAAAAAAAAAAAAAAAAAAAAAAAAAAAAAAAAAAAAAAAAAAAAAAAAAAAAAAAAAAAAAAAAAAAAAAAAAAAAAAAAAAAAAAAAAAAAAAAAAAAAAAAAAAAAAAAAAAAAAAAAAAAAAAAAAAAAAAAAAAAAAAAAAAAAAAAAAAAAAAAAAAAAAAAAAAAAAAAAAAAAAAAAAAAAAAAAAAAAAAAAAAAAAAAAAAAAAAAAAAAAAAAAAAAAAAAAAAAAAAAAAAAAAAAAAAAAAAAAAAAAAAAAAAAAAAAAAAAAAAAAAAAAAAAAAAAAAAAAAAAAAAAAAAAAAAAAAAAAAAAAAAAAAAAAAAAAAAAAAAAAAAAAAAAAAAAAAAAAAAAAAAAAAAAAAAAAAAAAAAAAAAAAAAAAAAAAAAAAAAAAAAAAAAAAAAAAAAAAAAAAAAAAAAAAAAAAAAAAAAAAAAAAAAAAAAAAAAAAAAAAAAAAAAAAAAAAAAAAAAAAAAAAAAAAAAAAAAAAAAAAAAAAAAAAAAAAAAAAAAAAAAAAAAAAAAAAAAAAAAAAAAAAAAAAAAAAAAAAAAAAAAAAAAAAAAAAAAAAAAAAAAAAAAAAAAAAAAAAAAAAAAAAAAAAAAAAAAAAAAAAAAAAAAAAAAAAAAAAAAAAAAAAAAAAAAAAAAAAAAAAAAAAAAAAAAAAAAAAAAAAAAAAAAAAAAAAAAAAAAAAAAAAAAAAAAAAAAAAAAAAAAAAAAAAAAAAAAAAAAAAAAAAAAAAAAAAAAAAAAAAAAAAAAAAAAAAAAAAAAAAAAAAAAAAAAAAAAAAAAAAAAAAAAAAAAAAAAAAAAAAAAAAAAAAAAAAAAAAAAAAAAAAAAAAAAAAAAAAAAAAAAAAAAAAAAAAAAAAAAAAAAAAAAAAAAAAAAAAAAAAAAAAAAAAAAAAAAAAAAAAAAAAAAAAAAAAAAAAAAAAAAAAAAAAAAAAAAAAAAAAAAAAAAAAAAAAAAAAAAAAAAAAAAAAAAAAAAAAAAAAAAAAAAAAAAAAAAAAAAAAAAAAAAAAAAAAAAAAAAAAAAAAAAAAAAAAAAAAAAAAAAAAAAAAAAAAAAAAAAAAAAAAAAAAAAAAAAAAAAAAAAAAAAAAAAAAAAAAAAAAAAAAAAAAAAAAAAAAAAAAAAAAAAAAAAAAAAAAAAAAAAAAAAAAAAAAAAAAAAAAAAAAAAAAAAAAAAAAAAAAAAAAAAAAAAAAAAAAAAAAAAAAAAAAAAAAAAAAAAAAAAAAAAAAAAAAAAAAAAAAAAAAAAAAAAAAAAAAAAAAAAAAAAAAAAAAAAAAAAAAAAAAAAAAAAAAAAAAAAAAAAAAAAAAAAAAAAAAAAAAAAAAAAAAAAAAAAAAAAAAAAAAAAAAAAAAAAAAAAAAAAAAAAAAAAAAAAAAAAAAAAAAAAAAAAAAAAAAAAAAAAAAAAAAAAAAAAAAAAAAAAAAAAAAAAAAAAAAAAAAAAAAAAAAAAAAAAAAAAAAAAAAAAAAAAAAAAAAAAAAAAAAAAAAAAAAAAAAAAAAAAAAAAAAAAAAAAAAAAAAAAAAAAAAAAAAAAAAAAAAAAAAAAAAAAAAAAAAAAAAAAAAAAAAAAAAAAAAAAAAAAAAAAAAAAAAAAAAAAAAAAAAAAAAAAAAAAAAAAAAAAAAAAAAAAAAAAAAAAAAAAAAAAAAAAAAAAAAAAAAAAAAAAAAAAAAAAAAAAAAAAAAAAAAAAAAAAAAAAAAAAAAAAAAAAAAAAAAAAAAAAAAAAAAAAAAAAAAAAAAAAAAAAAAAAAAAAAAAAAAAAAAAAAAAAAAAAAAAAAAAAAAAAAAAAAAAAAAAAAAAAAAAAAAAAAAAAAAAAAAAAAAAAAAAAAAAAAAAAAAAAAAAAAAAAAAAAAAAAAAAAAAAAAAAAAAAAAAAAAAAAAAAAAAAAAAAAAAAAAAAAAAAAAAAAAAAAAAAAAAAAAAAAAAAAAAAAAAAAAAAAAAPZYQCDT78o+4m6ZmzVn1bdtJlXA9MvzlNSU0sGAQtlMOSiXPABGw5YRmjh4N9sZt7eHC8wShg3pJSZBrDbSBNirXqw=</c2pa:manifest></metadata>
  <!-- Kachel 1: gefüllt -->
  <path fill="#000000" d="M0,0 H10 V10 H0 Z"/>
  <!-- Kachel 2: Rahmen (1.2mm Stegbreite) -->
  <path fill="#000000" fill-rule="evenodd" d="M11,0 H21 V10 H11 Z M12.2,1.2 H19.8 V8.8 H12.2 Z"/>
  <!-- Kachel 3: Rahmen -->
  <path fill="#000000" fill-rule="evenodd" d="M22,0 H32 V10 H22 Z M23.2,1.2 H30.8 V8.8 H23.2 Z"/>
  <!-- Kachel 4: Rahmen -->
  <path fill="#000000" fill-rule="evenodd" d="M33,0 H43 V10 H33 Z M34.2,1.2 H41.8 V8.8 H34.2 Z"/>
  <!-- Schriftzug "BarSync" (Manrope Bold, SIL OFL) -->
  <path fill="#000000" d="M0.000 21.044V13.154H3.129Q3.929 13.154 4.441 13.474Q4.954 13.795 5.203 14.293Q5.452 14.792 5.452 15.324Q5.452 15.976 5.143 16.430Q4.833 16.885 4.302 17.044V16.770Q5.047 16.940 5.433 17.477Q5.820 18.014 5.820 18.699Q5.820 19.401 5.551 19.927Q5.283 20.453 4.754 20.749Q4.225 21.044 3.447 21.044ZM1.337 19.801H3.282Q3.628 19.801 3.902 19.661Q4.176 19.521 4.332 19.266Q4.488 19.011 4.488 18.661Q4.488 18.343 4.351 18.091Q4.214 17.839 3.951 17.688Q3.688 17.537 3.321 17.537H1.337ZM1.337 16.304H3.113Q3.397 16.304 3.622 16.195Q3.847 16.085 3.978 15.872Q4.110 15.658 4.110 15.345Q4.110 14.934 3.847 14.660Q3.584 14.387 3.113 14.387H1.337Z M8.570 21.209Q7.929 21.209 7.485 20.965Q7.042 20.721 6.814 20.316Q6.587 19.910 6.587 19.422Q6.587 18.995 6.729 18.653Q6.872 18.310 7.168 18.061Q7.463 17.811 7.935 17.652Q8.291 17.537 8.770 17.444Q9.250 17.351 9.812 17.272Q10.373 17.192 10.987 17.099L10.516 17.368Q10.521 16.754 10.242 16.463Q9.962 16.173 9.299 16.173Q8.899 16.173 8.527 16.359Q8.154 16.546 8.006 17.000L6.800 16.622Q7.020 15.872 7.636 15.417Q8.253 14.962 9.299 14.962Q10.088 14.962 10.688 15.219Q11.288 15.477 11.579 16.063Q11.738 16.376 11.771 16.702Q11.803 17.028 11.803 17.411V21.044H10.647V19.762L10.839 19.970Q10.439 20.612 9.905 20.910Q9.370 21.209 8.570 21.209ZM8.833 20.157Q9.283 20.157 9.601 19.998Q9.918 19.839 10.107 19.609Q10.297 19.379 10.362 19.176Q10.466 18.924 10.480 18.598Q10.494 18.272 10.494 18.069L10.899 18.189Q10.302 18.283 9.875 18.354Q9.447 18.425 9.140 18.488Q8.833 18.551 8.598 18.628Q8.368 18.710 8.209 18.820Q8.050 18.929 7.965 19.072Q7.880 19.214 7.880 19.406Q7.880 19.625 7.990 19.792Q8.099 19.959 8.310 20.058Q8.521 20.157 8.833 20.157Z M13.228 21.044V15.126H14.395V16.567L14.253 16.381Q14.363 16.085 14.546 15.841Q14.730 15.598 14.987 15.439Q15.206 15.291 15.472 15.206Q15.738 15.121 16.017 15.102Q16.297 15.082 16.560 15.126V16.359Q16.297 16.283 15.954 16.310Q15.612 16.337 15.338 16.502Q15.064 16.650 14.891 16.880Q14.719 17.110 14.637 17.403Q14.554 17.696 14.554 18.036V21.044Z M20.522 21.209Q19.656 21.209 18.963 20.907Q18.270 20.606 17.823 20.044Q17.376 19.483 17.256 18.710L18.626 18.502Q18.801 19.203 19.346 19.587Q19.892 19.970 20.604 19.970Q21.026 19.970 21.399 19.839Q21.771 19.707 22.004 19.455Q22.237 19.203 22.237 18.836Q22.237 18.672 22.182 18.532Q22.127 18.392 22.021 18.283Q21.914 18.173 21.747 18.083Q21.579 17.992 21.360 17.926L19.322 17.324Q19.059 17.247 18.755 17.118Q18.450 16.989 18.179 16.762Q17.908 16.535 17.735 16.181Q17.563 15.828 17.563 15.307Q17.563 14.545 17.949 14.028Q18.335 13.510 18.990 13.252Q19.645 12.995 20.445 13.000Q21.256 13.006 21.892 13.277Q22.527 13.548 22.955 14.063Q23.382 14.578 23.558 15.307L22.138 15.554Q22.051 15.137 21.801 14.844Q21.552 14.551 21.193 14.397Q20.834 14.244 20.429 14.233Q20.034 14.228 19.697 14.351Q19.360 14.474 19.155 14.704Q18.949 14.934 18.949 15.241Q18.949 15.532 19.125 15.715Q19.300 15.899 19.560 16.006Q19.820 16.113 20.089 16.184L21.503 16.578Q21.793 16.655 22.155 16.787Q22.517 16.918 22.851 17.154Q23.185 17.389 23.401 17.773Q23.618 18.157 23.618 18.748Q23.618 19.362 23.363 19.825Q23.108 20.288 22.675 20.595Q22.243 20.902 21.686 21.055Q21.130 21.209 20.522 21.209Z M25.585 23.675 26.725 20.546 26.747 21.466 24.166 15.126H25.541L27.372 19.817H27.021L28.802 15.126H30.122L26.824 23.675Z M35.032 21.044V18.195Q35.032 17.915 34.994 17.576Q34.956 17.236 34.816 16.921Q34.676 16.606 34.399 16.403Q34.123 16.200 33.651 16.200Q33.399 16.200 33.153 16.283Q32.906 16.365 32.706 16.565Q32.506 16.765 32.386 17.113Q32.265 17.461 32.265 18.003L31.481 17.669Q31.481 16.913 31.775 16.299Q32.068 15.685 32.638 15.321Q33.208 14.956 34.041 14.956Q34.698 14.956 35.126 15.176Q35.553 15.395 35.805 15.735Q36.057 16.074 36.178 16.458Q36.298 16.841 36.334 17.184Q36.369 17.526 36.369 17.740V21.044ZM30.928 21.044V15.126H32.106V16.962H32.265V21.044Z M40.364 21.209Q39.449 21.209 38.802 20.801Q38.156 20.392 37.813 19.685Q37.471 18.979 37.465 18.085Q37.471 17.176 37.824 16.472Q38.178 15.767 38.830 15.365Q39.482 14.962 40.381 14.962Q41.389 14.962 42.088 15.469Q42.786 15.976 43.000 16.852L41.685 17.209Q41.531 16.732 41.175 16.466Q40.819 16.200 40.364 16.200Q39.849 16.200 39.515 16.444Q39.181 16.688 39.022 17.115Q38.863 17.543 38.863 18.085Q38.863 18.929 39.241 19.450Q39.619 19.970 40.364 19.970Q40.890 19.970 41.194 19.729Q41.499 19.488 41.652 19.033L43.000 19.335Q42.726 20.239 42.041 20.724Q41.356 21.209 40.364 21.209Z"/>
</svg>
